<svg height="512pt" viewBox="0 0 512 512" width="512pt" xmlns="http://www.w3.org/2000/svg"><path d="m437.019531 74.980469c-48.351562-48.351563-112.640625-74.980469-181.019531-74.980469-52.03125 0-102.125 15.535156-144.867188 44.921875-4.550781 3.132813-5.703124 9.355469-2.574218 13.90625s9.355468 5.703125 13.90625 2.574219c39.394531-27.085938 85.570312-41.402344 133.535156-41.402344 130.128906 0 236 105.871094 236 236s-105.871094 236-236 236-236-105.871094-236-236c0-47.972656 14.316406-94.144531 41.398438-133.53125 3.128906-4.550781 1.980468-10.773438-2.570313-13.902344-4.550781-3.132812-10.777344-1.980468-13.90625 2.570313-29.390625 42.734375-44.921875 92.828125-44.921875 144.863281 0 68.378906 26.628906 132.667969 74.980469 181.019531 48.351562 48.351563 112.640625 74.980469 181.019531 74.980469s132.667969-26.628906 181.019531-74.980469c48.351563-48.351562 74.980469-112.640625 74.980469-181.019531s-26.628906-132.667969-74.980469-181.019531zm0 0"/><path d="m173.066406 352.582031c-3.902344-3.902343-10.234375-3.90625-14.140625 0s-3.90625 10.238281 0 14.144531c25.929688 25.929688 60.40625 40.207032 97.074219 40.207032s71.144531-14.277344 97.074219-40.207032c3.90625-3.90625 3.90625-10.238281 0-14.144531s-10.238281-3.90625-14.144531 0c-22.148438 22.152344-51.601563 34.351563-82.929688 34.351563s-60.78125-12.199219-82.933594-34.351563zm0 0"/><path d="m176 276c11.027344 0 20-8.972656 20-20s-8.972656-20-20-20c-11.03125 0-20 8.972656-20 20s8.96875 20 20 20zm0 0"/><path d="m316.003906 256c0 11.027344 8.972656 20 20 20s20-8.972656 20-20-8.972656-20-20-20-20 8.972656-20 20zm0 0"/><path d="m216.125 186.496094c-12.183594-7.035156-26.058594-10.75-40.125-10.75-14.070312 0-27.945312 3.714844-40.128906 10.75-4.785156 2.761718-6.421875 8.878906-3.660156 13.660156 1.851562 3.207031 5.210937 5 8.667968 5 1.695313 0 3.417969-.429688 4.992188-1.339844 9.144531-5.28125 19.566406-8.074218 30.128906-8.074218s20.980469 2.792968 30.125 8.074218c4.785156 2.761719 10.898438 1.121094 13.660156-3.660156 2.761719-4.78125 1.125-10.898438-3.660156-13.660156zm0 0"/><path d="m371.121094 205.15625c3.457031 0 6.816406-1.792969 8.667968-5 2.761719-4.78125 1.125-10.898438-3.660156-13.660156-12.183594-7.035156-26.058594-10.75-40.125-10.75-14.070312 0-27.945312 3.714844-40.128906 10.75-4.78125 2.761718-6.421875 8.878906-3.660156 13.660156 2.761718 4.78125 8.878906 6.421875 13.660156 3.660156 9.148438-5.28125 19.566406-8.074218 30.128906-8.074218s20.980469 2.792968 30.125 8.074218c1.578125.910156 3.296875 1.339844 4.992188 1.339844zm0 0"/><path d="m82.042969 92.054688c2.722656 0 5.433593-1.105469 7.40625-3.277344 3.714843-4.085938 3.414062-10.410156-.671875-14.125-4.085938-3.714844-10.410156-3.414063-14.125.671875l-.003906.007812c-3.714844 4.085938-3.414063 10.40625.671874 14.121094 1.917969 1.742187 4.324219 2.601563 6.722657 2.601563zm0 0"/></svg>