<svg height="512pt" viewBox="0 0 512 512" width="512pt" xmlns="http://www.w3.org/2000/svg"><path d="m471.863281 118.371094c.078125-1.273438.136719-2.546875.136719-3.839844 0-34.152344-33.585938-70.609375-49.730469-88.128906-2.917969-3.167969-5.582031-6.402344-10.269531-6.402344-4.691406 0-7.351562 3.234375-10.273438 6.402344-3.089843 3.351562-6.820312 7.40625-10.832031 11.996094-40.460937-25.148438-86.90625-38.398438-134.894531-38.398438-52.03125 0-102.125 15.535156-144.867188 44.921875-4.550781 3.132813-5.703124 9.355469-2.574218 13.90625 1.9375 2.820313 5.066406 4.335937 8.246094 4.335937 1.953124 0 3.929687-.570312 5.660156-1.761718 39.394531-27.085938 85.570312-41.402344 133.535156-41.402344 43.363281 0 85.347656 11.738281 122.109375 34.023438-13.484375 17.777343-26.109375 39.570312-26.109375 60.507812 0 33.085938 26.914062 60 60 60 22.203125 0 41.613281-12.132812 51.988281-30.105469 18.378907 34.171875 28.011719 72.347657 28.011719 111.574219 0 130.132812-105.871094 236-236 236s-236-105.867188-236-236c0-47.96875 14.316406-94.144531 41.398438-133.527344 3.128906-4.550781 1.976562-10.777344-2.574219-13.90625s-10.777344-1.976562-13.90625 2.570313c-29.386719 42.734375-44.917969 92.828125-44.917969 144.863281 0 68.378906 26.628906 132.667969 74.980469 181.019531 48.351562 48.351563 112.640625 74.980469 181.019531 74.980469s132.667969-26.628906 181.019531-74.980469c48.351563-48.351562 74.980469-112.640625 74.980469-181.019531 0-49.015625-13.871094-96.519531-40.136719-137.628906zm-59.863281 36.160156c-22.054688 0-40-17.941406-40-40 0-23.871094 24.640625-52.859375 40-69.742188 15.355469 16.882813 40 45.871094 40 69.742188 0 22.058594-17.945312 40-40 40zm0 0"/><path d="m82.042969 92.054688c2.722656 0 5.433593-1.105469 7.40625-3.277344 3.714843-4.085938 3.414062-10.410156-.671875-14.125-4.085938-3.714844-10.410156-3.414063-14.125.671875l-.003906.007812c-3.714844 4.085938-3.414063 10.40625.671874 14.121094 1.917969 1.742187 4.324219 2.601563 6.722657 2.601563zm0 0"/><path d="m271.992188 404.4375c-5.3125 4.550781-8.820313 7.558594-15.992188 7.558594-7.175781 0-10.683594-3.007813-15.992188-7.558594-6.433593-5.515625-14.4375-12.375-29.007812-12.375s-22.578125 6.859375-29.007812 12.375c-5.3125 4.550781-8.820313 7.558594-15.992188 7.558594-5.523438 0-10 4.476562-10 10 0 5.523437 4.476562 10 10 10 14.570312 0 22.578125-6.859375 29.007812-12.375 5.308594-4.550782 8.820313-7.558594 15.992188-7.558594s10.679688 3.007812 15.992188 7.558594c6.429687 5.515625 14.4375 12.375 29.007812 12.375s22.574219-6.859375 29.007812-12.375c5.308594-4.550782 8.816407-7.558594 15.992188-7.558594 7.171875 0 10.679688 3.007812 15.992188 7.558594 6.429687 5.515625 14.433593 12.375 29.007812 12.375 5.523438 0 10-4.476563 10-10 0-5.523438-4.476562-10-10-10-7.171875 0-10.683594-3.007813-15.992188-7.558594-6.433593-5.515625-14.4375-12.378906-29.007812-12.378906s-22.578125 6.863281-29.007812 12.378906zm0 0"/><path d="m308.929688 353.074219c1.953124 1.953125 4.511718 2.929687 7.070312 2.929687 2.5625 0 5.121094-.976562 7.074219-2.929687l12.925781-12.929688 12.929688 12.929688c1.953124 1.953125 4.511718 2.929687 7.070312 2.929687 2.5625 0 5.121094-.976562 7.074219-2.929687 3.902343-3.90625 3.902343-10.238281 0-14.144531l-12.929688-12.929688 12.925781-12.925781c3.90625-3.90625 3.90625-10.238281 0-14.144531-3.902343-3.90625-10.234374-3.902344-14.140624 0l-12.929688 12.929687-12.925781-12.929687c-3.90625-3.902344-10.238281-3.902344-14.144531 0-3.90625 3.90625-3.90625 10.238281 0 14.144531l12.929687 12.925781-12.929687 12.929688c-3.902344 3.90625-3.902344 10.238281 0 14.144531zm0 0"/><path d="m148.925781 353.074219c1.953125 1.953125 4.511719 2.929687 7.070313 2.929687s5.121094-.976562 7.074218-2.929687l12.925782-12.929688 12.929687 12.929688c1.953125 1.953125 4.511719 2.929687 7.070313 2.929687s5.121094-.976562 7.070312-2.929687c3.90625-3.90625 3.90625-10.238281 0-14.144531l-12.925781-12.929688 12.925781-12.925781c3.90625-3.90625 3.90625-10.238281 0-14.144531-3.902344-3.90625-10.234375-3.902344-14.140625 0l-12.929687 12.929687-12.925782-12.929687c-3.90625-3.902344-10.238281-3.902344-14.144531 0-3.90625 3.90625-3.90625 10.238281 0 14.144531l12.925781 12.925781-12.925781 12.929688c-3.90625 3.90625-3.90625 10.238281 0 14.144531zm0 0"/></svg>