<svg height="512pt" viewBox="0 0 512 512" width="512pt" xmlns="http://www.w3.org/2000/svg"><path d="m437.019531 74.980469c-48.351562-48.351563-112.640625-74.980469-181.019531-74.980469-52.03125 0-102.125 15.535156-144.867188 44.921875-4.550781 3.132813-5.703124 9.355469-2.574218 13.90625s9.355468 5.703125 13.90625 2.574219c39.394531-27.085938 85.570312-41.402344 133.535156-41.402344 130.128906 0 236 105.871094 236 236s-105.871094 236-236 236-236-105.871094-236-236c0-47.972656 14.316406-94.144531 41.398438-133.53125 3.128906-4.550781 1.976562-10.773438-2.570313-13.902344-4.550781-3.132812-10.777344-1.980468-13.90625 2.570313-29.390625 42.734375-44.921875 92.828125-44.921875 144.863281 0 68.378906 26.628906 132.667969 74.980469 181.019531 48.351562 48.351563 112.640625 74.980469 181.019531 74.980469s132.667969-26.628906 181.019531-74.980469c48.351563-48.351562 74.980469-112.640625 74.980469-181.019531s-26.628906-132.667969-74.980469-181.019531zm0 0"/><path d="m82.046875 92.054688c2.5625 0 5.125-.980469 7.078125-2.933594 3.902344-3.902344 3.902344-10.234375 0-14.140625-3.90625-3.90625-10.238281-3.90625-14.144531 0l-.003907.003906c-3.90625 3.90625-3.902343 10.234375.003907 14.140625 1.949219 1.953125 4.507812 2.929688 7.066406 2.929688zm0 0"/><path d="m396 236c0-33.085938-26.914062-60-60-60-33.082031 0-60 26.914062-60 60 0 33.082031 26.917969 60 60 60 33.085938 0 60-26.917969 60-60zm-100 0c0-22.058594 17.945312-40 40-40 22.058594 0 40 17.941406 40 40 0 22.054688-17.941406 40-40 40-22.054688 0-40-17.945312-40-40zm0 0"/><path d="m346.003906 236c0-5.523438-4.476562-10-10-10h-.007812c-5.519532 0-9.996094 4.476562-9.996094 10s4.480469 10 10.003906 10c5.523438 0 10-4.476562 10-10zm0 0"/><path d="m176 176c-33.085938 0-60 26.914062-60 60 0 33.082031 26.914062 60 60 60 33.082031 0 60-26.917969 60-60 0-33.085938-26.917969-60-60-60zm0 100c-22.054688 0-40-17.945312-40-40 0-22.058594 17.945312-40 40-40s40 17.941406 40 40c0 22.054688-17.945312 40-40 40zm0 0"/><path d="m176.003906 226h-.007812c-5.523438 0-9.996094 4.476562-9.996094 10s4.480469 10 10.003906 10c5.523438 0 10-4.476562 10-10s-4.476562-10-10-10zm0 0"/><path d="m166 378.292969c0 5.523437 4.476562 10 10 10h160c5.523438 0 10-4.476563 10-10 0-5.519531-4.476562-10-10-10h-160c-5.523438 0-10 4.480469-10 10zm0 0"/></svg>