<svg height="512pt" viewBox="0 0 512 512" width="512pt" xmlns="http://www.w3.org/2000/svg"><path d="m512 256c0-68.378906-26.628906-132.667969-74.980469-181.019531-48.351562-48.351563-112.640625-74.980469-181.019531-74.980469-52.03125 0-102.125 15.535156-144.867188 44.921875-4.550781 3.132813-5.703124 9.355469-2.574218 13.90625 3.128906 4.554687 9.355468 5.703125 13.90625 2.578125 39.394531-27.089844 85.570312-41.40625 133.535156-41.40625 130.128906 0 236 105.871094 236 236 0 10.074219-.648438 20.15625-1.921875 30.136719-8.253906-4.503907-18.277344-7.15625-29.078125-7.15625-28.121094 0-51 17.917969-51 39.945312 0 22.027344 22.878906 39.945313 51 39.945313 2.597656 0 5.148438-.15625 7.644531-.449219-38.996093 80.683594-121.945312 133.578125-212.644531 133.578125-90.695312 0-173.644531-52.894531-212.644531-133.578125 2.496093.296875 5.046875.449219 7.644531.449219 28.121094 0 51-17.917969 51-39.945313 0-22.027343-22.878906-39.945312-51-39.945312-10.800781 0-20.824219 2.652343-29.082031 7.15625-1.269531-9.96875-1.917969-20.050781-1.917969-30.136719 0-47.96875 14.316406-94.144531 41.398438-133.527344 3.128906-4.550781 1.976562-10.777344-2.574219-13.90625-4.546875-3.128906-10.773438-1.976562-13.90625 2.570313-29.386719 42.734375-44.917969 92.828125-44.917969 144.863281 0 15.746094 1.460938 31.492188 4.3125 46.875-2.765625 4.917969-4.3125 10.34375-4.3125 16.050781 0 11.964844 6.761719 22.710938 17.433594 30.035157 18.308594 46.980468 49.785156 87.179687 91.210937 116.390624 43.269531 30.519532 94.226563 46.648438 147.355469 46.648438s104.085938-16.128906 147.355469-46.648438c41.425781-29.214843 72.90625-69.410156 91.210937-116.390624 10.671875-7.328126 17.429688-18.070313 17.429688-30.035157 0-5.707031-1.546875-11.132812-4.308594-16.050781 2.851562-15.402344 4.3125-31.148438 4.3125-46.875zm-430 62.925781c0 10.8125-14.195312 19.945313-31 19.945313-7.582031 0-14.628906-1.863282-20.085938-4.898438-.226562-.140625-.460937-.273437-.703124-.394531-6.234376-3.679687-10.210938-8.929687-10.210938-14.652344 0-2.714843.898438-5.324219 2.503906-7.710937.277344-.332032.53125-.679688.761719-1.042969 5.140625-6.5625 15.773437-11.191406 27.734375-11.191406 16.804688 0 31 9.132812 31 19.945312zm348 0c0-10.8125 14.195312-19.945312 31-19.945312 11.960938 0 22.59375 4.628906 27.734375 11.191406.230469.363281.484375.714844.761719 1.042969 1.605468 2.386718 2.503906 4.996094 2.503906 7.710937 0 5.722657-3.976562 10.972657-10.210938 14.648438-.238281.125-.472656.253906-.703124.398437-5.457032 3.035156-12.503907 4.898438-20.085938 4.898438-16.804688 0-31-9.132813-31-19.945313zm0 0"/><path d="m82.050781 92.050781c2.414063 0 4.839844-.867187 6.757813-2.628906 4.070312-3.730469 4.347656-10.054687.613281-14.128906-3.726563-4.066407-10.054687-4.34375-14.125-.613281l-.007813.007812c-4.070312 3.730469-4.34375 10.054688-.609374 14.125 1.96875 2.148438 4.664062 3.238281 7.371093 3.238281zm0 0"/><path d="m259.417969 302.648438c-1.03125.65625-2.566407 1.390624-3.417969 1.652343-.851562-.261719-2.382812-.992187-3.382812-1.628906-.035157-.023437-.074219-.050781-.109376-.074219-25.359374-15.996094-47.5-3.539062-55.945312 5.523438-4.832031 4.613281-37.789062 36.113281-42.722656 41.554687-7.8125 8.625-5.230469 18.042969-1.40625 22.660157 22.550781 29.789062 68.222656 43.128906 103.566406 43.128906s81.015625-13.339844 103.566406-43.128906c3.828125-4.617188 6.40625-14.035157-1.40625-22.660157-4.933594-5.441406-37.890625-36.941406-42.722656-41.554687-8.445312-9.0625-30.585938-21.519532-56.019531-5.472656zm41.472656 19.199218c.203125.234375.28125.304688.503906.515625 13.878907 13.25 35.097657 33.671875 40.875 39.613281-16.351562 19.816407-51.332031 33.488282-86.269531 33.488282s-69.917969-13.671875-86.269531-33.488282c5.777343-5.941406 26.996093-26.363281 40.875-39.613281.175781-.164062.34375-.335937.503906-.515625.511719-.5625 12.714844-13.660156 30.679687-2.363281 1.863282 1.203125 8.070313 4.882813 14.210938 4.882813s12.347656-3.679688 14.214844-4.882813c17.328125-10.898437 29.421875 1.039063 30.675781 2.363281zm0 0"/><path d="m244.367188 345.175781c-5.519532 0-10 4.476563-10 10 0 5.523438 4.480468 10 10 10h23.265624c5.519532 0 10-4.476562 10-10 0-5.523437-4.480468-10-10-10zm0 0"/><path d="m291.214844 246.890625c-1.429688 5.332031 1.734375 10.816406 7.070312 12.246094 5.339844 1.429687 10.820313-1.738281 12.246094-7.070313 3.085938-11.507812 13.558594-19.542968 25.46875-19.542968h.007812.003907c11.910156.003906 22.378906 8.039062 25.460937 19.542968.925782 3.449219 3.617188 6.144532 7.070313 7.070313 3.230469.867187 6.796875 1.269531 10.464843 1.269531 11.46875 0 23.945313-3.972656 30.308594-10.332031 3.90625-3.902344 3.90625-10.234375 0-14.140625s-10.234375-3.90625-14.144531 0c-1.835937 1.835937-9.523437 4.671875-16.625 4.515625-1.140625-2.628907-2.515625-5.125-4.09375-7.460938 8.140625-4.902343 15.09375-11.929687 17.714844-18.761719 1.976562-5.15625-.601563-10.9375-5.761719-12.917968-5.15625-1.976563-10.9375.601562-12.914062 5.757812-.996094 2.597656-7.65625 8.941406-14.746094 11.433594-1.679688-.949219-3.421875-1.785156-5.214844-2.523438 4.222656-8.050781 6.484375-17.097656 5.386719-24.007812-.867188-5.453125-5.992188-9.171875-11.445313-8.304688-5.453125.863282-9.175781 5.988282-8.308594 11.441407.445313 2.800781-2.261718 11.925781-7.347656 17.609375-19.179687 1.742187-35.546875 15.300781-40.601562 34.175781zm0 0"/><path d="m132.992188 260.410156c3.667968 0 7.234374-.40625 10.464843-1.273437 3.453125-.925781 6.144531-3.621094 7.070313-7.070313 3.082031-11.503906 13.550781-19.539062 25.460937-19.542968h.003907.007812c11.910156 0 22.382812 8.035156 25.46875 19.542968 1.429688 5.332032 6.90625 8.5 12.246094 7.070313 5.335937-1.429688 8.5-6.910157 7.070312-12.246094-5.054687-18.875-21.421875-32.433594-40.601562-34.171875-5.085938-5.683594-7.792969-14.808594-7.347656-17.609375.867187-5.453125-2.855469-10.578125-8.308594-11.445313-5.449219-.863281-10.578125 2.851563-11.445313 8.308594-1.097656 6.910156 1.164063 15.957032 5.386719 24.007813-1.792969.734375-3.535156 1.574219-5.214844 2.523437-7.089844-2.492187-13.75-8.835937-14.746094-11.433594-1.976562-5.15625-7.757812-7.738281-12.914062-5.757812-5.160156 1.976562-7.734375 7.757812-5.761719 12.917969 2.621094 6.828125 9.574219 13.859375 17.714844 18.761719-1.578125 2.335937-2.953125 4.828124-4.09375 7.460937-7.097656.152344-14.789063-2.683594-16.625-4.519531-3.90625-3.902344-10.238281-3.902344-14.144531 0-3.90625 3.90625-3.90625 10.238281 0 14.144531 6.363281 6.359375 18.839844 10.332031 30.308594 10.332031zm0 0"/></svg>