<svg height="512pt" viewBox="0 0 512 512" width="512pt" xmlns="http://www.w3.org/2000/svg"><path d="m437.019531 74.980469c-48.351562-48.351563-112.640625-74.980469-181.019531-74.980469-52.03125 0-102.125 15.535156-144.867188 44.921875-4.550781 3.132813-5.703124 9.355469-2.574218 13.90625 3.128906 4.554687 9.355468 5.703125 13.90625 2.578125 39.394531-27.089844 85.570312-41.40625 133.535156-41.40625 130.128906 0 236 105.871094 236 236s-105.871094 236-236 236-236-105.871094-236-236c0-47.972656 14.316406-94.144531 41.398438-133.53125 3.128906-4.550781 1.976562-10.773438-2.574219-13.902344-4.546875-3.132812-10.773438-1.980468-13.90625 2.570313-29.386719 42.734375-44.917969 92.828125-44.917969 144.863281 0 68.378906 26.628906 132.667969 74.980469 181.019531 48.351562 48.351563 112.640625 74.980469 181.019531 74.980469s132.667969-26.628906 181.019531-74.980469c48.351563-48.351562 74.980469-112.640625 74.980469-181.019531s-26.628906-132.667969-74.980469-181.019531zm0 0"/><path d="m82.042969 92.054688c2.722656 0 5.433593-1.105469 7.40625-3.277344 3.714843-4.085938 3.414062-10.410156-.671875-14.125-4.085938-3.714844-10.410156-3.414063-14.125.671875l-.003906.007812c-3.714844 4.085938-3.414063 10.40625.671874 14.121094 1.917969 1.742187 4.324219 2.601563 6.722657 2.601563zm0 0"/><path d="m358.074219 208.929688c-3.90625-3.90625-10.238281-3.90625-14.144531 0l-30 30c-2.605469 2.605468-3.566407 6.4375-2.5 9.96875 1.070312 3.527343 3.996093 6.183593 7.609374 6.90625l50 10c.664063.132812 1.324219.195312 1.972657.195312 4.667969 0 8.847656-3.285156 9.796875-8.039062 1.082031-5.417969-2.429688-10.683594-7.847656-11.769532l-31.675782-6.332031 16.789063-16.789063c3.90625-3.902343 3.90625-10.238281 0-14.140624zm0 0"/><path d="m131.191406 257.960938c.949219 4.753906 5.125 8.039062 9.792969 8.039062.652344 0 1.3125-.0625 1.972656-.195312l50-10c3.617188-.722657 6.542969-3.378907 7.609375-6.90625 1.070313-3.53125.109375-7.363282-2.5-9.96875l-30-30c-3.902344-3.90625-10.234375-3.90625-14.140625 0-3.90625 3.902343-3.90625 10.234374 0 14.140624l16.785157 16.789063-31.675782 6.332031c-5.414062 1.085938-8.925781 6.351563-7.84375 11.769532zm0 0"/><path d="m185.835938 304.25c-19.242188 16.554688-29.839844 40.234375-29.839844 66.675781 0 20.96875 12.265625 35.058594 30.515625 35.058594h4.738281v1.265625c0 35.703125 29.046875 64.75 64.75 64.75s64.75-29.046875 64.75-64.75v-1.265625h4.738281c18.25 0 30.515625-14.089844 30.515625-35.058594 0-26.441406-10.597656-50.121093-29.839844-66.675781-18.164062-15.628906-43.082031-24.234375-70.164062-24.234375s-52 8.605469-70.164062 24.234375zm114.914062 103c0 24.671875-20.074219 44.75-44.75 44.75s-44.75-20.078125-44.75-44.75v-26.371094c0-10.132812 8.246094-18.378906 18.382812-18.378906h16.367188v24c0 5.519531 4.476562 10 10 10s10-4.480469 10-10v-24h16.367188c10.136718 0 18.382812 8.246094 18.382812 18.378906zm35.253906-36.324219c0 5.625-1.367187 15.058594-10.515625 15.058594h-4.738281v-5.105469c0-21.164062-17.21875-38.378906-38.382812-38.378906h-52.734376c-21.164062 0-38.382812 17.214844-38.382812 38.378906v5.105469h-4.738281c-9.148438 0-10.515625-9.433594-10.515625-15.058594 0-41.753906 32.898437-70.910156 80.003906-70.910156s80.003906 29.15625 80.003906 70.910156zm0 0"/></svg>