<svg height="512pt" viewBox="0 0 512 512" width="512pt" xmlns="http://www.w3.org/2000/svg"><path d="m437.019531 74.980469c-48.351562-48.351563-112.640625-74.980469-181.019531-74.980469-52.03125 0-102.125 15.535156-144.867188 44.925781-4.550781 3.128907-5.703124 9.351563-2.574218 13.902344 3.128906 4.554687 9.355468 5.703125 13.90625 2.574219 39.394531-27.085938 85.570312-41.402344 133.535156-41.402344 130.132812 0 236 105.871094 236 236 0 92.746094-52.898438 175.109375-135.996094 213.832031v-73.613281c0-.183594-.011718-.367188-.015625-.550781 0-.039063.007813-.078125.007813-.117188-.175782-26.269531-10.851563-49.777343-30.0625-66.199219-18.136719-15.503906-42.972656-24.042968-69.933594-24.042968-27.082031 0-52 8.609375-70.164062 24.234375-19.242188 16.558593-29.839844 40.238281-29.839844 66.675781 0 20.972656 12.261718 35.0625 30.515625 35.0625h29.492187v10.71875c0 16.542969 13.457032 30 30 30 16.539063 0 30-13.457031 30-30v-15.78125h20v55.78125c0 2.230469.25 4.398438.714844 6.492188-13.386719 2.324218-27.03125 3.507812-40.71875 3.507812-130.128906 0-236-105.867188-236-236 0-47.972656 14.316406-94.144531 41.398438-133.527344 3.128906-4.554687 1.980468-10.777344-2.570313-13.90625s-10.777344-1.980468-13.90625 2.570313c-29.390625 42.734375-44.921875 92.828125-44.921875 144.863281 0 68.378906 26.628906 132.667969 74.980469 181.019531 48.351562 48.351563 112.640625 74.980469 181.019531 74.980469 17.785156 0 35.503906-1.851562 52.765625-5.46875 4.878906 3.441406 10.824219 5.46875 17.238281 5.46875 12.839844 0 23.816406-8.109375 28.089844-19.476562 45.367188-18.820313 84.117188-50.074219 112.300781-90.644532 29.835938-42.953125 45.605469-93.394531 45.605469-145.878906 0-68.378906-26.628906-132.667969-74.980469-181.019531zm-250.507812 336.300781c-9.148438 0-10.515625-9.4375-10.515625-15.0625 0-41.75 32.898437-70.910156 80.003906-70.910156 34.753906 0 61.820312 15.953125 73.585938 41.113281-1.171876-.128906-2.367188-.203125-3.582032-.203125-16.792968 0-68.046875 0-76.878906 0-10.210938 0-19.722656 2.867188-26.421875 11.121094-8.035156 9.90625-6.699219 22.054687-6.699219 33.941406zm139.492187 80.71875c-2.71875 0-5.183594-1.09375-6.988281-2.859375-.097656-.113281-.207031-.214844-.308594-.324219-1.671875-1.789062-2.703125-4.179687-2.703125-6.816406v-65.78125c0-5.523438-4.476562-10-10-10h-40c-5.523437 0-10 4.476562-10 10v25.78125c0 5.511719-4.488281 10-10 10-5.515625 0-10-4.488281-10-10v-45.78125l.113282-1.507812c.695312-4.5 4.347656-7.972657 8.835937-8.4375l.542969-.042969 80.507812-.011719c6.167969 0 10 3.832031 10 10v85.78125c0 5.515625-4.488281 10-10 10zm0 0"/><path d="m82.042969 92.054688c2.722656 0 5.433593-1.105469 7.40625-3.277344 3.714843-4.085938 3.414062-10.410156-.671875-14.125-4.085938-3.714844-10.410156-3.414063-14.125.671875l-.003906.003906c-3.714844 4.085937-3.414063 10.410156.671874 14.125 1.917969 1.742187 4.324219 2.601563 6.722657 2.601563zm0 0"/><path d="m308.929688 273.070312c1.953124 1.953126 4.515624 2.929688 7.074218 2.929688s5.117188-.976562 7.070313-2.929688l12.929687-12.929687 12.925782 12.929687c1.953124 1.953126 4.511718 2.929688 7.074218 2.929688 2.558594 0 5.117188-.976562 7.070313-2.929688 3.902343-3.90625 3.902343-10.238281 0-14.144531l-12.929688-12.925781 12.929688-12.929688c3.90625-3.902343 3.90625-10.234374 0-14.140624s-10.234375-3.90625-14.144531 0l-12.925782 12.925781-12.929687-12.925781c-3.90625-3.90625-10.238281-3.90625-14.144531 0-3.90625 3.902343-3.902344 10.234374 0 14.140624l12.929687 12.929688-12.929687 12.925781c-3.902344 3.90625-3.902344 10.238281 0 14.144531zm0 0"/><path d="m148.925781 273.070312c1.953125 1.953126 4.511719 2.929688 7.070313 2.929688 2.5625 0 5.121094-.976562 7.074218-2.929688l12.925782-12.929687 12.929687 12.929687c1.953125 1.953126 4.511719 2.929688 7.070313 2.929688s5.121094-.976562 7.074218-2.929688c3.902344-3.90625 3.902344-10.238281 0-14.144531l-12.929687-12.925781 12.929687-12.929688c3.902344-3.902343 3.902344-10.234374 0-14.140624-3.90625-3.90625-10.238281-3.90625-14.144531 0l-12.929687 12.925781-12.925782-12.925781c-3.90625-3.90625-10.238281-3.90625-14.144531 0-3.90625 3.902343-3.90625 10.234374 0 14.140624l12.929688 12.929688-12.929688 12.925781c-3.90625 3.90625-3.90625 10.238281 0 14.144531zm0 0"/></svg>