<svg height="512pt" viewBox="0 0 512.001 512" width="512pt" xmlns="http://www.w3.org/2000/svg"><path d="m437.019531 74.980469c-48.351562-48.351563-112.640625-74.980469-181.019531-74.980469-52.03125 0-102.125 15.535156-144.867188 44.925781-4.550781 3.128907-5.703124 9.355469-2.574218 13.90625s9.355468 5.703125 13.902344 2.574219c39.398437-27.089844 85.574218-41.40625 133.539062-41.40625 130.128906 0 236 105.871094 236 236s-105.871094 236-236 236-236-105.867188-236-236c0-47.972656 14.316406-94.144531 41.398438-133.527344 3.128906-4.550781 1.976562-10.777344-2.574219-13.90625s-10.777344-1.976562-13.90625 2.570313c-29.386719 42.738281-44.917969 92.828125-44.917969 144.863281 0 68.378906 26.628906 132.667969 74.980469 181.019531 48.351562 48.351563 112.640625 74.980469 181.019531 74.980469 68.382812 0 132.667969-26.628906 181.019531-74.980469 48.351563-48.351562 74.980469-112.640625 74.980469-181.019531s-26.628906-132.667969-74.980469-181.019531zm0 0"/><path d="m82.042969 92.054688c2.722656 0 5.433593-1.105469 7.40625-3.277344 3.714843-4.085938 3.414062-10.410156-.671875-14.125-4.085938-3.714844-10.410156-3.414063-14.125.671875l-.003906.007812c-3.714844 4.085938-3.414063 10.40625.671874 14.121094 1.917969 1.742187 4.324219 2.601563 6.722657 2.601563zm0 0"/><path d="m361.132812 286c11.027344 0 20-8.972656 20-20v-10c0-5.519531-4.480468-10-10-10h-70.257812c-5.523438 0-10 4.476562-10 10s4.476562 10 10 10h40.257812c0 11.027344 8.96875 20 20 20zm0 0"/><path d="m211.125 246h-70.253906c-5.523438 0-10 4.476562-10 10s4.476562 10 10 10h40.253906c0 11.027344 8.972656 20 20 20 11.03125 0 20-8.972656 20-20v-10c0-5.523438-4.476562-10-10-10zm0 0"/><path d="m212.210938 396.972656c-2.761719 4.78125-1.121094 10.898438 3.660156 13.65625 1.574218.910156 3.292968 1.34375 4.992187 1.34375 3.457031 0 6.816407-1.792968 8.667969-5 5.441406-9.429687 15.585938-15.28125 26.46875-15.28125s21.027344 5.851563 26.46875 15.28125c2.757812 4.78125 8.875 6.417969 13.660156 3.65625 4.78125-2.757812 6.421875-8.875 3.660156-13.65625-9.003906-15.597656-25.78125-25.28125-43.789062-25.28125s-34.785156 9.683594-43.789062 25.28125zm0 0"/></svg>