<svg height="512pt" viewBox="0 0 512 512" width="512pt" xmlns="http://www.w3.org/2000/svg"><path d="m437.019531 74.980469c-48.351562-48.351563-112.640625-74.980469-181.019531-74.980469-52.03125 0-102.125 15.535156-144.867188 44.925781-4.550781 3.128907-5.703124 9.351563-2.574218 13.902344 3.128906 4.554687 9.355468 5.703125 13.90625 2.574219 39.394531-27.085938 85.570312-41.402344 133.535156-41.402344 130.132812 0 236 105.871094 236 236 0 88.269531-48.722656 165.363281-120.675781 205.839844-.125-2.191406-.195313-4.441406-.195313-6.78125 0-21.796875 5.449219-33.304688 11.21875-45.484375 6.15625-13.007813 13.140625-27.75 13.140625-54.042969s-6.980469-41.039062-13.140625-54.046875c-4.820312-10.171875-9.410156-19.882813-10.792968-35.507813 5.324218-.222656 9.578124-4.597656 9.578124-9.976562 0-5.523438-4.480468-10-10-10h-70.257812c-5.523438 0-10 4.476562-10 10s4.476562 10 10 10h.363281c1.503907 20.222656 7.445313 32.785156 12.777344 44.042969 5.769531 12.183593 11.214844 23.6875 11.214844 45.488281 0 21.796875-5.445313 33.300781-11.214844 45.484375-6.160156 13.003906-13.140625 27.75-13.140625 54.042969 0 13.480468 1.855469 23.742187 4.1875 31.796875-15.832031 3.359375-32.242188 5.144531-49.0625 5.144531s-33.230469-1.785156-49.0625-5.144531c2.332031-8.054688 4.1875-18.316407 4.1875-31.796875 0-26.296875-6.980469-41.039063-13.140625-54.042969-5.765625-12.183594-11.214844-23.6875-11.214844-45.484375 0-21.800781 5.449219-33.308594 11.214844-45.488281 5.332031-11.257813 11.273437-23.820313 12.777344-44.042969h.363281c5.523438 0 10-4.476562 10-10s-4.476562-10-10-10h-70.253906c-5.523438 0-10 4.476562-10 10 0 5.378906 4.25 9.753906 9.574218 9.976562-1.382812 15.625-5.972656 25.332032-10.792968 35.507813-6.15625 13.007813-13.136719 27.75-13.136719 54.046875 0 26.292969 6.980469 41.035156 13.136719 54.042969 5.769531 12.179687 11.21875 23.6875 11.21875 45.484375 0 2.339844-.070313 4.589844-.195313 6.777344-71.953125-40.472657-120.675781-117.566407-120.675781-205.835938 0-47.972656 14.316406-94.144531 41.398438-133.527344 3.128906-4.554687 1.976562-10.777344-2.570313-13.90625-4.550781-3.128906-10.777344-1.980468-13.90625 2.570313-29.390625 42.734375-44.921875 92.828125-44.921875 144.863281 0 68.378906 26.628906 132.667969 74.980469 181.019531 48.351562 48.351563 112.640625 74.980469 181.019531 74.980469s132.667969-26.628906 181.019531-74.980469c48.351563-48.351562 74.980469-112.640625 74.980469-181.019531s-26.628906-132.667969-74.980469-181.019531zm-289.289062 326.035156c-5.769531-12.179687-11.21875-23.6875-11.21875-45.484375 0-21.800781 5.449219-33.304688 11.21875-45.484375 5.328125-11.257813 11.273437-23.824219 12.773437-44.046875h30.195313c-1.382813 15.613281-5.972657 25.316406-10.789063 35.484375-6.160156 13.007813-13.140625 27.75-13.140625 54.046875 0 26.292969 6.980469 41.035156 13.140625 54.042969 5.765625 12.179687 11.214844 23.6875 11.214844 45.484375 0 11.582031-1.546875 20.074218-3.558594 26.808594-9.503906-2.882813-18.753906-6.347657-27.707031-10.355469.671875-5.191407 1.007813-10.628907 1.007813-16.453125.003906-26.292969-6.976563-41.035156-13.136719-54.042969zm173.144531 54.042969c0-21.796875 5.449219-33.304688 11.214844-45.484375 6.160156-13.007813 13.140625-27.75 13.140625-54.042969s-6.980469-41.039062-13.140625-54.046875c-4.816406-10.167969-9.40625-19.871094-10.789063-35.484375h30.191407c1.503906 20.222656 7.445312 32.789062 12.777343 44.046875 5.769531 12.179687 11.214844 23.683594 11.214844 45.484375 0 21.796875-5.445313 33.304688-11.214844 45.484375-6.160156 13.007813-13.140625 27.75-13.140625 54.042969 0 5.824218.339844 11.261718 1.011719 16.453125-8.957031 4.011719-18.207031 7.472656-27.707031 10.355469-2.011719-6.734376-3.558594-15.226563-3.558594-26.808594zm0 0"/><path d="m82.046875 92.054688c2.5625 0 5.121094-.980469 7.074219-2.933594 3.90625-3.902344 3.90625-10.234375 0-14.140625-3.902344-3.90625-10.234375-3.90625-14.140625 0l-.003907.003906c-3.90625 3.90625-3.902343 10.234375 0 14.140625 1.953126 1.953125 4.511719 2.929688 7.070313 2.929688zm0 0"/><path d="m212.210938 350.414062c2.761718 4.785157 8.875 6.421876 13.660156 3.660157 9.148437-5.28125 19.566406-8.070313 30.128906-8.070313s20.980469 2.789063 30.128906 8.070313c1.574219.910156 3.292969 1.34375 4.988282 1.34375 3.457031 0 6.820312-1.792969 8.671874-5.003907 2.761719-4.78125 1.121094-10.898437-3.660156-13.660156-12.183594-7.03125-26.058594-10.75-40.128906-10.75-14.066406 0-27.945312 3.71875-40.128906 10.75-4.78125 2.761719-6.421875 8.878906-3.660156 13.660156zm0 0"/></svg>