<svg height="512pt" viewBox="0 0 512 512" width="512pt" xmlns="http://www.w3.org/2000/svg"><path d="m437.019531 74.980469c-48.351562-48.351563-112.640625-74.980469-181.019531-74.980469-52.03125 0-102.125 15.535156-144.867188 44.921875-4.550781 3.132813-5.703124 9.355469-2.574218 13.90625 3.128906 4.554687 9.355468 5.703125 13.90625 2.578125 39.394531-27.089844 85.570312-41.40625 133.535156-41.40625 130.128906 0 236 105.871094 236 236s-105.871094 236-236 236-236-105.871094-236-236c0-47.972656 14.316406-94.144531 41.398438-133.527344 3.128906-4.550781 1.976562-10.777344-2.574219-13.90625-4.546875-3.128906-10.773438-1.976562-13.90625 2.570313-29.386719 42.734375-44.917969 92.828125-44.917969 144.863281 0 68.378906 26.628906 132.667969 74.980469 181.019531 48.351562 48.351563 112.640625 74.980469 181.019531 74.980469s132.667969-26.628906 181.019531-74.980469c48.351563-48.351562 74.980469-112.640625 74.980469-181.019531s-26.628906-132.667969-74.980469-181.019531zm0 0"/><path d="m158.925781 369.863281c-3.902343 3.90625-3.902343 10.238281 0 14.144531 3.90625 3.902344 10.238281 3.902344 14.144531 0 22.152344-22.152343 51.605469-34.351562 82.929688-34.351562 31.328125 0 60.78125 12.199219 82.933594 34.351562 1.953125 1.953126 4.511718 2.925782 7.070312 2.925782s5.117188-.972656 7.070313-2.925782c3.90625-3.90625 3.90625-10.238281 0-14.144531-25.929688-25.929687-60.402344-40.207031-97.074219-40.207031-36.667969 0-71.144531 14.277344-97.074219 40.207031zm0 0"/><path d="m175.996094 276c11.027344 0 20-8.972656 20-20s-8.972656-20-20-20-20 8.972656-20 20 8.972656 20 20 20zm0 0"/><path d="m316.003906 256c0 11.027344 8.972656 20 20 20s20-8.972656 20-20-8.972656-20-20-20-20 8.972656-20 20zm0 0"/><path d="m206.125 177.082031c-9.144531 5.28125-19.5625 8.074219-30.128906 8.074219-10.5625 0-20.980469-2.792969-30.125-8.074219-4.785156-2.761719-10.902344-1.121093-13.660156 3.660157-2.761719 4.785156-1.125 10.898437 3.660156 13.660156 12.183594 7.035156 26.058594 10.753906 40.125 10.753906 14.070312 0 27.945312-3.71875 40.128906-10.753906 4.785156-2.761719 6.421875-8.875 3.660156-13.660156-2.761718-4.78125-8.875-6.421876-13.660156-3.660157zm0 0"/><path d="m379.792969 180.742188c-2.761719-4.78125-8.878907-6.421876-13.660157-3.660157-9.148437 5.28125-19.566406 8.074219-30.128906 8.074219-10.566406 0-20.980468-2.792969-30.128906-8.074219-4.78125-2.761719-10.898438-1.121093-13.660156 3.660157-2.761719 4.785156-1.121094 10.898437 3.660156 13.660156 12.183594 7.035156 26.058594 10.753906 40.128906 10.753906 14.066406 0 27.945313-3.71875 40.128906-10.753906 4.78125-2.761719 6.421876-8.875 3.660157-13.660156zm0 0"/><path d="m82.050781 92.050781c2.414063 0 4.839844-.867187 6.757813-2.628906 4.070312-3.730469 4.347656-10.054687.613281-14.128906-3.726563-4.066407-10.054687-4.34375-14.125-.613281l-.007813.007812c-4.070312 3.730469-4.34375 10.054688-.609374 14.125 1.96875 2.148438 4.664062 3.238281 7.371093 3.238281zm0 0"/></svg>