<svg height="512pt" viewBox="0 0 512 512" width="512pt" xmlns="http://www.w3.org/2000/svg"><path d="m437.019531 74.980469c-48.351562-48.351563-112.640625-74.980469-181.019531-74.980469-52.03125 0-102.125 15.535156-144.867188 44.921875-4.550781 3.132813-5.703124 9.355469-2.574218 13.90625 3.128906 4.554687 9.355468 5.703125 13.90625 2.578125 39.394531-27.089844 85.570312-41.40625 133.535156-41.40625 130.128906 0 236 105.871094 236 236s-105.871094 236-236 236-236-105.871094-236-236c0-47.972656 14.316406-94.144531 41.398438-133.527344 3.128906-4.550781 1.976562-10.777344-2.574219-13.90625-4.546875-3.128906-10.773438-1.976562-13.90625 2.570313-29.386719 42.734375-44.917969 92.828125-44.917969 144.863281 0 68.378906 26.628906 132.667969 74.980469 181.019531 48.351562 48.351563 112.640625 74.980469 181.019531 74.980469s132.667969-26.628906 181.019531-74.980469c48.351563-48.351562 74.980469-112.640625 74.980469-181.019531s-26.628906-132.667969-74.980469-181.019531zm0 0"/><path d="m82.042969 92.050781c2.722656 0 5.433593-1.101562 7.40625-3.273437 3.714843-4.085938 3.414062-10.410156-.671875-14.125-4.085938-3.714844-10.410156-3.414063-14.125.671875l-.003906.003906c-3.714844 4.085937-3.414063 10.410156.671874 14.125 1.917969 1.742187 4.324219 2.597656 6.722657 2.597656zm0 0"/><path d="m173.066406 332.582031c-3.902344-3.90625-10.234375-3.90625-14.140625 0s-3.90625 10.238281 0 14.144531c25.929688 25.925782 60.40625 40.207032 97.074219 40.207032 6.945312 0 13.839844-.527344 20.621094-1.5625l13.929687 24.121094c9.117188 15.796874 25.523438 24.542968 43.03125 24.542968 8.214844 0 16.675781-1.925781 24.738281-5.957031 11.363282-5.683594 19.707032-15.75 23.488282-28.351563 4.039062-13.445312 2.34375-28.109374-4.65625-40.234374l-17.4375-30.195313c-1.605469-2.78125-4.445313-4.621094-7.640625-4.949219-3.203125-.324218-6.351563.902344-8.488281 3.300782-22.230469 24.964843-54.15625 39.285156-87.589844 39.285156-31.324219 0-60.773438-12.199219-82.929688-34.351563zm142.71875 40.625 5.496094 9.511719c1.851562 3.210938 5.210938 5.003906 8.667969 5.003906 1.695312 0 3.414062-.433594 4.992187-1.34375 4.78125-2.757812 6.421875-8.875 3.660156-13.660156l-5.492187-9.507812c5.558594-3.773438 10.863281-7.957032 15.851563-12.542969l10.871093 18.824219c4.253907 7.371093 5.285157 16.292968 2.824219 24.480468-2.183594 7.265625-6.898438 13.023438-13.28125 16.214844-15.628906 7.816406-33.472656 3.21875-41.507812-10.695312l-10.871094-18.832032c6.445312-2.019531 12.722656-4.519531 18.789062-7.453125zm0 0"/><path d="m340.949219 277.503906c.84375.226563 1.714843.339844 2.582031.339844s1.734375-.113281 2.578125-.339844c18.871094-5.039062 60.203125-38.578125 69.4375-73.101562 4.503906-16.820313.785156-31.789063-10.742187-43.28125-15.566407-15.519532-44.203126-16.414063-61.273438-2.6875-17.074219-13.726563-45.710938-12.828125-61.273438 2.6875-11.53125 11.492187-15.246093 26.460937-10.746093 43.285156 9.234375 34.519531 50.566406 68.058594 69.4375 73.097656zm-44.574219-102.21875c4.378906-4.363281 11.199219-6.546875 18.019531-6.546875 6.820313 0 13.640625 2.183594 18.019531 6.546875.375.371094.671876.683594.921876.945313 2.222656 2.316406 4.835937 4.582031 10.238281 4.605469 5.316406-.023438 7.929687-2.289063 10.152343-4.605469.25-.261719.546876-.574219.921876-.945313 8.757812-8.730468 27.277343-8.730468 36.035156 0 6.4375 6.417969 8.199218 14.027344 5.546875 23.949219-6.769531 25.296875-38.578125 52.066406-52.699219 58.035156-14.121094-5.96875-45.933594-32.738281-52.699219-58.035156-2.65625-9.921875-.894531-17.53125 5.542969-23.949219zm0 0"/><path d="m168.46875 163.789062c-17.070312-13.722656-45.707031-12.828124-61.273438 2.6875-11.527343 11.496094-15.246093 26.460938-10.742187 43.285157 9.234375 34.519531 50.566406 68.058593 69.4375 73.097656.84375.226563 1.710937.339844 2.578125.339844s1.738281-.113281 2.582031-.339844c18.871094-5.039063 60.203125-38.574219 69.4375-73.097656 4.5-16.824219.785157-31.792969-10.746093-43.285157-15.5625-15.515624-44.199219-16.410156-61.273438-2.6875zm52.699219 40.804688c-6.765625 25.296875-38.578125 52.066406-52.699219 58.035156-14.121094-5.96875-45.929688-32.738281-52.695312-58.035156-2.65625-9.925781-.894532-17.535156 5.542968-23.953125 4.378906-4.363281 11.195313-6.546875 18.019532-6.546875 6.820312 0 13.640624 2.183594 18.019531 6.546875.371093.375.671875.6875.921875.945313 2.222656 2.320312 4.835937 4.585937 10.238281 4.605468 5.316406-.019531 7.929687-2.285156 10.148437-4.605468.253907-.257813.550782-.570313.925782-.945313 8.757812-8.726563 27.277344-8.726563 36.035156 0 6.4375 6.417969 8.199219 14.027344 5.542969 23.953125zm0 0"/></svg>