<svg height="512pt" viewBox="0 0 512.001 512" width="512pt" xmlns="http://www.w3.org/2000/svg"><path d="m437.019531 74.980469c-48.351562-48.351563-112.640625-74.980469-181.019531-74.980469-52.03125 0-102.125 15.535156-144.867188 44.921875-4.550781 3.128906-5.703124 9.355469-2.574218 13.90625s9.355468 5.703125 13.90625 2.574219c39.394531-27.085938 85.570312-41.402344 133.535156-41.402344 130.132812 0 236 105.871094 236 236s-105.871094 236-236 236-236-105.867188-236-236c0-47.972656 14.316406-94.144531 41.398438-133.527344 3.128906-4.550781 1.980468-10.777344-2.570313-13.90625s-10.777344-1.976562-13.90625 2.570313c-29.390625 42.734375-44.921875 92.828125-44.921875 144.863281 0 68.378906 26.628906 132.667969 74.980469 181.019531 48.351562 48.351563 112.640625 74.980469 181.019531 74.980469s132.667969-26.628906 181.019531-74.980469c48.355469-48.351562 74.980469-112.640625 74.980469-181.019531s-26.628906-132.667969-74.980469-181.019531zm0 0"/><path d="m82.042969 92.054688c2.722656 0 5.433593-1.105469 7.40625-3.277344 3.714843-4.085938 3.414062-10.410156-.671875-14.125-4.085938-3.714844-10.410156-3.414063-14.125.671875l-.003906.007812c-3.714844 4.085938-3.414063 10.40625.671874 14.121094 1.917969 1.742187 4.324219 2.601563 6.722657 2.601563zm0 0"/><path d="m387.023438 189.0625c-18.140626-10.472656-41.15625-7.441406-55.96875 7.371094-3.90625 3.902344-3.90625 10.234375 0 14.140625s10.238281 3.90625 14.140624 0c8.425782-8.421875 21.511719-10.144531 31.828126-4.191407 10.050781 5.804688 15.082031 17.523438 12.488281 28.761719-.222657.425781-.457031.867188-.695313 1.328125-7.960937 15.191406-22.777344 43.46875-16.675781 66.230469 5.082031 18.964844 22.296875 31.503906 41.0625 31.503906 3.628906 0 7.316406-.46875 10.988281-1.453125 10.964844-2.9375 20.128906-9.96875 25.804688-19.800781 5.675781-9.832031 7.183594-21.285156 4.246094-32.25-5.660157-21.132813-29.308594-37.367187-44.261719-46.925781 1.761719-17.863282-7.027344-35.515625-22.957031-44.714844zm47.898437 96.820312c1.558594 5.804688.757813 11.867188-2.246094 17.074219-3.003906 5.203125-7.859375 8.925781-13.664062 10.480469-11.984375 3.210938-24.34375-3.925781-27.554688-15.910156-3.339843-12.464844 5.058594-31.90625 11.355469-44.542969 11.773438 7.792969 28.769531 20.429687 32.109375 32.898437zm0 0"/><path d="m248.457031 109.0625c-15.929687-9.195312-35.613281-7.980469-50.207031 2.480469-15.753906-8.171875-41.632812-20.535157-62.765625-14.871094-22.636719 6.0625-36.117187 29.414063-30.054687 52.050781 5.085937 18.964844 22.300781 31.503906 41.0625 31.503906 3.628906 0 7.320312-.46875 10.992187-1.453124 22.761719-6.097657 39.839844-33.066407 49.015625-47.554688.28125-.441406.546875-.863281.804688-1.265625 8.4375-7.867187 21.101562-9.371094 31.152343-3.570313 10.316407 5.957032 15.367188 18.152344 12.285157 29.660157-1.429688 5.335937 1.734374 10.816406 7.070312 12.25.867188.230469 1.738281.339843 2.597656.339843 4.414063 0 8.453125-2.945312 9.652344-7.414062 5.421875-20.234375-3.464844-41.683594-21.605469-52.15625zm-96.148437 50.394531c-11.984375 3.207031-24.347656-3.929687-27.558594-15.910156-3.210938-11.984375 3.925781-24.347656 15.910156-27.558594 1.953125-.523437 4.078125-.757812 6.324219-.757812 12.070313 0 27.566406 6.808593 38.21875 12.117187-7.792969 11.773438-20.429687 28.765625-32.894531 32.109375zm0 0"/><path d="m133.09375 202c-2.5625.6875-4.746094 2.359375-6.074219 4.65625-14.828125 25.6875-18.167969 58.113281-9.164062 88.960938 9.847656 33.738281 33.863281 63.046874 67.617187 82.539062 25.355469 14.640625 51.402344 22.097656 76.621094 22.097656 9.3125 0 18.515625-1.019531 27.527344-3.066406 31.421875-7.144531 57.558594-26.378906 73.601562-54.160156 2.761719-4.78125 1.121094-10.898438-3.660156-13.660156l-218.878906-126.371094c-2.300782-1.324219-5.027344-1.683594-7.589844-.996094zm62.382812 158.835938c-58.78125-33.9375-73.605468-93.105469-55.613281-135.214844l200.5625 115.792968c-27.285156 37.210938-83.261719 55.035157-144.949219 19.421876zm0 0"/></svg>