<svg height="512pt" viewBox="0 0 512.001 512" width="512pt" xmlns="http://www.w3.org/2000/svg"><path d="m437.019531 74.980469c-48.351562-48.351563-112.640625-74.980469-181.019531-74.980469-52.03125 0-102.125 15.535156-144.867188 44.921875-4.550781 3.128906-5.703124 9.355469-2.574218 13.90625 3.128906 4.554687 9.355468 5.707031 13.90625 2.578125 39.394531-27.089844 85.570312-41.40625 133.535156-41.40625 99.175781 0 184.246094 61.496094 219.113281 148.355469-.519531-.160157-1.042969-.304688-1.574219-.4375-15.859374-3.960938-32.386718-7.015625-49.121093-9.070313-16.84375-2.070312-33.640625-3.121094-49.917969-3.121094-16.28125 0-33.074219 1.050782-49.917969 3.121094-16.738281 2.054688-33.265625 5.109375-49.117187 9.070313-8.234375 2.054687-15.316406 7.289062-19.464844 14.375-4.152344-7.085938-11.234375-12.320313-19.460938-14.371094-15.859374-3.964844-32.382812-7.019531-49.121093-9.074219-16.84375-2.070312-33.640625-3.121094-49.917969-3.121094-16.28125 0-33.074219 1.050782-49.917969 3.121094-16.738281 2.054688-33.265625 5.109375-49.117187 9.070313-.558594.140625-1.113282.296875-1.660156.46875 6.425781-16.054688 14.644531-31.445313 24.59375-45.914063 3.128906-4.550781 1.976562-10.773437-2.574219-13.90625-4.550781-3.128906-10.777344-1.976562-13.90625 2.574219-29.386719 42.730469-44.917969 92.824219-44.917969 144.859375 0 68.378906 26.628906 132.667969 74.980469 181.019531 48.351562 48.351563 112.640625 74.980469 181.019531 74.980469 68.382812 0 132.667969-26.628906 181.019531-74.980469 48.351563-48.351562 74.980469-112.640625 74.980469-181.019531s-26.628906-132.667969-74.980469-181.019531zm-163.792969 117.464843c1.460938-2.527343 3.972657-4.347656 7.082032-5.125 15.070312-3.765624 30.785156-6.667968 46.710937-8.625 16.039063-1.96875 32.015625-2.96875 47.480469-2.96875 15.46875 0 31.441406 1 47.480469 2.96875 15.925781 1.957032 31.640625 4.859376 46.714843 8.628907 3.105469.773437 5.617188 2.59375 7.078126 5.121093.871093 1.503907 1.726562 3.917969.878906 6.875-1.550782 5.425782-8.039063 8.722657-14.167969 7.191407-14.503906-3.625-29.171875-6.363281-43.589844-8.132813-14.3125-1.761718-29.25-2.652344-44.394531-2.652344s-30.078125.890626-44.394531 2.652344c-14.421875 1.769532-29.089844 4.507813-43.589844 8.132813-6.125 1.527343-12.617187-1.765625-14.171875-7.191407-.84375-2.957031.011719-5.371093.882812-6.875zm131.992188 123.753907c-36.105469.621093-63.945312-2.699219-82.511719-20.945313-11.71875-11.519531-19.019531-28.484375-22.089843-51.460937-.027344-.351563-.074219-.691407-.136719-1.027344-.742188-5.839844-1.214844-12.0625-1.417969-18.671875 11.183594-2.53125 22.414062-4.507812 33.484375-5.867188 13.503906-1.660156 27.621094-2.5 41.953125-2.5s28.445312.839844 41.957031 2.5c11.113281 1.367188 22.390625 3.351563 33.621094 5.898438.117187 55.179688-3.105469 91.351562-44.859375 92.074219zm-149.222656-104.671875c4.832031 8.222656 13.5 13.769531 23.144531 15.066406.105469 2.726562.253906 5.398438.449219 8.019531h-47.179688c.195313-2.625.34375-5.304687.449219-8.039062 9.640625-1.292969 18.304687-6.828125 23.136719-15.046875zm-194.074219 12.597656c11.230469-2.546875 22.507813-4.53125 33.625-5.898438 13.507813-1.660156 27.621094-2.5 41.953125-2.5s28.449219.839844 41.957031 2.5c11.066407 1.359376 22.296875 3.335938 33.484375 5.867188-.207031 6.609375-.679687 12.832031-1.421875 18.671875-.0625.335937-.109375.675781-.136719 1.027344-3.066406 22.976562-10.371093 39.941406-22.089843 51.460937-18.566407 18.25-46.421875 21.5625-82.507813 20.945313-41.757812-.722657-44.980468-36.894531-44.863281-92.074219zm-18.609375-36.804688c15.066406-3.765624 30.78125-6.667968 46.707031-8.625 16.039063-1.96875 32.011719-2.96875 47.480469-2.96875s31.441406 1 47.480469 2.96875c15.925781 1.957032 31.640625 4.859376 46.714843 8.628907 3.101563.773437 5.617188 2.59375 7.078126 5.121093.871093 1.503907 1.726562 3.917969.882812 6.875-1.554688 5.425782-8.046875 8.71875-14.167969 7.191407-14.503906-3.625-29.171875-6.363281-43.59375-8.132813-14.316406-1.761718-29.25-2.652344-44.394531-2.652344s-30.082031.890626-44.394531 2.652344c-14.421875 1.769532-29.085938 4.507813-43.589844 8.132813-6.128906 1.527343-12.617187-1.765625-14.171875-7.191407-.847656-2.957031.011719-5.371093.882812-6.875 1.460938-2.527343 3.972657-4.347656 7.085938-5.125zm212.6875 304.679688c-130.128906 0-236-105.867188-236-236 0-13.148438 1.082031-26.160156 3.203125-38.933594 4.886719 5.089844 11.519531 8.480469 18.710937 9.496094-.050781 24.199219.195313 48.949219 7.246094 69.207031 9.167969 26.324219 28.4375 39.925781 57.277344 40.425781 2.671875.046876 5.347656.074219 8.023438.074219 32.960937 0 65.804687-4.101562 88.851562-26.753906 13.453125-13.222656 22.257812-31.355469 26.585938-54.90625h52.203124c4.332032 23.550781 13.132813 41.683594 26.585938 54.90625 23.050781 22.652344 55.890625 26.753906 88.851562 26.753906 2.675782 0 5.351563-.027343 8.023438-.074219 28.839844-.5 48.113281-14.101562 57.277344-40.425781 7.054687-20.261719 7.296875-45.015625 7.246094-69.222656 7.183593-1.015625 13.800781-4.390625 18.6875-9.472656 2.113281 12.667969 3.226562 25.667969 3.226562 38.925781 0 130.132812-105.867188 236-236 236zm0 0"/><path d="m338.929688 352.585938c-22.148438 22.152343-51.601563 34.351562-82.929688 34.351562s-60.78125-12.199219-82.929688-34.351562c-3.90625-3.90625-10.238281-3.90625-14.144531 0-3.902343 3.902343-3.902343 10.234374 0 14.140624 25.929688 25.929688 60.40625 40.210938 97.074219 40.210938 36.671875 0 71.144531-14.28125 97.074219-40.210938 3.90625-3.90625 3.90625-10.234374 0-14.140624s-10.238281-3.90625-14.144531 0zm0 0"/><path d="m82.042969 92.054688c2.722656 0 5.433593-1.105469 7.40625-3.277344 3.714843-4.085938 3.414062-10.410156-.671875-14.125-4.085938-3.714844-10.410156-3.414063-14.125.671875l-.003906.007812c-3.714844 4.085938-3.414063 10.40625.671874 14.121094 1.917969 1.742187 4.324219 2.601563 6.722657 2.601563zm0 0"/><path d="m165.996094 276c11.03125 0 20-8.972656 20-20s-8.96875-20-20-20c-11.027344 0-20 8.972656-20 20s8.972656 20 20 20zm0 0"/><path d="m346.003906 236c-11.027344 0-20 8.972656-20 20s8.972656 20 20 20 20-8.972656 20-20-8.972656-20-20-20zm0 0"/></svg>