<svg height="512pt" viewBox="0 0 512.002 512" width="512pt" xmlns="http://www.w3.org/2000/svg"><path d="m502 467.644531c-23.160156 0-42.003906-18.839843-42.003906-42v-195.644531c0-61.191406-23.988282-118.882812-67.550782-162.445312s-101.253906-67.554688-162.445312-67.554688c-44.785156 0-88.285156 13.042969-125.800781 37.714844-4.613281 3.035156-5.894531 9.238281-2.859375 13.851562 3.035156 4.617188 9.234375 5.894532 13.847656 2.859375 34.242188-22.519531 73.945312-34.425781 114.8125-34.425781 115.792969 0 209.996094 94.207031 209.996094 210v195.644531c0 22.210938 11.742187 41.730469 29.34375 52.683594-1.679688 1.179687-3.253906 2.359375-4.765625 3.492187-7.585938 5.6875-13.578125 10.179688-25.433594 10.179688-11.851563 0-17.84375-4.492188-25.429687-10.179688-8.421876-6.3125-18.90625-14.175781-37.425782-14.175781-18.519531 0-29.003906 7.863281-37.425781 14.175781-7.585937 5.6875-13.578125 10.179688-25.433594 10.179688-11.851562 0-17.84375-4.492188-25.429687-10.179688-8.421875-6.3125-18.90625-14.175781-37.425782-14.175781-18.519531 0-29.003906 7.863281-37.425781 14.175781-7.585937 5.6875-13.574219 10.179688-25.429687 10.179688-11.855469 0-17.847656-4.492188-25.429688-10.179688-8.425781-6.3125-18.910156-14.175781-37.429687-14.175781s-29 7.863281-37.425781 14.175781c-7.585938 5.6875-13.574219 10.179688-25.429688 10.179688-23.160156 0-42.003906-18.839844-42.003906-42v-220c0-40.867188 11.902344-80.558594 34.414062-114.789062 3.035156-4.613282 1.753906-10.816407-2.859375-13.851563-4.613281-3.03125-10.816406-1.753906-13.851562 2.859375-24.660157 37.503906-37.699219 80.996094-37.699219 125.78125v220c0 34.1875 27.8125 62 62 62 18.519531 0 29.003906-7.859375 37.429688-14.175781 7.582031-5.6875 13.574218-10.179688 25.429687-10.179688s17.84375 4.492188 25.429687 10.179688c8.425782 6.316406 18.90625 14.175781 37.425782 14.175781 18.519531 0 29.003906-7.859375 37.429687-14.175781 7.582031-5.6875 13.574219-10.179688 25.429688-10.179688 11.851562 0 17.84375 4.492188 25.429687 10.179688 8.421875 6.316406 18.90625 14.175781 37.425782 14.175781 18.519531 0 29.003906-7.859375 37.425781-14.175781 7.585937-5.6875 13.578125-10.179688 25.429687-10.179688 11.855469 0 17.847656 4.492188 25.433594 10.179688 8.421875 6.316406 18.90625 14.175781 37.425781 14.175781s29.003907-7.859375 37.425781-14.175781c7.585938-5.6875 13.578126-10.179688 25.433594-10.179688 5.519532 0 10-4.476562 10-10 0-5.523437-4.480468-10-10.003906-10zm0 0"/><path d="m370 230c0-33.085938-26.917969-60-60-60-33.085938 0-60 26.914062-60 60 0 33.082031 26.914062 60 60 60 33.082031 0 60-26.917969 60-60zm-100 0c0-22.054688 17.941406-40 40-40 22.054688 0 40 17.945312 40 40s-17.945312 40-40 40c-22.058594 0-40-17.945312-40-40zm0 0"/><path d="m330.003906 240c5.523438 0 10-4.476562 10-10s-4.476562-10-10-10h-.007812c-5.523438 0-9.996094 4.476562-9.996094 10s4.480469 10 10.003906 10zm0 0"/><path d="m150 170c-33.085938 0-60 26.914062-60 60 0 33.082031 26.914062 60 60 60 33.082031 0 59.996094-26.917969 59.996094-60 0-33.085938-26.914063-60-59.996094-60zm0 100c-22.058594 0-40-17.945312-40-40s17.941406-40 40-40c22.054688 0 39.996094 17.945312 39.996094 40s-17.941406 40-39.996094 40zm0 0"/><path d="m170.003906 220h-.007812c-5.523438 0-9.996094 4.476562-9.996094 10s4.480469 10 10.003906 10c5.519532 0 9.996094-4.476562 9.996094-10s-4.476562-10-9.996094-10zm0 0"/><path d="m230 354.933594c-7.175781 0-10.683594-3.007813-15.992188-7.5625-6.433593-5.511719-14.4375-12.375-29.007812-12.375s-22.578125 6.863281-29.007812 12.375c-5.3125 4.554687-8.820313 7.5625-15.992188 7.5625-5.523438 0-10 4.476562-10 10 0 5.523437 4.476562 10 10 10 14.570312 0 22.574219-6.863282 29.007812-12.375 5.3125-4.554688 8.820313-7.5625 15.992188-7.5625s10.679688 3.007812 15.992188 7.5625c6.429687 5.511718 14.4375 12.375 29.007812 12.375s22.578125-6.863282 29.007812-12.375c5.3125-4.554688 8.820313-7.5625 15.992188-7.5625s10.679688 3.007812 15.992188 7.5625c6.429687 5.511718 14.4375 12.375 29.007812 12.375 5.519531 0 10-4.476563 10-10 0-5.523438-4.480469-10-10-10-7.171875 0-10.683594-3.007813-15.992188-7.558594-6.429687-5.515625-14.4375-12.378906-29.007812-12.378906-14.574219 0-22.578125 6.863281-29.007812 12.378906-5.3125 4.550781-8.820313 7.558594-15.992188 7.558594zm0 0"/><path d="m74.617188 84.636719c2.398437 0 4.808593-.859375 6.726562-2.601563 4.085938-3.714844 4.386719-10.042968.671875-14.128906s-10.039063-4.386719-14.125-.671875l-.003906.003906c-4.085938 3.714844-4.386719 10.039063-.671875 14.125 1.972656 2.171875 4.683594 3.273438 7.402344 3.273438zm0 0"/></svg>