<svg height="512pt" viewBox="0 0 512 512" width="512pt" xmlns="http://www.w3.org/2000/svg"><path d="m437.019531 74.980469c-48.351562-48.351563-112.640625-74.980469-181.019531-74.980469-52.03125 0-102.125 15.535156-144.867188 44.921875-4.550781 3.128906-5.703124 9.355469-2.574218 13.90625s9.355468 5.703125 13.90625 2.574219c39.390625-27.085938 85.566406-41.402344 133.535156-41.402344 130.128906 0 236 105.871094 236 236s-105.871094 236-236 236-236-105.871094-236-236c0-47.972656 14.316406-94.144531 41.398438-133.527344 3.128906-4.550781 1.976562-10.777344-2.574219-13.90625-4.546875-3.128906-10.773438-1.976562-13.90625 2.570313-29.386719 42.734375-44.917969 92.828125-44.917969 144.863281 0 68.378906 26.628906 132.667969 74.980469 181.019531 48.351562 48.351563 112.640625 74.980469 181.019531 74.980469s132.667969-26.628906 181.019531-74.980469c48.351563-48.351562 74.980469-112.640625 74.980469-181.019531s-26.628906-132.667969-74.980469-181.019531zm0 0"/><path d="m82.050781 92.050781c2.414063 0 4.839844-.867187 6.757813-2.628906 4.070312-3.730469 4.347656-10.054687.613281-14.128906-3.726563-4.066407-10.054687-4.34375-14.125-.613281l-.007813.007812c-4.070312 3.730469-4.34375 10.054688-.609374 14.125 1.96875 2.148438 4.664062 3.238281 7.371093 3.238281zm0 0"/><path d="m310.53125 252.066406c3.085938-11.507812 13.558594-19.542968 25.472656-19.542968 11.910156 0 22.382813 8.035156 25.46875 19.542968 1.195313 4.464844 5.234375 7.414063 9.652344 7.414063.855469 0 1.726562-.113281 2.59375-.34375 5.335938-1.429688 8.5-6.914063 7.070312-12.246094-5.421874-20.234375-23.839843-34.367187-44.785156-34.367187-20.949218 0-39.367187 14.128906-44.789062 34.367187-1.429688 5.332031 1.734375 10.816406 7.070312 12.246094 5.339844 1.429687 10.820313-1.738281 12.246094-7.070313zm0 0"/><path d="m175.996094 212.519531c-20.945313 0-39.363282 14.132813-44.785156 34.371094-1.429688 5.332031 1.734374 10.816406 7.070312 12.246094 5.339844 1.429687 10.820312-1.738281 12.246094-7.070313 3.085937-11.507812 13.558594-19.542968 25.46875-19.542968 11.914062 0 22.386718 8.035156 25.472656 19.542968 1.195312 4.464844 5.234375 7.414063 9.652344 7.414063.855468 0 1.726562-.113281 2.59375-.34375 5.335937-1.429688 8.5-6.914063 7.070312-12.246094-5.421875-20.238281-23.839844-34.371094-44.789062-34.371094zm0 0"/><path d="m173.070312 332.582031c-3.90625-3.90625-10.238281-3.90625-14.144531 0s-3.90625 10.238281 0 14.144531c25.929688 25.929688 60.40625 40.207032 97.074219 40.207032 6.945312 0 13.839844-.527344 20.621094-1.558594l13.929687 24.117188c9.117188 15.796874 25.523438 24.546874 43.03125 24.546874 8.214844 0 16.675781-1.929687 24.738281-5.960937 11.363282-5.683594 19.707032-15.75 23.492188-28.351563 4.035156-13.445312 2.339844-28.109374-4.660156-40.234374l-17.4375-30.195313c-1.601563-2.78125-4.445313-4.621094-7.640625-4.949219-3.183594-.324218-6.351563.902344-8.484375 3.300782-22.234375 24.964843-54.160156 39.285156-87.59375 39.285156-31.324219 0-60.773438-12.199219-82.925782-34.351563zm142.714844 40.625 5.496094 9.511719c1.851562 3.210938 5.210938 5.003906 8.667969 5.003906 1.695312 0 3.414062-.433594 4.992187-1.34375 4.78125-2.757812 6.421875-8.875 3.660156-13.660156l-5.492187-9.507812c5.558594-3.773438 10.867187-7.957032 15.851563-12.542969l10.871093 18.824219c4.253907 7.371093 5.285157 16.292968 2.824219 24.480468-2.183594 7.265625-6.898438 13.027344-13.277344 16.214844-15.632812 7.816406-33.476562 3.21875-41.511718-10.695312l-10.871094-18.832032c6.445312-2.019531 12.722656-4.519531 18.789062-7.453125zm0 0"/></svg>