<svg height="512pt" viewBox="0 0 512 512.001" width="512pt" xmlns="http://www.w3.org/2000/svg"><path d="m437.019531 74.980469c-48.351562-48.351563-112.636719-74.980469-181.019531-74.980469-52.03125 0-102.125 15.535156-144.867188 44.925781-4.550781 3.128907-5.703124 9.351563-2.574218 13.902344 3.128906 4.554687 9.355468 5.703125 13.90625 2.574219 39.394531-27.085938 85.570312-41.402344 133.535156-41.402344 130.132812 0 236 105.871094 236 236 0 92.75-52.898438 175.109375-135.996094 213.832031v-108.746093c0-20.96875-12.265625-35.058594-30.515625-35.058594h-138.976562c-18.25 0-30.511719 14.089844-30.511719 35.058594 0 26.441406 10.59375 50.121093 29.835938 66.675781 3.875 3.335937 8.070312 6.328125 12.515624 9.003906.382813.265625.78125.507813 1.199219.71875 16.164063 9.425781 35.664063 14.515625 56.449219 14.515625 14.148438 0 27.691406-2.371094 40.003906-6.839844v36.839844c0 2.230469.25 4.402344.714844 6.492188-13.386719 2.324218-27.03125 3.507812-40.71875 3.507812-130.128906 0-236-105.867188-236-236 0-47.972656 14.316406-94.144531 41.398438-133.527344 3.132812-4.554687 1.980468-10.777344-2.570313-13.90625s-10.777344-1.980468-13.90625 2.570313c-29.386719 42.734375-44.921875 92.828125-44.921875 144.863281 0 68.378906 26.628906 132.667969 74.980469 181.019531 48.351562 48.355469 112.640625 74.980469 181.019531 74.980469 17.785156 0 35.507812-1.851562 52.765625-5.46875 4.882813 3.441406 10.824219 5.46875 17.238281 5.46875 12.839844 0 23.816406-8.109375 28.089844-19.476562 45.367188-18.820313 84.117188-50.074219 112.300781-90.644532 29.835938-42.949218 45.605469-93.394531 45.605469-145.878906 0-68.378906-26.628906-132.667969-74.980469-181.019531zm-261.019531 286.105469c0-5.625 1.363281-15.058594 10.511719-15.058594h138.976562c9.148438 0 10.515625 9.433594 10.515625 15.058594 0 21.027343-8.351562 38.851562-22.648437 51.375-9.074219-16.523438-30.480469-27.140626-57.355469-27.140626s-48.28125 10.617188-57.351562 27.140626c-14.300782-12.523438-22.648438-30.347657-22.648438-51.375zm39.550781 62.378906c4.910157-10.796875 20.65625-18.144532 40.449219-18.144532s35.542969 7.351563 40.449219 18.144532c-11.597657 5.496094-25.277344 8.535156-40.449219 8.535156-15.167969 0-28.851562-3.039062-40.449219-8.535156zm110.453125 68.535156c-2.71875 0-5.1875-1.09375-6.992187-2.859375-.097657-.113281-.203125-.214844-.304688-.320313-1.671875-1.789062-2.707031-4.183593-2.707031-6.820312v-46.6875c3.574219-2.300781 6.980469-4.808594 10.164062-7.550781 3.582032-3.082031 6.867188-6.414063 9.835938-9.964844v64.203125c.003906 5.515625-4.480469 10-9.996094 10zm0 0"/><path d="m82.046875 92.054688c2.71875 0 5.429687-1.105469 7.40625-3.277344 3.714844-4.085938 3.414063-10.410156-.675781-14.125-4.085938-3.714844-10.410156-3.414063-14.125.671875l-.003906.003906c-3.714844 4.085937-3.410157 10.410156.675781 14.125 1.914062 1.742187 4.320312 2.601563 6.722656 2.601563zm0 0"/><path d="m163.558594 257.449219c-1.78125 0-3.457032-.695313-4.714844-1.953125-3.902344-3.90625-10.234375-3.90625-14.140625 0s-3.90625 10.238281 0 14.140625c3.199219 3.203125 7.070313 5.484375 11.296875 6.726562v3.289063c0 5.523437 4.476562 10 10 10s10-4.476563 10-10v-5.269532c2.332031-1.234374 4.496094-2.824218 6.414062-4.742187 5.035157-5.039063 7.8125-11.734375 7.8125-18.855469 0-7.125-2.777343-13.820312-7.8125-18.859375l-18.6875-18.6875c-1.257812-1.257812-1.953124-2.933593-1.953124-4.710937 0-1.78125.695312-3.457032 1.953124-4.714844 1.257813-1.261719 2.933594-1.953125 4.714844-1.953125s3.453125.691406 4.710938 1.953125c3.90625 3.90625 10.238281 3.90625 14.144531 0 3.902344-3.90625 3.90625-10.238281 0-14.144531-3.203125-3.199219-7.074219-5.480469-11.296875-6.722657v-3.289062c0-5.523438-4.480469-10-10-10-5.523438 0-10 4.476562-10 10v5.269531c-2.335938 1.234375-4.496094 2.824219-6.417969 4.742188-5.035156 5.039062-7.808593 11.734375-7.808593 18.859375 0 7.121094 2.773437 13.816406 7.808593 18.851562l18.691407 18.691406c1.257812 1.257813 1.949218 2.933594 1.949218 4.710938 0 1.78125-.691406 3.457031-1.953125 4.714844-1.257812 1.257812-2.929687 1.953125-4.710937 1.953125zm0 0"/><path d="m343.5625 257.449219c-1.78125 0-3.453125-.695313-4.714844-1.953125-3.902344-3.90625-10.234375-3.90625-14.140625 0s-3.90625 10.238281 0 14.140625c3.199219 3.203125 7.074219 5.484375 11.296875 6.726562v3.289063c0 5.523437 4.476563 10 10 10 5.523438 0 10-4.476563 10-10v-5.269532c2.332032-1.234374 4.496094-2.824218 6.414063-4.742187 5.039062-5.039063 7.8125-11.734375 7.8125-18.855469 0-7.125-2.773438-13.820312-7.8125-18.859375l-18.6875-18.6875c-1.257813-1.257812-1.953125-2.933593-1.953125-4.710937 0-1.78125.695312-3.457032 1.953125-4.714844 1.261719-1.257812 2.933593-1.953125 4.714843-1.953125s3.457032.691406 4.714844 1.953125c3.90625 3.90625 10.238282 3.90625 14.140625 0 3.90625-3.90625 3.90625-10.238281 0-14.140625-3.199219-3.203125-7.070312-5.484375-11.296875-6.726563v-3.289062c0-5.523438-4.476562-10-10-10-5.523437 0-10 4.476562-10 10v5.269531c-2.332031 1.234375-4.496094 2.824219-6.414062 4.742188-5.039063 5.039062-7.8125 11.734375-7.8125 18.859375 0 7.121094 2.773437 13.816406 7.8125 18.855468l18.6875 18.6875c1.257812 1.257813 1.953125 2.933594 1.953125 4.714844s-.695313 3.453125-1.953125 4.710938c-1.257813 1.257812-2.933594 1.953125-4.714844 1.953125zm0 0"/></svg>