<svg height="512.001pt" viewBox="0 0 512.001 512.001" width="512.001pt" xmlns="http://www.w3.org/2000/svg"><path d="m437.019531 74.980469c-3.582031-3.582031-7.261719-7.03125-11.015625-10.371094v-20.804687c0-5.523438-4.476562-10-10-10-5.523437 0-10 4.476562-10 10v4.699218c-6.480468-4.707031-13.152344-9.09375-20-13.144531v-25.359375c0-5.523438-4.476562-10-10-10-5.523437 0-10 4.476562-10 10v14.699219c-33.929687-16.164063-71.308594-24.699219-110.003906-24.699219-52.03125 0-102.125 15.535156-144.867188 44.925781-4.550781 3.128907-5.703124 9.351563-2.574218 13.902344 3.128906 4.554687 9.355468 5.703125 13.902344 2.578125 39.398437-27.089844 85.574218-41.40625 133.539062-41.40625 39.699219 0 77.132812 9.867188 110 27.257812v78.738282c0 5.523437 4.476562 10 10 10s10-4.476563 10-10v-66.859375c6.929688 4.589843 13.609375 9.523437 20.003906 14.800781v18.253906c0 5.523438 4.476563 10 10 10 5.429688 0 9.835938-4.328125 9.984375-9.722656 40.851563 42.449219 66.011719 100.105469 66.011719 163.53125 0 130.132812-105.871094 236-236 236-130.132812 0-236-105.867188-236-236 0-47.96875 14.316406-94.144531 41.398438-133.527344 3.128906-4.550781 1.976562-10.777344-2.574219-13.90625-4.546875-3.128906-10.777344-1.976562-13.90625 2.574219-29.386719 42.730469-44.917969 92.824219-44.917969 144.859375 0 68.378906 26.628906 132.667969 74.980469 181.019531 48.351562 48.355469 112.640625 74.980469 181.019531 74.980469 68.382812 0 132.667969-26.625 181.019531-74.980469 48.351563-48.351562 74.980469-112.636719 74.980469-181.019531 0-68.378906-26.628906-132.667969-74.980469-181.019531zm0 0"/><path d="m82.042969 92.054688c2.722656 0 5.433593-1.105469 7.40625-3.277344 3.714843-4.085938 3.414062-10.410156-.671875-14.125-4.085938-3.714844-10.410156-3.414063-14.125.671875l-.003906.003906c-3.714844 4.085937-3.414063 10.410156.671874 14.125 1.917969 1.742187 4.324219 2.601563 6.722657 2.601563zm0 0"/><path d="m185.835938 329.542969c-19.242188 16.558593-29.839844 40.238281-29.839844 66.675781 0 20.972656 12.265625 35.0625 30.515625 35.0625h138.976562c18.25 0 30.515625-14.089844 30.515625-35.0625 0-26.4375-10.597656-50.117188-29.839844-66.675781-18.164062-15.625-43.082031-24.234375-70.164062-24.234375s-52 8.609375-70.164062 24.234375zm28.195312 81.476562c-.042969-.125-.097656-.382812-.097656-.777343 0-16.832032 21.164062-25.640626 42.066406-25.640626s42.0625 8.808594 42.0625 25.640626c0 .394531-.054688.648437-.09375.777343-.179688.078125-.707031.261719-1.773438.261719h-80.394531c-1.066406 0-1.589843-.183594-1.769531-.261719zm121.972656-14.800781c0 5.625-1.367187 15.0625-10.515625 15.0625h-7.472656c.015625-.347656.046875-.6875.046875-1.039062 0-13.828126-7.019531-26.042969-19.765625-34.394532-11.070313-7.253906-26.089844-11.246094-42.296875-11.246094s-31.230469 3.992188-42.296875 11.246094c-12.746094 8.351563-19.769531 20.566406-19.769531 34.394532 0 .351562.035156.691406.046875 1.039062h-7.46875c-9.148438 0-10.515625-9.4375-10.515625-15.0625 0-41.75 32.898437-70.910156 80.003906-70.910156 47.101562 0 80.003906 29.160156 80.003906 70.910156zm0 0"/><path d="m276 236c0 33.082031 26.917969 60 60 60 33.085938 0 60-26.917969 60-60 0-33.085938-26.914062-60-60-60-33.082031 0-60 26.914062-60 60zm60-40c22.058594 0 40 17.945312 40 40s-17.941406 40-40 40c-22.054688 0-40-17.945312-40-40s17.945312-40 40-40zm0 0"/><path d="m336.003906 246c5.523438 0 10-4.476562 10-10s-4.476562-10-10-10h-.007812c-5.523438 0-9.996094 4.476562-9.996094 10s4.480469 10 10.003906 10zm0 0"/><path d="m176 176c-33.085938 0-60 26.914062-60 60 0 33.082031 26.914062 60 60 60 33.082031 0 60-26.917969 60-60 0-33.085938-26.917969-60-60-60zm0 100c-22.054688 0-40-17.945312-40-40s17.945312-40 40-40 40 17.945312 40 40-17.945312 40-40 40zm0 0"/><path d="m176.003906 226h-.007812c-5.523438 0-9.996094 4.476562-9.996094 10s4.480469 10 10.003906 10c5.523438 0 10-4.476562 10-10s-4.476562-10-10-10zm0 0"/><path d="m346 125.996094v-48.386719c0-5.523437-4.476562-10-10-10s-10 4.476563-10 10v48.386719c0 5.523437 4.476562 10 10 10s10-4.476563 10-10zm0 0"/></svg>