<svg height="512pt" viewBox="0 0 512 512" width="512pt" xmlns="http://www.w3.org/2000/svg"><path d="m512 256c0-68.378906-26.628906-132.667969-74.980469-181.019531-48.351562-48.351563-112.640625-74.980469-181.019531-74.980469-52.03125 0-102.125 15.535156-144.867188 44.925781-4.550781 3.128907-5.703124 9.351563-2.574218 13.902344 3.128906 4.554687 9.355468 5.703125 13.90625 2.574219 39.394531-27.085938 85.570312-41.402344 133.535156-41.402344 130.132812 0 236 105.871094 236 236 0 19.453125-2.367188 38.695312-7.035156 57.386719-11.285156-6.53125-25.296875-10.40625-40.464844-10.40625-37.222656 0-67.503906 23.324219-67.503906 52 0 26.875 26.605468 49.054687 60.589844 51.726562-44.65625 53.75-111.101563 85.292969-181.585938 85.292969-70.480469 0-136.925781-31.542969-181.585938-85.292969 33.984376-2.671875 60.589844-24.851562 60.589844-51.726562 0-28.675781-30.28125-52-67.5-52-15.171875 0-29.183594 3.875-40.46875 10.40625-4.667968-18.679688-7.035156-37.925781-7.035156-57.386719 0-47.972656 14.316406-94.144531 41.398438-133.527344 3.128906-4.554687 1.976562-10.777344-2.570313-13.90625-4.550781-3.128906-10.777344-1.980468-13.90625 2.570313-29.390625 42.734375-44.921875 92.828125-44.921875 144.863281 0 24.363281 3.421875 48.414062 10.160156 71.585938-6.429687 7.960937-10.160156 17.347656-10.160156 27.394531 0 23.332031 20.058594 43.125 47.589844 49.6875 48.074218 67.285156 125.679687 107.332031 208.410156 107.332031s160.339844-40.046875 208.410156-107.332031c27.53125-6.5625 47.589844-26.355469 47.589844-49.6875 0-10.046875-3.730469-19.433594-10.160156-27.394531 6.738281-23.183594 10.160156-47.238282 10.160156-71.585938zm-492 98.980469c0-17.347657 21.753906-32 47.5-32 25.75 0 47.503906 14.652343 47.503906 32 0 17.34375-21.753906 32-47.503906 32-25.746094 0-47.5-14.65625-47.5-32zm424.5 31.996093c-25.75 0-47.503906-14.652343-47.503906-32 0-17.34375 21.753906-32 47.503906-32s47.5 14.65625 47.5 32c0 17.347657-21.75 32-47.5 32zm0 0"/><path d="m82.046875 92.054688c2.5625 0 5.121094-.980469 7.074219-2.933594 3.90625-3.902344 3.90625-10.234375 0-14.140625-3.902344-3.90625-10.234375-3.90625-14.140625 0l-.003907.003906c-3.90625 3.90625-3.902343 10.234375 0 14.140625 1.953126 1.953125 4.511719 2.929688 7.070313 2.929688zm0 0"/><path d="m298.285156 259.136719c5.339844 1.429687 10.816406-1.734375 12.25-7.070313 3.082032-11.507812 13.554688-19.542968 25.46875-19.542968 11.910156 0 22.386719 8.035156 25.46875 19.542968 1.199219 4.46875 5.238282 7.414063 9.652344 7.414063.855469 0 1.730469-.113281 2.597656-.34375 5.332032-1.429688 8.5-6.914063 7.070313-12.25-5.425781-20.234375-23.839844-34.363281-44.789063-34.363281-20.949218 0-39.367187 14.128906-44.789062 34.363281-1.429688 5.335937 1.738281 10.820312 7.070312 12.25zm0 0"/><path d="m175.996094 212.523438c-20.945313 0-39.363282 14.128906-44.785156 34.363281-1.429688 5.335937 1.734374 10.820312 7.070312 12.25 5.332031 1.429687 10.816406-1.734375 12.246094-7.070313 3.085937-11.507812 13.558594-19.542968 25.46875-19.542968 11.914062 0 22.386718 8.035156 25.472656 19.542968 1.195312 4.46875 5.234375 7.414063 9.652344 7.414063.855468 0 1.726562-.113281 2.59375-.34375 5.335937-1.429688 8.5-6.914063 7.070312-12.25-5.421875-20.230469-23.839844-34.363281-44.789062-34.363281zm0 0"/><path d="m266 336.523438c0-5.523438-4.476562-10-10-10s-10 4.476562-10 10c0 8.269531-6.726562 15-15 15-8.269531 0-15-6.730469-15-15 0-1.3125.171875-2.617188.511719-3.882813 1.429687-5.335937-1.734375-10.816406-7.070313-12.246094-5.335937-1.429687-10.820312 1.734375-12.246094 7.070313-.792968 2.953125-1.195312 6-1.195312 9.058594 0 19.296874 15.703125 35 35 35 9.785156 0 18.644531-4.035157 25-10.527344 6.359375 6.492187 15.214844 10.527344 25 10.527344 19.300781 0 35-15.703126 35-35 0-3.058594-.398438-6.105469-1.191406-9.058594-1.429688-5.335938-6.914063-8.5-12.246094-7.070313-5.335938 1.429688-8.5 6.910157-7.070312 12.246094.339843 1.265625.511718 2.570313.511718 3.882813 0 8.269531-6.730468 15-15 15-8.273437 0-15.003906-6.730469-15.003906-15zm0 0"/></svg>