<svg height="512pt" viewBox="0 0 512 512" width="512pt" xmlns="http://www.w3.org/2000/svg"><path d="m437.019531 74.980469c-48.351562-48.351563-112.640625-74.980469-181.019531-74.980469-52.03125 0-102.125 15.535156-144.867188 44.921875-4.550781 3.132813-5.703124 9.355469-2.574218 13.90625 3.128906 4.554687 9.355468 5.703125 13.90625 2.578125 39.394531-27.089844 85.570312-41.40625 133.535156-41.40625 130.128906 0 236 105.871094 236 236s-105.871094 236-236 236-236-105.871094-236-236c0-47.972656 14.316406-94.144531 41.398438-133.53125 3.128906-4.550781 1.976562-10.773438-2.574219-13.902344-4.546875-3.128906-10.773438-1.980468-13.90625 2.570313-29.386719 42.734375-44.917969 92.828125-44.917969 144.863281 0 68.378906 26.628906 132.667969 74.980469 181.019531 48.351562 48.351563 112.640625 74.980469 181.019531 74.980469s132.667969-26.628906 181.019531-74.980469c48.351563-48.351562 74.980469-112.640625 74.980469-181.019531s-26.628906-132.667969-74.980469-181.019531zm0 0"/><path d="m195.996094 256c0-11.027344-8.972656-20-20-20s-20 8.972656-20 20 8.972656 20 20 20 20-8.972656 20-20zm0 0"/><path d="m356.003906 256c0-11.027344-8.972656-20-20-20s-20 8.972656-20 20 8.972656 20 20 20 20-8.972656 20-20zm0 0"/><path d="m82.050781 92.050781c2.414063 0 4.839844-.867187 6.757813-2.628906 4.070312-3.730469 4.347656-10.054687.613281-14.128906-3.726563-4.066407-10.054687-4.34375-14.125-.613281l-.007813.007812c-4.070312 3.730469-4.34375 10.054688-.609374 14.125 1.96875 2.148438 4.664062 3.238281 7.371093 3.238281zm0 0"/><path d="m126 366.9375c0 33.082031 26.917969 60 60 60h140c33.085938 0 60-26.917969 60-60 0-33.085938-26.914062-60-60-60h-140c-33.082031 0-60 26.914062-60 60zm21.265625 9.996094h39.933594v30h-1.199219c-18.605469 0-34.28125-12.765625-38.734375-30zm159.933594-19.996094h-40v-30h40zm0 49.996094h-40v-30h40zm-60-49.996094h-40v-30h40zm0 19.996094v30h-40v-30zm80 29.972656v-29.972656h37.535156c-4.355469 16.863281-19.460937 29.4375-37.535156 29.972656zm37.535156-49.96875h-37.535156v-29.972656c18.074219.535156 33.179687 13.109375 37.535156 29.972656zm-178.734375-30h1.199219v30h-39.933594c4.453125-17.234375 20.128906-30 38.734375-30zm0 0"/></svg>