<svg height="512pt" viewBox="0 0 512 512" width="512pt" xmlns="http://www.w3.org/2000/svg"><path d="m471.863281 118.371094c.078125-1.269532.136719-2.546875.136719-3.839844 0-34.152344-33.589844-70.609375-49.730469-88.128906-1.039062-1.128906-2.007812-2.179688-2.882812-3.140625-1.894531-2.078125-4.578125-3.261719-7.390625-3.261719s-5.492188 1.183594-7.386719 3.261719c-.878906.960937-1.847656 2.011719-2.890625 3.144531-3.085938 3.351562-6.816406 7.402344-10.824219 11.992188-40.460937-25.148438-86.90625-38.398438-134.894531-38.398438-52.03125 0-102.125 15.535156-144.867188 44.921875-4.550781 3.132813-5.703124 9.355469-2.574218 13.90625 1.9375 2.820313 5.066406 4.335937 8.25 4.335937 1.953125 0 3.925781-.570312 5.65625-1.761718 39.394531-27.085938 85.570312-41.402344 133.535156-41.402344 43.363281 0 85.347656 11.738281 122.109375 34.023438-13.484375 17.777343-26.109375 39.570312-26.109375 60.507812 0 33.085938 26.914062 60 60 60 22.203125 0 41.613281-12.132812 51.988281-30.105469 18.378907 34.171875 28.011719 72.347657 28.011719 111.574219 0 130.132812-105.871094 236-236 236-130.132812 0-236-105.871094-236-236 0-47.972656 14.316406-94.144531 41.398438-133.53125 3.128906-4.550781 1.976562-10.773438-2.574219-13.902344-4.546875-3.128906-10.773438-1.980468-13.90625 2.570313-29.386719 42.734375-44.917969 92.828125-44.917969 144.863281 0 68.378906 26.628906 132.667969 74.980469 181.019531 48.351562 48.351563 112.640625 74.980469 181.019531 74.980469s132.667969-26.628906 181.019531-74.980469c48.351563-48.351562 74.980469-112.640625 74.980469-181.019531 0-49.015625-13.871094-96.519531-40.136719-137.628906zm-59.863281 36.160156c-22.058594 0-40-17.941406-40-40 0-23.871094 24.640625-52.863281 40-69.742188 15.355469 16.882813 40 45.871094 40 69.742188 0 22.058594-17.945312 40-40 40zm0 0"/><path d="m82.042969 92.050781c2.722656 0 5.433593-1.101562 7.40625-3.273437 3.714843-4.085938 3.414062-10.410156-.671875-14.125-4.085938-3.714844-10.410156-3.414063-14.125.671875l-.003906.003906c-3.714844 4.085937-3.414063 10.410156.671874 14.125 1.917969 1.742187 4.324219 2.597656 6.722657 2.597656zm0 0"/><path d="m371.132812 266c5.519532 0 10-4.476562 10-10s-4.480468-10-10-10h-70.257812c-5.523438 0-10 4.476562-10 10s4.476562 10 10 10zm0 0"/><path d="m211.125 246h-70.253906c-5.523438 0-10 4.476562-10 10s4.476562 10 10 10h70.253906c5.523438 0 10-4.476562 10-10s-4.476562-10-10-10zm0 0"/><path d="m155.996094 378.296875c0 5.523437 4.480468 10 10 10h180.007812c5.519532 0 10-4.476563 10-10s-4.480468-10-10-10h-180.007812c-5.519532 0-10 4.476563-10 10zm0 0"/></svg>