<svg height="512pt" viewBox="0 0 512 512" width="512pt" xmlns="http://www.w3.org/2000/svg"><path d="m437.019531 74.980469c-1.652343-1.652344-3.332031-3.277344-5.019531-4.878907v-26.296874c0-5.523438-4.480469-10-10-10-5.523438 0-10 4.476562-10 10v9.179687c-6.472656-4.992187-13.144531-9.65625-20.003906-13.972656v-29.011719c0-5.523438-4.476563-10-10-10-5.523438 0-10 4.476562-10 10v17.65625c-35.496094-18.078125-75.007813-27.65625-115.996094-27.65625-52.03125 0-102.125 15.535156-144.867188 44.925781-4.550781 3.128907-5.703124 9.351563-2.574218 13.902344 3.128906 4.554687 9.355468 5.703125 13.90625 2.574219 39.394531-27.085938 85.570312-41.402344 133.535156-41.402344 42.136719 0 81.71875 11.109375 115.996094 30.539062v60.367188c-4.28125-.914062-8.722656-1.40625-13.273438-1.40625-2.269531 0-4.515625.125-6.726562.359375v-32.25c0-5.523437-4.476563-10-10-10-5.523438 0-10 4.476563-10 10v37.808594c-21.691406 10.113281-36.773438 32.113281-36.773438 57.582031 0 35.011719 28.488282 63.5 63.5 63.5 35.015625 0 63.5-28.488281 63.5-63.5 0-22.820312-12.105468-42.859375-30.226562-54.054688v-55.714843c6.957031 4.921875 13.628906 10.214843 20 15.84375v13.117187c0 5.523438 4.476562 10 10 10 3.640625 0 6.8125-1.949218 8.5625-4.851562 38.15625 41.9375 61.441406 97.628906 61.441406 158.660156 0 101.027344-64.199219 190.808594-159.757812 223.410156-2.402344.820313-4.402344 2.523438-5.597657 4.761719-2.492187 4.683594-7.921875 7.828125-13.511719 7.828125h-114.261718c-5.589844 0-11.023438-3.144531-13.515625-7.828125-1.195313-2.238281-3.195313-3.941406-5.597657-4.761719-17.734374-6.050781-34.386718-14.078125-49.753906-23.773437v-22.023438c0-5.523437-4.476562-10-10-10-5.523437 0-10 4.476563-10 10v7.890625c-7.015625-5.527344-13.691406-11.429687-20-17.675781v-57.824219c0-5.523437-4.476562-10-10-10-5.523437 0-10 4.476563-10 10v35.316406c-31.660156-40.554687-50.003906-91.328124-50.003906-145.320312 0-47.972656 14.316406-94.144531 41.398438-133.527344 3.128906-4.554687 1.980468-10.777344-2.570313-13.90625s-10.777344-1.980468-13.90625 2.570313c-29.390625 42.734375-44.921875 92.824219-44.921875 144.863281 0 67.015625 26.058594 129.46875 70.003906 175.964844v50.035156c0 5.523438 4.476563 10 10 10 5.523438 0 10-4.476562 10-10v-31.035156c6.386719 5.445312 13.0625 10.585937 20 15.402344v15.632812c0 5.523438 4.476563 10 10 10 5.523438 0 10-4.476562 10-10v-3.074219c12.613282 7.125 25.941406 13.246094 39.914063 18.230469 6.476562 9.128906 17.421875 14.84375 28.953125 14.84375h114.261718c11.527344 0 22.472657-5.714844 28.949219-14.84375 101.785157-36.3125 169.917969-132.769531 169.917969-241.15625 0-68.378906-26.628906-132.667969-74.980469-181.019531zm-78.296875 141.519531c-23.984375 0-43.5-19.515625-43.5-43.5s19.515625-43.5 43.5-43.5c23.988282 0 43.5 19.515625 43.5 43.5s-19.511718 43.5-43.5 43.5zm0 0"/><path d="m202.351562 450.242188c4.835938 5.226562 11.6875 8.222656 18.800782 8.222656h69.695312c7.113282 0 13.964844-2.996094 18.800782-8.222656 4.546874-4.914063 6.773437-11.183594 6.269531-17.652344l-7.742188-99.695313c-2.277343-29.320312-24.710937-51.429687-52.175781-51.429687s-49.894531 22.109375-52.171875 51.429687l-7.746094 99.695313c-.503906 6.472656 1.722657 12.742187 6.269531 17.652344zm92.617188-13.585938c-1.03125 1.117188-2.609375 1.808594-4.121094 1.808594h-69.695312c-1.511719 0-3.089844-.691406-4.121094-1.808594-.738281-.796875-1.078125-1.644531-1.007812-2.515625l.480468-6.195313c5.808594-9.867187 21.039063-16.160156 39.496094-16.160156s33.6875 6.292969 39.496094 16.160156l.480468 6.191407c.070313.878906-.269531 1.722656-1.007812 2.519531zm-71.203125-102.214844c1.460937-18.800781 15.316406-32.976562 32.234375-32.976562s30.773438 14.175781 32.234375 32.976562l5.105469 65.703125c-10.277344-5.367187-23.121094-8.359375-37.339844-8.359375-14.214844 0-27.0625 2.992188-37.335938 8.359375zm0 0"/><path d="m82.046875 92.054688c2.5625 0 5.121094-.980469 7.074219-2.933594 3.90625-3.902344 3.90625-10.234375 0-14.140625-3.902344-3.90625-10.234375-3.90625-14.140625 0l-.003907.003906c-3.90625 3.90625-3.90625 10.234375 0 14.140625 1.953126 1.953125 4.511719 2.929688 7.070313 2.929688zm0 0"/><path d="m153.277344 109.5c-35.015625 0-63.5 28.484375-63.5 63.5 0 35.011719 28.484375 63.5 63.5 63.5 35.011718 0 63.5-28.488281 63.5-63.5 0-35.015625-28.484375-63.5-63.5-63.5zm0 107c-23.988282 0-43.5-19.515625-43.5-43.5s19.511718-43.5 43.5-43.5c23.984375 0 43.5 19.515625 43.5 43.5s-19.515625 43.5-43.5 43.5zm0 0"/></svg>