<svg height="512pt" viewBox="0 0 512.001 512" width="512pt" xmlns="http://www.w3.org/2000/svg"><path d="m437.019531 74.980469c-48.351562-48.351563-112.640625-74.980469-181.019531-74.980469-52.03125 0-102.125 15.535156-144.867188 44.921875-4.550781 3.128906-5.703124 9.355469-2.574218 13.90625 3.128906 4.554687 9.355468 5.703125 13.90625 2.578125 39.394531-27.089844 85.570312-41.40625 133.535156-41.40625 130.128906 0 236 105.871094 236 236s-105.871094 236-236 236-236-105.867188-236-236c0-47.972656 14.316406-94.144531 41.398438-133.527344 3.128906-4.550781 1.976562-10.777344-2.574219-13.90625-4.546875-3.128906-10.773438-1.976562-13.90625 2.570313-29.386719 42.734375-44.917969 92.828125-44.917969 144.863281 0 68.378906 26.628906 132.667969 74.980469 181.019531 48.351562 48.351563 112.640625 74.980469 181.019531 74.980469 68.382812 0 132.667969-26.628906 181.019531-74.980469 48.351563-48.351562 74.980469-112.640625 74.980469-181.019531s-26.628906-132.667969-74.980469-181.019531zm0 0"/><path d="m82.042969 92.054688c2.722656 0 5.433593-1.105469 7.40625-3.277344 3.714843-4.085938 3.414062-10.410156-.671875-14.125-4.085938-3.714844-10.410156-3.414063-14.125.671875l-.003906.007812c-3.714844 4.085938-3.414063 10.40625.671874 14.121094 1.917969 1.742187 4.324219 2.601563 6.722657 2.601563zm0 0"/><path d="m310.535156 172.0625c3.082032-11.507812 13.554688-19.542969 25.46875-19.542969 11.910156 0 22.382813 8.039063 25.46875 19.542969 1.195313 4.46875 5.238282 7.414062 9.652344 7.414062.855469 0 1.726562-.109374 2.59375-.34375 5.335938-1.425781 8.5-6.910156 7.074219-12.246093-5.421875-20.234375-23.839844-34.367188-44.789063-34.367188-20.949218 0-39.367187 14.132813-44.789062 34.367188-1.429688 5.335937 1.738281 10.816406 7.070312 12.246093 5.335938 1.429688 10.816406-1.734374 12.25-7.070312zm0 0"/><path d="m150.527344 172.0625c3.082031-11.507812 13.558594-19.542969 25.46875-19.542969 11.914062 0 22.386718 8.039063 25.46875 19.542969 1.199218 4.46875 5.238281 7.414062 9.65625 7.414062.855468 0 1.726562-.109374 2.59375-.34375 5.332031-1.425781 8.5-6.910156 7.070312-12.246093-5.421875-20.234375-23.839844-34.367188-44.789062-34.367188-20.949219 0-39.363282 14.132813-44.785156 34.367188-1.429688 5.335937 1.734374 10.816406 7.070312 12.246093 5.332031 1.429688 10.816406-1.734374 12.246094-7.070312zm0 0"/><path d="m119.628906 277.757812c0 29.660157 13.320313 59.410157 36.542969 81.625 25.398437 24.292969 60.851563 37.667969 99.828125 37.667969 40.09375 0 74.574219-12.304687 99.710938-35.589843 23.640624-21.894532 36.660156-51.621094 36.660156-83.703126 0-5.523437-4.476563-10-10-10h-252.742188c-5.523437 0-10 4.476563-10 10zm252.195313 10c-5.027344 45.867188-44.59375 89.296876-115.824219 89.296876-67.871094 0-110.292969-43.832032-115.765625-89.296876zm0 0"/></svg>