<svg height="512pt" viewBox="0 0 512 512" width="512pt" xmlns="http://www.w3.org/2000/svg"><path d="m437.019531 74.980469c-48.351562-48.351563-112.640625-74.980469-181.019531-74.980469-52.03125 0-102.125 15.535156-144.867188 44.921875-4.550781 3.128906-5.703124 9.355469-2.574218 13.90625s9.355468 5.703125 13.90625 2.574219c39.394531-27.085938 85.570312-41.402344 133.535156-41.402344 130.132812 0 236 105.871094 236 236s-105.867188 236-236 236c-130.128906 0-236-105.867188-236-236 0-47.972656 14.316406-94.144531 41.398438-133.527344 3.128906-4.554687 1.976562-10.777344-2.570313-13.90625-4.550781-3.128906-10.777344-1.980468-13.90625 2.570313-29.390625 42.734375-44.921875 92.828125-44.921875 144.863281 0 68.378906 26.628906 132.667969 74.980469 181.019531 48.351562 48.351563 112.640625 74.980469 181.019531 74.980469s132.667969-26.628906 181.019531-74.980469c48.351563-48.351562 74.980469-112.640625 74.980469-181.019531s-26.628906-132.667969-74.980469-181.019531zm0 0"/><path d="m158.925781 369.863281c-3.902343 3.90625-3.902343 10.238281 0 14.144531 3.90625 3.90625 10.238281 3.90625 14.144531 0 22.148438-22.152343 51.601563-34.351562 82.929688-34.351562s60.78125 12.199219 82.929688 34.351562c1.953124 1.953126 4.511718 2.929688 7.074218 2.929688 2.558594 0 5.117188-.976562 7.070313-2.929688 3.902343-3.90625 3.902343-10.238281 0-14.144531-25.929688-25.929687-60.402344-40.207031-97.074219-40.207031-36.667969 0-71.144531 14.277344-97.074219 40.207031zm0 0"/><path d="m176 276c11.027344 0 20-8.972656 20-20s-8.972656-20-20-20c-11.03125 0-20 8.972656-20 20s8.96875 20 20 20zm0 0"/><path d="m316.003906 256c0 11.027344 8.96875 20 20 20 11.027344 0 20-8.972656 20-20s-8.972656-20-20-20c-11.03125 0-20 8.972656-20 20zm0 0"/><path d="m208.773438 203.9375c-10.5625 0-20.980469-2.792969-30.128907-8.074219-9.148437-5.28125-16.773437-12.90625-22.054687-22.054687-2.761719-4.78125-8.878906-6.421875-13.660156-3.660156-4.78125 2.761718-6.421876 8.878906-3.660157 13.660156 7.035157 12.183594 17.191407 22.34375 29.375 29.375 12.183594 7.035156 26.058594 10.753906 40.128907 10.753906 5.523437 0 10-4.476562 10-10s-4.476563-10-10-10zm0 0"/><path d="m371.757812 184.558594c2.761719-4.78125 1.121094-10.898438-3.660156-13.660156-4.78125-2.761719-10.898437-1.125-13.660156 3.660156-5.28125 9.148437-12.910156 16.773437-22.054688 22.054687-9.148437 5.28125-19.566406 8.074219-30.128906 8.074219-5.523437 0-10 4.476562-10 10s4.476563 10 10 10c14.066406 0 27.941406-3.71875 40.128906-10.753906 12.179688-7.03125 22.339844-17.191406 29.375-29.375zm0 0"/><path d="m82.046875 92.054688c2.5625 0 5.121094-.980469 7.074219-2.933594 3.90625-3.902344 3.90625-10.234375 0-14.140625-3.902344-3.90625-10.234375-3.90625-14.140625 0l-.003907.003906c-3.90625 3.90625-3.902343 10.234375 0 14.140625 1.953126 1.953125 4.511719 2.929688 7.070313 2.929688zm0 0"/></svg>