<svg height="512pt" viewBox="0 0 512 512" width="512pt" xmlns="http://www.w3.org/2000/svg"><path d="m437.019531 74.980469c-48.351562-48.351563-112.640625-74.980469-181.019531-74.980469-52.03125 0-102.125 15.535156-144.867188 44.921875-4.550781 3.128906-5.703124 9.355469-2.574218 13.90625s9.355468 5.703125 13.90625 2.574219c39.390625-27.085938 85.566406-41.402344 133.535156-41.402344 130.128906 0 236 105.871094 236 236s-105.871094 236-236 236-236-105.871094-236-236c0-47.972656 14.316406-94.144531 41.398438-133.527344 3.128906-4.550781 1.976562-10.777344-2.574219-13.90625-4.546875-3.128906-10.773438-1.976562-13.90625 2.570313-29.386719 42.734375-44.917969 92.828125-44.917969 144.863281 0 68.378906 26.628906 132.667969 74.980469 181.019531 48.351562 48.351563 112.640625 74.980469 181.019531 74.980469s132.667969-26.628906 181.019531-74.980469c48.351563-48.351562 74.980469-112.640625 74.980469-181.019531s-26.628906-132.667969-74.980469-181.019531zm0 0"/><path d="m82.050781 92.050781c2.414063 0 4.839844-.867187 6.757813-2.628906 4.070312-3.730469 4.347656-10.054687.613281-14.128906-3.726563-4.066407-10.054687-4.34375-14.125-.613281l-.007813.007812c-4.070312 3.730469-4.34375 10.054688-.609374 14.125 1.96875 2.148438 4.664062 3.238281 7.371093 3.238281zm0 0"/><path d="m213.734375 241.796875c-13.589844-3.644531-27.953125-3.644531-41.542969 0-13.589844 3.640625-26.03125 10.820313-35.980468 20.769531-3.902344 3.90625-3.902344 10.238282 0 14.144532 1.953124 1.953124 4.511718 2.929687 7.074218 2.929687 2.558594 0 5.117188-.976563 7.070313-2.929687 7.46875-7.46875 16.808593-12.863282 27.011719-15.597657 10.203124-2.730469 20.988281-2.730469 31.191406 0 5.335937 1.433594 10.816406-1.734375 12.246094-7.070312 1.429687-5.335938-1.734376-10.820313-7.070313-12.246094zm0 0"/><path d="m303.441406 261.113281c10.203125-2.734375 20.988282-2.734375 31.191406 0 10.199219 2.734375 19.542969 8.125 27.011719 15.59375 1.953125 1.953125 4.511719 2.929688 7.070313 2.929688s5.121094-.976563 7.070312-2.929688c3.90625-3.902343 3.90625-10.234375 0-14.140625-9.949218-9.949218-22.390625-17.128906-35.976562-20.769531-13.589844-3.644531-27.957032-3.644531-41.542969 0-5.335937 1.429687-8.5 6.914063-7.070313 12.246094 1.429688 5.335937 6.914063 8.5 12.246094 7.070312zm0 0"/><path d="m148.285156 344.648438c-4.785156-2.765626-10.898437-1.125-13.660156 3.65625-2.761719 4.785156-1.125 10.902343 3.660156 13.660156 35.738282 20.636718 76.445313 31.542968 117.714844 31.542968 21.253906 0 42.359375-2.894531 62.714844-8.519531v31.835938c0 16.542969 13.457031 30 30 30 16.542968 0 30-13.457031 30-30v-63.519531c0-3.570313-1.90625-6.871094-5-8.660157-3.09375-1.785156-6.902344-1.785156-10 0-32.703125 18.882813-69.949219 28.863281-107.714844 28.863281s-75.011719-9.980468-107.714844-28.859374zm190.429688 33.84375c6.789062-2.546876 13.460937-5.40625 20-8.574219v46.90625c0 5.515625-4.484375 10-10 10-5.511719 0-10-4.484375-10-10zm0 0"/></svg>