<svg height="512pt" viewBox="0 0 512 512" width="512pt" xmlns="http://www.w3.org/2000/svg"><path d="m437.019531 74.980469c-48.351562-48.351563-112.640625-74.980469-181.019531-74.980469-52.03125 0-102.125 15.535156-144.867188 44.921875-4.550781 3.128906-5.703124 9.355469-2.574218 13.90625s9.355468 5.703125 13.90625 2.574219c39.390625-27.085938 85.566406-41.402344 133.535156-41.402344 130.128906 0 236 105.871094 236 236s-105.871094 236-236 236-236-105.871094-236-236c0-47.972656 14.316406-94.144531 41.398438-133.527344 3.128906-4.550781 1.976562-10.777344-2.574219-13.90625-4.546875-3.128906-10.773438-1.976562-13.90625 2.570313-29.386719 42.734375-44.917969 92.828125-44.917969 144.863281 0 68.378906 26.628906 132.667969 74.980469 181.019531 48.351562 48.351563 112.640625 74.980469 181.019531 74.980469s132.667969-26.628906 181.019531-74.980469c48.351563-48.351562 74.980469-112.640625 74.980469-181.019531s-26.628906-132.667969-74.980469-181.019531zm0 0"/><path d="m195.996094 256c0-11.027344-8.972656-20-20-20s-20 8.972656-20 20 8.972656 20 20 20 20-8.972656 20-20zm0 0"/><path d="m316.003906 256c0 11.027344 8.972656 20 20 20s20-8.972656 20-20-8.972656-20-20-20-20 8.972656-20 20zm0 0"/><path d="m216.125 186.496094c-12.183594-7.035156-26.058594-10.753906-40.128906-10.753906-14.066406 0-27.945313 3.71875-40.125 10.753906-4.785156 2.761718-6.421875 8.875-3.660156 13.660156 2.761718 4.78125 8.878906 6.421875 13.660156 3.660156 9.144531-5.28125 19.5625-8.074218 30.125-8.074218 10.566406 0 20.980468 2.792968 30.128906 8.074218 1.578125.910156 3.296875 1.339844 4.992188 1.339844 3.453124 0 6.816406-1.792969 8.667968-5 2.761719-4.78125 1.125-10.898438-3.660156-13.660156zm0 0"/><path d="m379.792969 200.15625c2.761719-4.785156 1.121093-10.898438-3.660157-13.660156-12.1875-7.035156-26.0625-10.753906-40.128906-10.753906-14.070312 0-27.945312 3.71875-40.128906 10.753906-4.785156 2.761718-6.421875 8.875-3.660156 13.660156 1.851562 3.207031 5.210937 5 8.667968 5 1.695313 0 3.417969-.433594 4.992188-1.339844 9.144531-5.28125 19.5625-8.074218 30.128906-8.074218 10.5625 0 20.980469 2.792968 30.128906 8.074218 4.785157 2.761719 10.898438 1.121094 13.660157-3.660156zm0 0"/><path d="m82.042969 92.050781c2.722656 0 5.433593-1.101562 7.40625-3.273437 3.714843-4.085938 3.414062-10.410156-.671875-14.125-4.085938-3.714844-10.410156-3.414063-14.125.671875l-.003906.003906c-3.714844 4.085937-3.414063 10.410156.671874 14.125 1.917969 1.742187 4.324219 2.597656 6.722657 2.597656zm0 0"/><path d="m155.996094 350.371094c0 55.066406 47.59375 90.910156 100.003906 90.910156s100.003906-35.84375 100.003906-90.910156c0-20.972656-12.265625-35.0625-30.515625-35.0625h-138.976562c-18.25 0-30.515625 14.089844-30.515625 35.0625zm59.554687 62.375c4.910157-10.792969 20.65625-18.144532 40.449219-18.144532s35.539062 7.351563 40.449219 18.144532c-11.597657 5.496094-25.28125 8.535156-40.449219 8.535156s-28.851562-3.039062-40.449219-8.535156zm120.453125-62.375c0 21.027344-8.351562 38.851562-22.652344 51.375-9.070312-16.527344-30.476562-27.144532-57.351562-27.144532s-48.28125 10.617188-57.355469 27.144532c-14.296875-12.523438-22.648437-30.351563-22.648437-51.375 0-5.625 1.367187-15.0625 10.515625-15.0625h138.976562c9.148438 0 10.515625 9.4375 10.515625 15.0625zm0 0"/></svg>