<svg height="512pt" viewBox="0 0 512.001 512" width="512pt" xmlns="http://www.w3.org/2000/svg"><path d="m437.019531 74.980469c-48.351562-48.351563-112.640625-74.980469-181.019531-74.980469-52.03125 0-102.125 15.535156-144.867188 44.925781-4.550781 3.128907-5.703124 9.355469-2.574218 13.90625s9.355468 5.699219 13.90625 2.574219c39.394531-27.085938 85.570312-41.40625 133.535156-41.40625 130.132812 0 236 105.871094 236 236 0 130.132812-105.871094 236-236 236s-236-105.867188-236-236c0-47.972656 14.316406-94.144531 41.398438-133.527344 3.128906-4.550781 1.980468-10.777344-2.570313-13.90625s-10.777344-1.976562-13.90625 2.574219c-29.390625 42.730469-44.921875 92.824219-44.921875 144.859375 0 68.382812 26.628906 132.667969 74.980469 181.019531 48.351562 48.351563 112.640625 74.980469 181.019531 74.980469s132.667969-26.628906 181.019531-74.980469c48.355469-48.351562 74.980469-112.636719 74.980469-181.019531 0-68.378906-26.628906-132.667969-74.980469-181.019531zm0 0"/><path d="m75.648438 89.738281c1.867187 1.558594 4.136718 2.316407 6.394531 2.316407 2.867187 0 5.710937-1.226563 7.691406-3.601563 3.535156-4.242187 2.960937-10.546875-1.28125-14.082031s-10.546875-2.960938-14.082031 1.277344l-.007813.007812c-3.535156 4.242188-2.957031 10.546875 1.285157 14.082031zm0 0"/><path d="m341.132812 266c0 11.027344 8.96875 20 20 20 11.027344 0 20-8.972656 20-20v-10c0-5.523438-4.480468-10-10-10h-70.257812c-5.523438 0-10 4.480469-10 10 0 5.523438 4.476562 10 10 10zm0 0"/><path d="m211.125 246h-70.253906c-5.523438 0-10 4.480469-10 10 0 5.523438 4.476562 10 10 10h40.253906c0 11.027344 8.972656 20 20 20 11.03125 0 20-8.972656 20-20v-10c0-5.523438-4.476562-10-10-10zm0 0"/><path d="m155.996094 378.296875c0 5.519531 4.480468 10 10 10h180.007812c5.519532 0 10-4.480469 10-10 0-5.523437-4.480468-10-10-10h-180.007812c-5.519532 0-10 4.476563-10 10zm0 0"/></svg>