<svg height="512pt" viewBox="-36 0 512 512.001" width="512pt" xmlns="http://www.w3.org/2000/svg"><path d="m370.625 131.671875c20.855469-13.398437 32.007812-30.429687 32.007812-49.671875 0-27.710938-23.109374-50.84375-65.074218-65.140625-31.910156-10.871094-73.660156-16.859375-117.558594-16.859375s-85.648438 5.988281-117.558594 16.859375c-41.964844 14.296875-65.074218 37.429687-65.074218 65.140625 0 19.242188 11.148437 36.269531 32.003906 49.671875-1.347656 1.261719-2.675782 2.535156-3.984375 3.828125-3.929688 3.882812-3.96875 10.214844-.085938 14.144531 1.957031 1.976563 4.535157 2.972657 7.113281 2.972657 2.539063 0 5.082032-.960938 7.027344-2.886719 2.820313-2.785157 5.734375-5.5 8.710938-8.113281 40.738281 17.847656 87.835937 22.386718 131.847656 22.386718 43.992188 0 91.144531-4.515625 131.851562-22.386718 43.390626 38.046874 68.148438 92.5 68.148438 150.382812 0 110.28125-89.722656 200-200 200-110.28125 0-200-89.71875-200-200 0-24.226562 4.289062-47.910156 12.742188-70.394531 1.945312-5.167969-.667969-10.933594-5.839844-12.878907-5.167969-1.945312-10.933594.667969-12.878906 5.839844-9.304688 24.738282-14.023438 50.792969-14.023438 77.433594 0 58.765625 22.882812 114.011719 64.4375 155.5625 41.550781 41.554688 96.796875 64.4375 155.5625 64.4375s114.011719-22.882812 155.5625-64.433594c41.550781-41.554687 64.4375-96.800781 64.4375-155.566406 0-61.136719-25.125-118.785156-69.375-160.328125zm-261.734375-3.457031c-20.027344-6.824219-51.523437-20.839844-51.523437-46.214844 0-18.210938 18.777343-35.054688 51.523437-46.210938 29.886719-10.183593 69.347656-15.789062 111.109375-15.789062s81.222656 5.605469 111.109375 15.789062c32.742187 11.15625 51.523437 28 51.523437 46.210938 0 28.203125-37.425781 42.171875-59.464843 48.746094-33.261719 9.921875-68.566407 13.257812-103.167969 13.257812-41.761719 0-81.222656-5.609375-111.109375-15.789062zm0 0"/><path d="m324.746094 109.332031c26.910156-9.167969 37.886718-17.085937 37.886718-27.332031 0-10.242188-10.976562-18.160156-37.886718-27.328125-27.769532-9.460937-64.96875-14.671875-104.746094-14.671875s-76.976562 5.210938-104.746094 14.671875c-26.910156 9.167969-37.886718 17.085937-37.886718 27.328125 0 10.246094 10.976562 18.164062 37.886718 27.332031 27.769532 9.460938 64.96875 14.671875 104.746094 14.671875 34.957031 0 67.914062-4.027344 94.242188-11.421875.011718-.003906.023437-.007812.035156-.011719 3.617187-1.015624 7.117187-2.09375 10.46875-3.238281zm-223.34375-27.332031c3.695312-2.011719 9.949218-4.871094 20.300781-8.398438 25.746094-8.769531 60.65625-13.601562 98.296875-13.601562s72.550781 4.832031 98.292969 13.601562c10.355469 3.527344 16.605469 6.386719 20.304687 8.398438-3.699218 2.015625-9.949218 4.875-20.300781 8.402344-1.925781.65625-3.921875 1.28125-5.945313 1.894531-29.023437-13.457031-60.066406-20.296875-92.351562-20.296875s-63.332031 6.839844-92.351562 20.296875c-2.023438-.613281-4.019532-1.238281-5.945313-1.894531-10.355469-3.527344-16.605469-6.386719-20.300781-8.402344zm62.136718 18.070312c18.1875-5.355468 37.074219-8.070312 56.460938-8.070312 19.382812 0 38.273438 2.710938 56.460938 8.070312-17.429688 2.570313-36.554688 3.933594-56.460938 3.933594s-39.035156-1.363281-56.460938-3.933594zm0 0"/><path d="m139.660156 350.351562c-1.429687-5.335937-6.910156-8.503906-12.25-7.070312-5.332031 1.429688-8.5 6.910156-7.070312 12.246094 12.0625 45.023437 53.046875 76.472656 99.660156 76.472656s87.59375-31.445312 99.65625-76.472656c1.429688-5.335938-1.734375-10.816406-7.070312-12.246094-5.335938-1.429688-10.816407 1.734375-12.246094 7.070312-9.726563 36.296876-42.765625 61.648438-80.339844 61.648438-37.578125 0-70.617188-25.351562-80.339844-61.648438zm0 0"/><path d="m300 314.539062c20.949219 0 39.367188-14.128906 44.789062-34.367187 1.429688-5.332031-1.734374-10.816406-7.070312-12.246094-5.335938-1.429687-10.816406 1.738281-12.246094 7.070313-3.082031 11.507812-13.558594 19.542968-25.46875 19.542968-11.914062 0-22.386718-8.035156-25.46875-19.542968-1.429687-5.332032-6.914062-8.5-12.25-7.070313-5.332031 1.429688-8.5 6.914063-7.070312 12.246094 5.421875 20.238281 23.839844 34.367187 44.785156 34.367187zm0 0"/><path d="m177.714844 267.925781c-5.335938-1.429687-10.820313 1.738281-12.25 7.070313-3.082032 11.507812-13.554688 19.542968-25.46875 19.542968-11.914063 0-22.386719-8.035156-25.46875-19.542968-1.429688-5.335938-6.910156-8.5-12.246094-7.070313-5.335938 1.429688-8.5 6.914063-7.074219 12.246094 5.421875 20.238281 23.839844 34.367187 44.789063 34.367187 20.949218 0 39.367187-14.128906 44.789062-34.367187 1.429688-5.332031-1.734375-10.816406-7.070312-12.246094zm0 0"/><path d="m38.277344 186.03125c1.703125 1.136719 3.632812 1.679688 5.539062 1.679688 3.230469 0 6.402344-1.5625 8.328125-4.453126l.003907-.003906c3.0625-4.597656 1.820312-10.800781-2.773438-13.867187-4.59375-3.0625-10.804688-1.816407-13.871094 2.777343-3.0625 4.59375-1.820312 10.804688 2.773438 13.867188zm0 0"/></svg>