<svg height="512pt" viewBox="0 0 512 512" width="512pt" xmlns="http://www.w3.org/2000/svg"><path d="m437.019531 74.980469c-48.351562-48.351563-112.640625-74.980469-181.019531-74.980469-52.03125 0-102.125 15.535156-144.867188 44.925781-4.550781 3.128907-5.703124 9.351563-2.574218 13.902344 3.128906 4.554687 9.355468 5.703125 13.90625 2.574219 39.394531-27.085938 85.570312-41.402344 133.535156-41.402344 130.132812 0 236 105.871094 236 236 0 130.132812-105.867188 236-236 236-130.128906 0-236-105.867188-236-236 0-47.972656 14.316406-94.144531 41.398438-133.527344 3.128906-4.554687 1.976562-10.777344-2.570313-13.90625-4.550781-3.128906-10.777344-1.980468-13.90625 2.574219-29.390625 42.730469-44.921875 92.824219-44.921875 144.859375 0 68.378906 26.628906 132.667969 74.980469 181.019531 48.351562 48.351563 112.640625 74.980469 181.019531 74.980469s132.667969-26.628906 181.019531-74.980469c48.351563-48.351562 74.980469-112.640625 74.980469-181.019531s-26.628906-132.667969-74.980469-181.019531zm0 0"/><path d="m82.042969 92.054688c2.707031 0 5.40625-1.09375 7.378906-3.246094 3.734375-4.070313 3.457031-10.394532-.613281-14.128906-4.070313-3.730469-10.398438-3.453126-14.128906.613281l-.003907.007812c-3.734375 4.070313-3.453125 10.394531.617188 14.125 1.917969 1.761719 4.335937 2.628907 6.75 2.628907zm0 0"/><path d="m358.074219 208.929688c-3.90625-3.90625-10.234375-3.90625-14.144531 0l-30 30c-2.605469 2.605468-3.566407 6.4375-2.5 9.96875 1.070312 3.527343 3.996093 6.183593 7.613281 6.90625l50 10c.660156.132812 1.320312.195312 1.972656.195312 4.667969 0 8.84375-3.285156 9.792969-8.039062 1.082031-5.414063-2.429688-10.683594-7.84375-11.765626l-31.679688-6.335937 16.789063-16.789063c3.90625-3.90625 3.90625-10.238281 0-14.140624zm0 0"/><path d="m131.191406 257.960938c.949219 4.753906 5.125 8.039062 9.792969 8.039062.652344 0 1.3125-.0625 1.972656-.195312l50-10c3.617188-.722657 6.542969-3.378907 7.613281-6.90625 1.066407-3.53125.105469-7.359376-2.5-9.96875l-30-30c-3.90625-3.90625-10.238281-3.90625-14.144531 0-3.90625 3.902343-3.90625 10.234374 0 14.140624l16.785157 16.789063-31.675782 6.335937c-5.414062 1.082032-8.925781 6.347657-7.84375 11.765626zm0 0"/><path d="m156 315.074219c0 29.285156 12.46875 54.28125 35.25 70.980469v21.195312c0 35.703125 29.046875 64.75 64.75 64.75s64.75-29.046875 64.75-64.75v-21.195312c22.78125-16.699219 35.253906-41.699219 35.253906-70.980469 0-20.972657-12.261718-35.0625-30.515625-35.0625h-138.976562c-18.25.003906-30.511719 14.09375-30.511719 35.0625zm144.75 92.175781c0 24.675781-20.074219 44.75-44.75 44.75s-44.75-20.074219-44.75-44.75v-26.371094c0-10.132812 8.246094-18.378906 18.378906-18.378906h16.371094v24c0 5.519531 4.476562 10 10 10s10-4.480469 10-10v-24h16.367188c10.136718 0 18.382812 8.246094 18.382812 18.378906zm35.253906-92.175781c0 19.117187-6.828125 35.851562-19.472656 48.351562-6.363281-12.410156-19.285156-20.925781-34.164062-20.925781h-52.734376c-14.878906 0-27.800781 8.515625-34.164062 20.925781-12.644531-12.5-19.46875-29.230469-19.46875-48.351562 0-5.625 1.363281-15.058594 10.511719-15.058594h138.976562c9.148438 0 10.515625 9.433594 10.515625 15.058594zm0 0"/></svg>