<svg height="512pt" viewBox="0 0 512 512" width="512pt" xmlns="http://www.w3.org/2000/svg"><path d="m226.003906 372c0-5.523438-4.480468-10-10-10h-.007812c-5.523438 0-9.996094 4.476562-9.996094 10s4.480469 10 10.003906 10c5.523438 0 10-4.476562 10-10zm0 0"/><path d="m296.003906 362h-.007812c-5.519532 0-9.996094 4.476562-9.996094 10s4.480469 10 10.003906 10c5.523438 0 10-4.476562 10-10s-4.476562-10-10-10zm0 0"/><path d="m296.128906 413.054688c-4.785156-2.757813-10.898437-1.121094-13.660156 3.660156-5.441406 9.429687-15.585938 15.285156-26.46875 15.285156s-21.027344-5.855469-26.46875-15.285156c-2.761719-4.78125-8.875-6.417969-13.660156-3.660156-4.78125 2.761718-6.421875 8.878906-3.660156 13.660156 9.003906 15.597656 25.78125 25.285156 43.789062 25.285156s34.785156-9.691406 43.789062-25.285156c2.761719-4.78125 1.121094-10.898438-3.660156-13.660156zm0 0"/><path d="m394.234375 117.773438c-4.996094-31.257813-20.46875-59.925782-44.113281-81.414063-25.804688-23.445313-59.230469-36.359375-94.121094-36.359375s-68.316406 12.914062-94.121094 36.359375c-23.640625 21.480469-39.113281 50.144531-44.109375 81.390625-12.546875 2-24.726562 5.703125-36.398437 11.089844-5.011719 2.316406-7.199219 8.257812-4.882813 13.273437 2.3125 5.015625 8.253907 7.199219 13.269531 4.886719 15.804688-7.296875 32.707032-11 50.242188-11 56.445312 0 106.476562 40.574219 117.613281 96.019531-.539062-.007812-1.074219-.011719-1.613281-.019531-42.835938 0-81.234375 19.34375-106.933594 49.75h-39.0625c-5.523437 0-10 4.476562-10 10 0 5.519531 4.476563 10 10 10h24.9375c-12.035156 20.660156-18.941406 44.660156-18.941406 70.25 0 .535156.003906 1.074219.007812 1.613281-55.492187-11.148437-96.007812-59.792969-96.007812-117.613281 0-17.535156 3.703125-34.441406 11.003906-50.25 2.3125-5.015625.128906-10.953125-4.886718-13.269531-5.011719-2.316407-10.957032-.128907-13.273438 4.886719-8.523438 18.453124-12.84375 38.183593-12.84375 58.632812 0 34.890625 12.914062 68.316406 36.359375 94.121094 21.488281 23.648437 50.15625 39.117187 81.414063 44.109375 10.683593 66.667969 68.597656 117.769531 138.226562 117.769531s127.542969-51.101562 138.226562-117.769531c31.257813-4.992188 59.925782-20.464844 81.414063-44.109375 23.445313-25.804688 36.359375-59.230469 36.359375-94.121094 0-69.632812-51.101562-127.542969-117.765625-138.226562zm-160.113281 34.585937c-25.804688-23.445313-59.230469-36.359375-94.121094-36.359375-.539062 0-1.074219.015625-1.613281.019531 11.148437-55.496093 59.789062-96.019531 117.613281-96.019531s106.464844 40.523438 117.613281 96.019531c-.539062-.003906-1.074219-.019531-1.613281-.019531-47.121094 0-90.144531 23.222656-116 61.597656-6.210938-9.171875-13.53125-17.652344-21.878906-25.238281zm21.878906 339.640625c-63.804688 0-116.128906-50.054688-119.789062-112.957031-.132813-2.347657-.210938-4.703125-.210938-7.042969 0-66.167969 53.832031-120 120-120s120 53.832031 120 120c0 1.734375-.046875 3.472656-.121094 5.210938-2.738281 63.761718-55.457031 114.789062-119.878906 114.789062zm139.992188-118.386719c.003906-.539062.007812-1.074219.007812-1.613281 0-36.035156-13.691406-68.933594-36.136719-93.769531 3.792969-1.644531 7.910157-2.515625 12.136719-2.515625 10.882812 0 21.027344 5.855468 26.46875 15.28125 1.851562 3.207031 5.210938 5.003906 8.667969 5.003906 1.699219 0 3.417969-.433594 4.992187-1.34375 4.78125-2.761719 6.421875-8.875 3.660156-13.660156-9.003906-15.59375-25.78125-25.28125-43.789062-25.28125-9.792969 0-19.230469 2.8125-27.332031 8.027344-18.722657-15.363282-41.488281-25.972657-66.4375-29.96875-2.011719-12.617188-5.738281-24.808594-11.015625-36.277344 21.242187-38.054688 60.953125-61.496094 104.785156-61.496094 66.167969 0 120 53.832031 120 120 0 57.820312-40.515625 106.464844-96.007812 117.613281zm0 0"/><path d="m332.003906 206h-.007812c-5.523438 0-9.996094 4.476562-9.996094 10 0 5.519531 4.480469 10 10.003906 10 5.523438 0 10-4.480469 10-10 0-5.523438-4.480468-10-10-10zm0 0"/><path d="m412.003906 206h-.003906c-5.523438 0-10 4.476562-10 10 0 5.519531 4.480469 10 10.003906 10 5.523438 0 10-4.480469 10-10 0-5.523438-4.476562-10-10-10zm0 0"/><path d="m216.003906 90h-.007812c-5.523438 0-9.996094 4.476562-9.996094 10 0 5.519531 4.480469 10 10.003906 10 5.523438 0 10-4.480469 10-10 0-5.523438-4.480468-10-10-10zm0 0"/><path d="m296.003906 110c5.523438 0 10-4.480469 10-10 0-5.523438-4.476562-10-10-10h-.007812c-5.519532 0-9.996094 4.476562-9.996094 10 0 5.519531 4.480469 10 10.003906 10zm0 0"/><path d="m110.003906 226c5.519532 0 10-4.480469 10-10 0-5.523438-4.480468-10-10-10h-20c-5.523437 0-10 4.476562-10 10 0 5.519531 4.476563 10 10 10zm0 0"/><path d="m190.003906 226c5.523438 0 10-4.480469 10-10 0-5.523438-4.476562-10-10-10h-20c-5.523437 0-10 4.476562-10 10 0 5.519531 4.476563 10 10 10zm0 0"/><path d="m48.082031 174.078125c2.257813 0 4.527344-.761719 6.394531-2.320313l.007813-.003906c4.242187-3.535156 4.8125-9.839844 1.277344-14.082031-3.535157-4.242187-9.847657-4.8125-14.085938-1.277344-4.246093 3.535157-4.816406 9.84375-1.28125 14.082031 1.976563 2.375 4.820313 3.601563 7.6875 3.601563zm0 0"/></svg>