<svg height="512pt" viewBox="0 0 512 512" width="512pt" xmlns="http://www.w3.org/2000/svg"><path d="m437.019531 74.980469c-48.351562-48.351563-112.640625-74.980469-181.019531-74.980469-52.03125 0-102.125 15.535156-144.867188 44.921875-4.550781 3.132813-5.703124 9.355469-2.574218 13.90625 3.128906 4.554687 9.355468 5.703125 13.90625 2.574219 39.390625-27.085938 85.566406-41.402344 133.535156-41.402344 90.429688 0 169.128906 51.132812 208.738281 125.996094h-417.574219c4.265626-8.070313 9.007813-15.925782 14.238282-23.527344 3.128906-4.550781 1.976562-10.773438-2.574219-13.902344s-10.777344-1.976562-13.90625 2.570313c-29.390625 42.734375-44.921875 92.828125-44.921875 144.863281 0 68.378906 26.628906 132.667969 74.980469 181.019531 48.351562 48.351563 112.640625 74.980469 181.019531 74.980469s132.667969-26.628906 181.019531-74.980469c48.351563-48.351562 74.980469-112.640625 74.980469-181.019531s-26.628906-132.667969-74.980469-181.019531zm-399.25 91.019531h436.378907c11.492187 27.75 17.851562 58.144531 17.851562 90 0 24.363281-3.710938 47.875-10.597656 70.003906h-450.804688c-6.886718-22.128906-10.597656-45.640625-10.597656-70.003906 0-31.222656 6.070312-61.679688 17.769531-90zm218.230469 326c-98.273438 0-182.699219-60.386719-218.148438-146h436.296876c-35.449219 85.613281-119.875 146-218.148438 146zm0 0"/><path d="m75.648438 89.738281c1.867187 1.554688 4.136718 2.316407 6.394531 2.316407 2.867187 0 5.710937-1.226563 7.691406-3.601563 3.535156-4.242187 2.960937-10.546875-1.28125-14.085937-4.238281-3.53125-10.546875-2.960938-14.085937 1.28125l-.003907.007812c-3.535156 4.242188-2.957031 10.546875 1.285157 14.082031zm0 0"/><path d="m175.996094 236c-16.539063 0-30 13.457031-30 30s13.460937 30 30 30c16.542968 0 30-13.457031 30-30s-13.457032-30-30-30zm0 40c-5.511719 0-10-4.484375-10-10s4.488281-10 10-10c5.515625 0 10 4.484375 10 10s-4.484375 10-10 10zm0 0"/><path d="m336.003906 236c-16.542968 0-30 13.457031-30 30s13.457032 30 30 30c16.539063 0 30-13.457031 30-30s-13.460937-30-30-30zm0 40c-5.515625 0-10-4.484375-10-10s4.484375-10 10-10c5.511719 0 10 4.484375 10 10s-4.488281 10-10 10zm0 0"/><path d="m143.410156 207.621094 60 16.074218c.867188.234376 1.734375.34375 2.59375.34375 4.414063 0 8.457032-2.945312 9.652344-7.414062 1.429688-5.332031-1.734375-10.816406-7.070312-12.246094l-60-16.078125c-5.335938-1.429687-10.816407 1.738281-12.246094 7.070313-1.429688 5.335937 1.734375 10.816406 7.070312 12.25zm0 0"/><path d="m305.996094 224.039062c.855468 0 1.730468-.109374 2.59375-.34375l60-16.074218c5.335937-1.433594 8.5-6.914063 7.070312-12.25-1.429687-5.332032-6.914062-8.5-12.246094-7.070313l-60 16.078125c-5.335937 1.429688-8.5 6.914063-7.070312 12.246094 1.195312 4.46875 5.238281 7.414062 9.652344 7.414062zm0 0"/><path d="m165.996094 366.003906c-5.519532 0-10 4.476563-10 10 0 5.519532 4.480468 10 10 10 31.328125 0 60.78125 12.199219 82.933594 34.351563 1.953124 1.949219 4.511718 2.929687 7.070312 2.929687s5.117188-.980468 7.070312-2.929687c3.90625-3.90625 3.90625-10.238281 0-14.144531-25.929687-25.925782-60.402343-40.207032-97.074218-40.207032zm0 0"/></svg>