<svg height="512pt" viewBox="0 0 512.00072 512" width="512pt" xmlns="http://www.w3.org/2000/svg"><path d="m511.996094 255.996094c0-68.378906-26.628906-132.664063-74.980469-181.015625-48.351563-48.351563-112.636719-74.980469-181.019531-74.980469-52.03125 0-102.125 15.535156-144.867188 44.925781-4.550781 3.128907-5.699218 9.351563-2.570312 13.902344s9.351562 5.703125 13.902344 2.574219c39.394531-27.085938 85.570312-41.402344 133.535156-41.402344 130.128906 0 236 105.867188 236 235.996094 0 23-3.304688 45.644531-9.8125 67.472656-14.761719-4.578125-32.199219-2.105469-44.058594 7.429688-17.074219-13.726563-45.707031-12.828126-61.273438 2.6875-11.53125 11.492187-15.246093 26.460937-10.746093 43.285156 5.976562 22.339844 25.394531 44.253906 43.464843 58.3125-42.765624 36.71875-96.832031 56.8125-153.574218 56.8125-130.128906 0-235.996094-105.871094-235.996094-236 0-47.96875 14.316406-94.144532 41.398438-133.527344 3.128906-4.546875 1.980468-10.773438-2.570313-13.90625-4.550781-3.125-10.777344-1.976562-13.90625 2.574219-29.390625 42.734375-44.921875 92.824219-44.921875 144.859375 0 68.382812 26.628906 132.667968 74.980469 181.019531 48.351562 48.351563 112.636719 74.980469 181.015625 74.980469 63.507812 0 123.925781-23.207032 170.980468-65.484375 3.164063 1.605469 6.070313 2.789062 8.570313 3.457031.847656.226562 1.714844.339844 2.582031.339844.867188 0 1.734375-.113282 2.578125-.339844 18.871094-5.039062 60.203125-38.574219 69.4375-73.097656 4.441407-16.597656.871094-31.382813-10.300781-42.816406 8.058594-25.175782 12.152344-51.398438 12.152344-78.058594zm-21.171875 115.707031c-6.765625 25.296875-38.578125 52.0625-52.695313 58.03125-22.167968-9.367187-46.457031-34.703125-52.699218-58.03125-2.65625-9.925781-.894532-17.535156 5.542968-23.953125 4.378906-4.363281 11.199219-6.546875 18.019532-6.546875 6.820312 0 13.640624 2.183594 18.019531 6.546875v.003906c.375.371094.671875.683594.921875.945313 2.222656 2.316406 4.835937 4.582031 10.234375 4.601562 5.316406-.019531 7.929687-2.285156 10.152343-4.601562 11.855469-12.339844 36.738282-9.382813 42.585938 7.753906 1.683594 4.941406 1.25 10.277344-.082031 15.25zm0 0"/><path d="m82.046875 92.050781c2.558594 0 5.121094-.976562 7.074219-2.929687 3.90625-3.902344 3.90625-10.234375 0-14.140625s-10.234375-3.90625-14.140625 0l-.007813.003906c-3.902344 3.90625-3.902344 10.234375.003906 14.140625 1.953126 1.953125 4.511719 2.925781 7.070313 2.925781zm0 0"/><path d="m310.53125 252.0625c3.082031-11.507812 13.554688-19.542969 25.46875-19.542969s22.386719 8.035157 25.46875 19.542969c1.195312 4.46875 5.238281 7.414062 9.652344 7.414062.859375 0 1.730468-.109374 2.59375-.34375 5.335937-1.429687 8.5-6.910156 7.074218-12.246093-5.421874-20.234375-23.839843-34.367188-44.789062-34.367188s-39.367188 14.132813-44.789062 34.367188c-1.429688 5.335937 1.738281 10.816406 7.074218 12.246093 5.332032 1.429688 10.816406-1.734374 12.246094-7.070312zm0 0"/><path d="m140.875 259.476562c4.414062 0 8.457031-2.945312 9.652344-7.414062 3.082031-11.507812 13.558594-19.542969 25.46875-19.542969 11.914062 0 22.386718 8.035157 25.46875 19.542969 1.429687 5.335938 6.910156 8.5 12.246094 7.070312 5.335937-1.425781 8.5-6.910156 7.070312-12.246093-5.417969-20.234375-23.835938-34.367188-44.785156-34.367188-20.949219 0-39.367188 14.132813-44.789063 34.367188-1.429687 5.335937 1.738281 10.816406 7.070313 12.246093.867187.234376 1.738281.34375 2.597656.34375zm0 0"/><path d="m262.46875 385.148438c-1.308594 0-2.617188-.171876-3.882812-.511719-5.332032-1.433594-10.816407 1.734375-12.246094 7.070312-1.429688 5.332031 1.734375 10.816407 7.070312 12.246094 2.953125.792969 6 1.191406 9.058594 1.191406 19.296875 0 35-15.699219 35-35 0-9.78125-4.035156-18.640625-10.527344-25 6.492188-6.355469 10.527344-15.214843 10.527344-24.996093 0-19.300782-15.703125-35.003907-35-35.003907-3.058594 0-6.105469.402344-9.058594 1.195313-5.335937 1.429687-8.5 6.910156-7.070312 12.246094 1.429687 5.335937 6.917968 8.5 12.246094 7.070312 1.269531-.339844 2.574218-.511719 3.882812-.511719 8.269531 0 15 6.730469 15 15 0 8.273438-6.730469 15-15 15-5.523438 0-10 4.480469-10 10 0 5.523438 4.476562 10 10 10 8.269531 0 15 6.730469 15 15 0 8.273438-6.730469 15.003907-15 15.003907zm0 0"/></svg>