<svg height="512pt" viewBox="0 0 512 512" width="512pt" xmlns="http://www.w3.org/2000/svg"><path d="m437.019531 74.980469c-1.652343-1.652344-3.332031-3.277344-5.023437-4.878907v-26.296874c0-5.519532-4.476563-10-10-10-5.523438 0-10 4.480468-10 10v9.179687c-6.46875-4.992187-13.140625-9.65625-20-13.972656v-29.011719c0-5.523438-4.476563-10-10-10-5.523438 0-10 4.476562-10 10v17.65625c-35.496094-18.078125-75.007813-27.65625-115.996094-27.65625-52.03125 0-102.125 15.535156-144.867188 44.925781-4.550781 3.128907-5.703124 9.355469-2.574218 13.90625 3.128906 4.546875 9.355468 5.699219 13.90625 2.574219 39.394531-27.089844 85.570312-41.40625 133.535156-41.40625 42.136719 0 81.71875 11.109375 115.996094 30.539062v75.457032c0 5.523437 4.476562 10 10 10 5.523437 0 10-4.476563 10-10v-62.765625c6.957031 4.921875 13.628906 10.214843 20 15.839843v13.121094c0 5.523438 4.476562 10 10 10 3.636718 0 6.8125-1.949218 8.5625-4.855468 38.152344 41.941406 61.441406 97.632812 61.441406 158.664062 0 101.027344-64.203125 190.808594-159.757812 223.40625-2.40625.820312-4.40625 2.523438-5.597657 4.765625-2.496093 4.683594-7.925781 7.828125-13.515625 7.828125h-114.257812c-5.589844 0-11.023438-3.148438-13.515625-7.828125-1.191407-2.242187-3.195313-3.945313-5.597657-4.765625-17.734374-6.050781-34.386718-14.074219-49.753906-23.773438v-22.019531c0-5.523437-4.476562-10-10-10-5.523437 0-10 4.476563-10 10v7.886719c-7.015625-5.523438-13.691406-11.425781-20-17.671875v-57.824219c0-5.523437-4.476562-10-10-10-5.523437 0-10 4.476563-10 10v35.320313c-31.660156-40.558594-50.003906-91.332031-50.003906-145.324219 0-47.972656 14.316406-94.144531 41.398438-133.53125 3.128906-4.550781 1.976562-10.773438-2.574219-13.902344s-10.777344-1.980468-13.90625 2.570313c-29.386719 42.734375-44.917969 92.828125-44.917969 144.863281 0 67.019531 26.058594 129.46875 70.003906 175.964844v50.035156c0 5.523438 4.476563 10 10 10 5.523438 0 10-4.476562 10-10v-31.035156c6.386719 5.445312 13.0625 10.585937 20 15.402344v15.632812c0 5.523438 4.476563 10 10 10 5.523438 0 10-4.476562 10-10v-3.074219c12.613282 7.125 25.941406 13.25 39.914063 18.230469 6.476562 9.128906 17.421875 14.84375 28.953125 14.84375h114.257812c11.53125 0 22.476563-5.714844 28.953125-14.84375 101.785157-36.3125 169.917969-132.769531 169.917969-241.15625 0-68.378906-26.628906-132.667969-74.980469-181.019531zm0 0"/><path d="m311.433594 242.898438c1.066406 3.527343 3.992187 6.183593 7.609375 6.90625l50 10c.660156.132812 1.320312.195312 1.972656.195312 4.667969 0 8.84375-3.285156 9.792969-8.039062 1.082031-5.417969-2.429688-10.6875-7.84375-11.769532l-31.679688-6.335937 16.789063-16.785157c3.90625-3.90625 3.90625-10.238281 0-14.144531-3.90625-3.902343-10.238281-3.902343-14.140625 0l-30 30c-2.609375 2.609375-3.570313 6.441407-2.5 9.972657zm0 0"/><path d="m131.191406 251.960938c.949219 4.753906 5.125 8.039062 9.796875 8.039062.648438 0 1.308594-.0625 1.96875-.195312l50.003907-10c3.613281-.722657 6.539062-3.375 7.609374-6.90625 1.066407-3.53125.105469-7.359376-2.5-9.96875l-30-30c-3.90625-3.90625-10.238281-3.90625-14.144531 0-3.902343 3.902343-3.90625 10.234374 0 14.140624l16.789063 16.789063-31.675782 6.335937c-5.417968 1.082032-8.929687 6.347657-7.847656 11.765626zm0 0"/><path d="m256 281.464844c-27.46875 0-49.898438 22.109375-52.171875 51.429687l-7.746094 99.695313c-.5 6.472656 1.722657 12.738281 6.269531 17.652344 4.835938 5.226562 11.6875 8.222656 18.800782 8.222656h69.695312c7.113282 0 13.964844-2.996094 18.800782-8.222656 4.546874-4.914063 6.773437-11.183594 6.269531-17.652344l-7.742188-99.695313c-2.28125-29.320312-24.707031-51.429687-52.175781-51.429687zm-32.234375 52.980468c1.460937-18.804687 15.316406-32.980468 32.234375-32.980468 16.914062 0 30.773438 14.179687 32.234375 32.980468l5.101563 65.699219c-10.273438-5.367187-23.117188-8.359375-37.335938-8.359375s-27.0625 2.992188-37.335938 8.359375zm71.203125 102.214844c-1.03125 1.113282-2.609375 1.804688-4.121094 1.804688h-69.695312c-1.511719 0-3.089844-.691406-4.121094-1.804688-.738281-.800781-1.078125-1.648437-1.011719-2.523437l.484375-6.195313c5.808594-9.863281 21.039063-16.15625 39.496094-16.15625s33.6875 6.292969 39.496094 16.160156l.480468 6.191407c.070313.875-.269531 1.722656-1.007812 2.523437zm0 0"/><path d="m351.992188 125.996094v-48.386719c0-5.519531-4.476563-10-10-10-5.523438 0-10 4.480469-10 10v48.386719c0 5.523437 4.476562 10 10 10 5.523437 0 10-4.476563 10-10zm0 0"/><path d="m75.648438 89.738281c1.867187 1.554688 4.136718 2.3125 6.394531 2.3125 2.867187 0 5.714843-1.226562 7.691406-3.597656 3.535156-4.242187 2.960937-10.550781-1.28125-14.085937-4.242187-3.535157-10.546875-2.960938-14.082031 1.28125l-.003906.007812c-3.539063 4.242188-2.960938 10.542969 1.28125 14.082031zm0 0"/></svg>