<svg height="512pt" viewBox="0 0 512 512" width="512pt" xmlns="http://www.w3.org/2000/svg"><path d="m437.019531 74.980469c-48.351562-48.351563-112.640625-74.980469-181.019531-74.980469-52.03125 0-102.125 15.535156-144.867188 44.925781-4.550781 3.128907-5.703124 9.351563-2.574218 13.902344 3.128906 4.554687 9.355468 5.703125 13.90625 2.574219 39.394531-27.085938 85.570312-41.402344 133.535156-41.402344 130.132812 0 236 105.867188 236 236 0 130.128906-105.867188 236-236 236-130.128906 0-236-105.871094-236-236 0-47.972656 14.316406-94.144531 41.398438-133.527344 3.128906-4.550781 1.976562-10.777344-2.570313-13.90625-4.550781-3.128906-10.777344-1.980468-13.90625 2.574219-29.390625 42.730469-44.921875 92.824219-44.921875 144.859375 0 68.378906 26.628906 132.667969 74.980469 181.019531 48.351562 48.351563 112.640625 74.980469 181.019531 74.980469s132.667969-26.628906 181.019531-74.980469c48.351563-48.351562 74.980469-112.640625 74.980469-181.019531s-26.628906-132.667969-74.980469-181.019531zm0 0"/><path d="m176 236c-11.03125 0-20 8.972656-20 20s8.96875 20 20 20c11.027344 0 20-8.972656 20-20s-8.972656-20-20-20zm0 0"/><path d="m356.003906 256c0-11.027344-8.972656-20-20-20-11.03125 0-20 8.972656-20 20s8.96875 20 20 20c11.027344 0 20-8.972656 20-20zm0 0"/><path d="m82.050781 92.054688c2.402344 0 4.8125-.859376 6.726563-2.605469 4.085937-3.714844 4.390625-10.039063.675781-14.125-3.71875-4.085938-10.042969-4.386719-14.128906-.671875l-.003907.003906c-4.085937 3.714844-4.382812 10.039062-.667968 14.125 1.96875 2.167969 4.679687 3.273438 7.398437 3.273438zm0 0"/><path d="m178.980469 326.609375c-5.269531-1.648437-10.878907 1.289063-12.527344 6.5625-1.644531 5.269531 1.292969 10.878906 6.5625 12.527344l49.457031 15.453125-49.457031 15.457031c-5.273437 1.648437-8.210937 7.257813-6.5625 12.527344 1.335937 4.277343 5.285156 7.019531 9.542969 7.019531.988281 0 1.992187-.144531 2.984375-.457031l77.019531-24.066407 77.019531 24.066407c.992188.3125 1.996094.457031 2.984375.457031 4.257813 0 8.207032-2.738281 9.542969-7.019531 1.648437-5.269531-1.289063-10.878907-6.5625-12.527344l-49.457031-15.457031 49.457031-15.453125c5.269531-1.648438 8.207031-7.257813 6.5625-12.527344-1.648437-5.269531-7.253906-8.210937-12.527344-6.5625l-77.019531 24.066406zm0 0"/></svg>