<svg height="512pt" viewBox="0 0 512 512" width="512pt" xmlns="http://www.w3.org/2000/svg"><path d="m437.019531 74.980469c-48.351562-48.351563-112.640625-74.980469-181.019531-74.980469-52.03125 0-102.125 15.535156-144.867188 44.921875-4.550781 3.132813-5.703124 9.355469-2.574218 13.90625 3.128906 4.554687 9.355468 5.703125 13.90625 2.574219 39.390625-27.085938 85.566406-41.402344 133.535156-41.402344 130.128906 0 236 105.867188 236 236 0 130.128906-105.871094 236-236 236s-236-105.871094-236-236c0-47.972656 14.316406-94.148438 41.398438-133.53125 3.128906-4.546875 1.976562-10.773438-2.574219-13.902344-4.546875-3.128906-10.773438-1.980468-13.902344 2.570313-29.390625 42.734375-44.921875 92.828125-44.921875 144.863281 0 68.378906 26.628906 132.667969 74.980469 181.019531 48.351562 48.351563 112.640625 74.980469 181.019531 74.980469s132.667969-26.628906 181.019531-74.980469c48.351563-48.351562 74.980469-112.640625 74.980469-181.019531s-26.628906-132.667969-74.980469-181.019531zm0 0"/><path d="m195.996094 256c0-11.027344-8.972656-20-20-20s-20 8.972656-20 20 8.972656 20 20 20 20-8.972656 20-20zm0 0"/><path d="m316.003906 256c0 11.027344 8.972656 20 20 20s20-8.972656 20-20-8.972656-20-20-20-20 8.972656-20 20zm0 0"/><path d="m213.773438 170.148438c-4.785157-2.761719-10.898438-1.121094-13.660157 3.660156-5.28125 9.148437-12.90625 16.773437-22.054687 22.058594-9.148438 5.28125-19.566406 8.070312-30.128906 8.070312-5.523438 0-10 4.480469-10 10 0 5.523438 4.476562 10 10 10 14.066406 0 27.945312-3.71875 40.128906-10.753906 12.183594-7.03125 22.339844-17.1875 29.375-29.375 2.761718-4.78125 1.125-10.894532-3.660156-13.660156zm0 0"/><path d="m373.097656 214.6875c0-5.523438-4.476562-10-10-10-10.5625 0-20.980468-2.792969-30.128906-8.074219-9.144531-5.28125-16.773438-12.90625-22.054688-22.054687-2.761718-4.785156-8.878906-6.421875-13.660156-3.660156-4.785156 2.761718-6.421875 8.875-3.660156 13.660156 7.035156 12.183594 17.191406 22.339844 29.375 29.375s26.058594 10.753906 40.128906 10.753906c5.523438 0 10-4.480469 10-10zm0 0"/><path d="m82.054688 92.050781c2.257812 0 4.53125-.757812 6.398437-2.316406 4.242187-3.535156 4.816406-9.839844 1.28125-14.082031-3.539063-4.246094-9.84375-4.816406-14.082031-1.28125l-.007813.003906c-4.242187 3.535156-4.8125 9.839844-1.277343 14.082031 1.976562 2.371094 4.820312 3.59375 7.6875 3.59375zm0 0"/><path d="m214.027344 332.863281c-2.222656-9.304687-6.964844-17.847656-13.902344-24.785156-3.902344-3.90625-10.238281-3.90625-14.144531 0-3.902344 3.902344-3.902344 10.234375 0 14.140625 6.125 6.125 9.496093 14.269531 9.496093 22.929688 0 8.660156-3.371093 16.804687-9.496093 22.929687-3.902344 3.90625-3.902344 10.238281 0 14.140625 1.953125 1.953125 4.511719 2.929688 7.070312 2.929688 2.558594 0 5.121094-.976563 7.074219-2.929688 7.988281-7.992188 13.078125-18.113281 14.746094-29.082031 26.984375-6.128907 55.273437-6.128907 82.253906 0 1.667969 10.96875 6.757812 21.089843 14.75 29.082031 1.953125 1.953125 4.515625 2.929688 7.074219 2.929688 2.558593 0 5.117187-.976563 7.070312-2.929688 3.902344-3.902344 3.902344-10.234375 0-14.140625-6.125-6.125-9.5-14.269531-9.5-22.929687 0-8.660157 3.375-16.804688 9.5-22.929688 3.902344-3.902344 3.902344-10.234375 0-14.140625-3.90625-3.90625-10.238281-3.90625-14.144531 0-6.9375 6.9375-11.679688 15.480469-13.90625 24.785156-27.605469-5.746093-56.332031-5.746093-83.941406 0zm0 0"/></svg>