<svg height="512pt" viewBox="0 0 512 512" width="512pt" xmlns="http://www.w3.org/2000/svg"><path d="m82.046875 92.050781c2.5625 0 5.121094-.976562 7.074219-2.929687 3.90625-3.902344 3.90625-10.234375 0-14.140625s-10.234375-3.90625-14.140625 0l-.003907.003906c-3.90625 3.90625-3.902343 10.234375 0 14.140625 1.953126 1.953125 4.511719 2.925781 7.070313 2.925781zm0 0"/><path d="m457.902344 413.367188c35.390625-45.324219 54.097656-99.691407 54.097656-157.367188 0-68.378906-26.628906-132.667969-74.980469-181.019531-48.351562-48.351563-112.640625-74.980469-181.019531-74.980469-52.03125 0-102.125 15.535156-144.867188 44.921875-4.550781 3.132813-5.703124 9.355469-2.574218 13.90625 3.128906 4.554687 9.355468 5.703125 13.90625 2.574219 39.390625-27.085938 85.566406-41.402344 133.535156-41.402344 126.78125 0 230.511719 100.492188 235.773438 226h-76.417969c-4.941407-39.40625-38.628907-70-79.355469-70-40.722656 0-74.410156 30.59375-79.351562 70h-1.300782c-4.9375-39.40625-38.628906-70-79.351562-70s-74.414063 30.59375-79.351563 70h-76.429687c1.847656-44.375 15.988281-86.890625 41.183594-123.53125 3.128906-4.546875 1.976562-10.773438-2.574219-13.902344-4.546875-3.128906-10.773438-1.980468-13.90625 2.570313-29.386719 42.734375-44.917969 92.828125-44.917969 144.863281 0 57.683594 18.707031 112.050781 54.097656 157.367188 7.546875 24.003906 25.855469 39.234374 49 47.945312 44.445313 33.160156 97.28125 50.6875 152.902344 50.6875 55.632812 0 108.46875-17.527344 152.910156-50.691406 23.140625-8.714844 41.445313-23.945313 48.992188-47.941406zm-388.875-13.378907c-30.042969-38.917969-46.816406-84.992187-48.824219-133.988281h76.441406c4.941407 39.40625 38.628907 70 79.355469 70 40.722656 0 74.410156-30.59375 79.351562-70h1.300782c4.9375 39.40625 38.628906 70 79.351562 70s74.414063-30.59375 79.351563-70h76.441406c-2.007813 48.992188-18.777344 95.066406-48.820313 133.988281-31.269531 8.398438-57.09375-8.496093-84.382812-26.351562-21.101562-13.804688-42.921875-28.082031-67.632812-29.769531-12.226563-.835938-24.40625 2.015624-34.960938 8.085937-10.550781-6.070313-22.738281-8.925781-34.960938-8.085937-24.710937 1.6875-46.527343 15.964843-67.628906 29.769531-27.292968 17.859375-53.117187 34.746093-84.382812 26.351562zm266.976562-203.988281c33.082032 0 60 26.914062 60 60 0 33.082031-26.917968 60-60 60-33.085937 0-60-26.917969-60-60 0-33.085938 26.914063-60 60-60zm-160.007812 0c33.085937 0 60 26.914062 60 60 0 33.082031-26.914063 60-60 60-33.082032 0-60-26.917969-60-60 0-33.085938 26.917968-60 60-60zm80.003906 296c-34.28125 0-67.40625-7.222656-97.84375-21.136719 1.507812.027344 3.015625.042969 4.527344.042969 9.886718 0 19.808594-.636719 29.457031-1.796875 26.605469-3.203125 48.039063-9.960937 63.859375-20.121094 15.820312 10.160157 37.253906 16.917969 63.859375 20.121094 9.652344 1.160156 19.566406 1.796875 29.457031 1.796875 1.511719 0 3.023438-.015625 4.53125-.042969-30.4375 13.914063-63.566406 21.136719-97.847656 21.136719zm144.78125-48.996094c-.078125.023438-.152344.054688-.230469.085938-.96875.351562-1.957031.695312-2.960937 1.027344-20.386719 6.707031-47.140625 8.53125-75.339844 5.136718-26.195312-3.15625-46.984375-10.207031-60.121094-20.394531-1.804687-1.394531-3.96875-2.09375-6.128906-2.09375s-4.324219.699219-6.128906 2.09375c-13.136719 10.1875-33.925782 17.238281-60.121094 20.394531-28.199219 3.394532-54.953125 1.570313-75.339844-5.136718-1.007812-.332032-1.996094-.679688-2.96875-1.03125-.074218-.027344-.148437-.058594-.222656-.082032-13.488281-4.933594-23.691406-11.933594-30.5-20.925781 1.621094.09375 3.226562.140625 4.820312.140625 30.144532 0 55.699219-16.71875 78.816407-31.84375 19.824219-12.972656 38.550781-25.222656 58.046875-26.554688 9.867187-.679687 19.6875 2.203126 27.644531 8.101563 3.535156 2.621094 8.371094 2.621094 11.90625 0 7.957031-5.894531 17.777344-8.777344 27.644531-8.101563h.003906c19.492188 1.332032 38.21875 13.582032 58.042969 26.554688 24.34375 15.925781 51.363281 33.605469 83.636719 31.703125-6.808594 8.992187-17.011719 15.992187-30.5 20.925781zm0 0"/><path d="m175.996094 276c11.027344 0 20-8.972656 20-20s-8.972656-20-20-20-20 8.972656-20 20 8.972656 20 20 20zm0 0"/><path d="m336.003906 276c11.027344 0 20-8.972656 20-20s-8.972656-20-20-20-20 8.972656-20 20 8.972656 20 20 20zm0 0"/></svg>