<svg height="512pt" viewBox="0 0 512 512" width="512pt" xmlns="http://www.w3.org/2000/svg"><path d="m437.019531 74.980469c-3.582031-3.582031-7.261719-7.03125-11.015625-10.371094v-20.804687c0-5.519532-4.476562-10-10-10-5.523437 0-10 4.480468-10 10v4.699218c-6.484375-4.707031-13.15625-9.09375-20-13.144531v-25.359375c0-5.523438-4.476562-10-10-10-5.523437 0-10 4.476562-10 10v14.699219c-33.929687-16.164063-71.308594-24.699219-110.003906-24.699219-52.03125 0-102.125 15.535156-144.867188 44.921875-4.550781 3.132813-5.703124 9.355469-2.574218 13.90625 3.128906 4.554687 9.355468 5.707031 13.90625 2.574219 39.394531-27.085938 85.570312-41.402344 133.535156-41.402344 39.699219 0 77.132812 9.867188 110 27.261719v78.734375c0 5.523437 4.480469 10 10 10 5.523438 0 10-4.476563 10-10v-66.859375c6.929688 4.589843 13.613281 9.523437 20.003906 14.800781v18.257812c0 5.519532 4.476563 10 10 10 5.429688 0 9.835938-4.332031 9.984375-9.726562 40.851563 42.449219 66.011719 100.105469 66.011719 163.53125 0 130.132812-105.871094 236-236 236s-236-105.871094-236-236c0-47.972656 14.316406-94.144531 41.398438-133.53125 3.128906-4.550781 1.980468-10.773438-2.570313-13.902344s-10.777344-1.980468-13.90625 2.570313c-29.390625 42.734375-44.921875 92.828125-44.921875 144.863281 0 68.378906 26.628906 132.667969 74.980469 181.019531 48.351562 48.351563 112.640625 74.980469 181.019531 74.980469s132.667969-26.628906 181.019531-74.980469c48.351563-48.351562 74.980469-112.640625 74.980469-181.019531s-26.628906-132.667969-74.980469-181.019531zm0 0"/><path d="m75.648438 89.738281c1.867187 1.554688 4.136718 2.3125 6.394531 2.3125 2.867187 0 5.714843-1.226562 7.691406-3.597656 3.535156-4.242187 2.960937-10.550781-1.28125-14.085937-4.242187-3.535157-10.546875-2.960938-14.082031 1.28125l-.003906.007812c-3.539063 4.242188-2.960938 10.542969 1.28125 14.082031zm0 0"/><path d="m308.714844 163.515625c-13.628906 7.871094-22.882813 20.394531-26.058594 35.261719-3.296875 15.421875.035156 32.359375 9.628906 48.976562 15.328125 26.550782 44.433594 48.324219 70.160156 48.324219 6.972657 0 13.703126-1.601563 19.835938-5.144531 28.757812-16.601563 27.089844-65.777344 7.601562-99.527344-9.59375-16.617188-22.597656-27.972656-37.601562-32.828125-14.460938-4.683594-29.933594-2.929687-43.566406 4.9375zm10 17.320313c19.125-11.039063 40.261718-2.964844 53.851562 20.570312 7.625 13.207031 11.957032 29.761719 11.585938 44.28125-.347656 13.59375-4.671875 23.769531-11.871094 27.925781s-18.175781 2.816407-30.121094-3.683593c-12.757812-6.9375-24.929687-18.96875-32.554687-32.175782-13.589844-23.535156-10.011719-45.875 9.109375-56.917968zm0 0"/><path d="m203.285156 163.515625c-13.632812-7.867187-29.101562-9.621094-43.566406-4.9375-15.003906 4.859375-28.007812 16.210937-37.601562 32.828125-19.488282 33.75-21.15625 82.925781 7.601562 99.53125 5.898438 3.40625 12.570312 5.097656 19.746094 5.097656 9.320312 0 19.496094-2.855468 29.929687-8.535156 16.097657-8.753906 30.792969-23.238281 40.320313-39.742188 9.59375-16.621093 12.925781-33.558593 9.628906-48.980468-3.175781-14.871094-12.429688-27.390625-26.058594-35.261719zm-.890625 74.238281c-7.625 13.210938-19.792969 25.238282-32.554687 32.179688-11.945313 6.496094-22.921875 7.835937-30.121094 3.683594-7.199219-4.15625-11.523438-14.335938-11.871094-27.929688-.367187-14.519531 3.964844-31.074219 11.589844-44.28125 9.546875-16.539062 22.824219-25.441406 36.511719-25.441406 5.789062 0 11.648437 1.59375 17.335937 4.875 19.121094 11.039062 22.699219 33.378906 9.109375 56.914062zm0 0"/><path d="m249.625 302.1875c-24.742188 0-44.875 20.128906-44.875 44.875v60.191406.015625.164063c0 28.261718 22.992188 51.25 51.25 51.25s51.25-22.988282 51.25-51.25v-.164063c0-.007812 0-.011719 0-.015625v-60.191406c0-24.746094-20.132812-44.875-44.875-44.875zm6.375 136.496094c-15.152344 0-27.816406-10.839844-30.652344-25.171875 9.683594-4.058594 19.960938-6.117188 30.652344-6.117188s20.96875 2.058594 30.652344 6.117188c-2.835938 14.332031-15.5 25.171875-30.652344 25.171875zm31.25-91.621094v45.363281c-10.046875-3.304687-20.628906-5.03125-31.25-5.03125s-21.203125 1.726563-31.25 5.03125v-45.363281c0-13.71875 11.160156-24.875 24.875-24.875h12.75c13.71875 0 24.875 11.15625 24.875 24.875zm0 0"/><path d="m346 125.996094v-48.386719c0-5.519531-4.476562-10-10-10s-10 4.480469-10 10v48.386719c0 5.523437 4.476562 10 10 10s10-4.476563 10-10zm0 0"/></svg>