<svg height="512pt" viewBox="0 0 512 512" width="512pt" xmlns="http://www.w3.org/2000/svg"><path d="m437.019531 74.980469c-48.351562-48.351563-112.640625-74.980469-181.019531-74.980469-52.027344 0-102.125 15.535156-144.867188 44.921875-4.550781 3.132813-5.703124 9.355469-2.574218 13.90625 3.128906 4.554687 9.355468 5.707031 13.90625 2.574219 39.394531-27.085938 85.570312-41.402344 133.535156-41.402344 130.128906 0 236 105.871094 236 236s-105.871094 236-236 236-236-105.871094-236-236c0-47.972656 14.316406-94.144531 41.398438-133.53125 3.128906-4.550781 1.976562-10.773438-2.574219-13.902344s-10.777344-1.980468-13.90625 2.570313c-29.386719 42.734375-44.917969 92.828125-44.917969 144.863281 0 68.378906 26.628906 132.667969 74.980469 181.019531 48.351562 48.351563 112.640625 74.980469 181.019531 74.980469s132.667969-26.628906 181.019531-74.980469c48.351563-48.351562 74.980469-112.640625 74.980469-181.019531s-26.628906-132.667969-74.980469-181.019531zm0 0"/><path d="m195.996094 256c0-11.027344-8.972656-20-20-20s-20 8.972656-20 20 8.972656 20 20 20 20-8.972656 20-20zm0 0"/><path d="m316.003906 256c0 11.027344 8.972656 20 20 20s20-8.972656 20-20-8.972656-20-20-20-20 8.972656-20 20zm0 0"/><path d="m216.125 186.496094c-12.183594-7.035156-26.058594-10.753906-40.128906-10.753906-14.070313 0-27.945313 3.71875-40.128906 10.753906-4.78125 2.761718-6.417969 8.878906-3.660157 13.660156 1.855469 3.207031 5.214844 5 8.671875 5 1.695313 0 3.414063-.429688 4.988282-1.339844 9.148437-5.28125 19.566406-8.074218 30.128906-8.074218s20.980468 2.792968 30.128906 8.074218c4.78125 2.761719 10.898438 1.121094 13.660156-3.660156 2.761719-4.78125 1.125-10.898438-3.660156-13.660156zm0 0"/><path d="m371.121094 205.15625c3.457031 0 6.816406-1.792969 8.667968-5 2.761719-4.78125 1.125-10.898438-3.660156-13.660156-12.183594-7.035156-26.058594-10.753906-40.128906-10.753906-14.066406 0-27.941406 3.71875-40.128906 10.753906-4.78125 2.761718-6.417969 8.878906-3.660156 13.660156 2.765624 4.78125 8.878906 6.421875 13.664062 3.660156 9.144531-5.28125 19.5625-8.074218 30.125-8.074218 10.566406 0 20.984375 2.792968 30.128906 8.074218 1.578125.910156 3.296875 1.339844 4.992188 1.339844zm0 0"/><path d="m75.648438 89.738281c1.867187 1.554688 4.136718 2.3125 6.394531 2.3125 2.867187 0 5.714843-1.226562 7.691406-3.597656 3.535156-4.242187 2.960937-10.550781-1.28125-14.085937-4.242187-3.535157-10.546875-2.960938-14.082031 1.28125l-.003906.007812c-3.539063 4.242188-2.960938 10.542969 1.28125 14.082031zm0 0"/><path d="m185.835938 329.542969c-19.242188 16.558593-29.839844 40.238281-29.839844 66.675781 0 20.972656 12.265625 35.0625 30.515625 35.0625h138.976562c18.25 0 30.511719-14.089844 30.511719-35.0625 0-26.4375-10.59375-50.117188-29.835938-66.675781-18.164062-15.628907-43.082031-24.234375-70.164062-24.234375s-52 8.605468-70.164062 24.234375zm28.195312 81.476562c-.042969-.128906-.097656-.382812-.097656-.777343 0-16.832032 21.164062-25.640626 42.066406-25.640626s42.0625 8.808594 42.0625 25.640626c0 .394531-.054688.648437-.09375.777343-.183594.078125-.707031.261719-1.773438.261719h-80.394531c-1.066406 0-1.589843-.183594-1.769531-.261719zm121.96875-14.800781c0 5.625-1.363281 15.0625-10.511719 15.0625h-7.472656c.015625-.347656.046875-.6875.046875-1.039062 0-13.828126-7.019531-26.042969-19.769531-34.394532-11.066407-7.253906-26.085938-11.246094-42.292969-11.246094s-31.230469 3.992188-42.296875 11.246094c-12.746094 8.351563-19.769531 20.566406-19.769531 34.394532 0 .351562.035156.691406.046875 1.039062h-7.46875c-9.148438 0-10.515625-9.4375-10.515625-15.0625 0-41.75 32.898437-70.910156 80.003906-70.910156 47.101562 0 80 29.160156 80 70.910156zm0 0"/></svg>