<svg height="512pt" viewBox="0 0 512.0013 512" width="512pt" xmlns="http://www.w3.org/2000/svg"><path d="m82.042969 92.054688c2.707031 0 5.40625-1.09375 7.378906-3.246094 3.734375-4.070313 3.457031-10.394532-.613281-14.128906-4.070313-3.730469-10.398438-3.453126-14.128906.617187l-.003907.003906c-3.734375 4.070313-3.453125 10.394531.617188 14.125 1.917969 1.761719 4.335937 2.628907 6.75 2.628907zm0 0"/><path d="m175.996094 255.15625c14.070312 0 27.945312-3.714844 40.128906-10.75 4.78125-2.761719 6.421875-8.878906 3.660156-13.660156-2.761718-4.78125-8.875-6.421875-13.660156-3.660156-9.148438 5.28125-19.566406 8.070312-30.128906 8.070312s-20.980469-2.789062-30.125-8.070312c-4.785156-2.761719-10.902344-1.121094-13.664063 3.660156-2.757812 4.78125-1.121093 10.898437 3.664063 13.660156 12.183594 7.035156 26.058594 10.75 40.125 10.75zm0 0"/><path d="m305.875 227.085938c-4.785156-2.761719-10.898438-1.121094-13.660156 3.660156-2.761719 4.78125-1.125 10.898437 3.660156 13.660156 12.183594 7.035156 26.058594 10.75 40.125 10.75 14.070312 0 27.945312-3.714844 40.128906-10.75 4.785156-2.761719 6.421875-8.878906 3.660156-13.660156-2.757812-4.78125-8.871093-6.421875-13.660156-3.660156-9.144531 5.28125-19.5625 8.070312-30.128906 8.070312-10.5625 0-20.976562-2.789062-30.125-8.070312zm0 0"/><path d="m83.375 322.222656c-6.878906 25.667969 5.777344 57.511719 38.855469 66.375 3.128906.839844 9.808593 2.277344 18.707031 2.277344 11.226562 0 25.980469-2.292969 41.570312-10.980469 17.730469-9.878906 41.472657-31.367187 53.871094-77.640625 1.046875-3.90625-.363281-8.058594-3.570312-10.523437-3.210938-2.460938-7.585938-2.746094-11.089844-.726563-14.347656 8.285156-47.8125 4.839844-72.835938-1.867187-36.507812-9.777344-59.210937 9.570312-65.507812 33.085937zm60.332031-13.765625c7.804688 2.089844 40.707031 10.210938 67.480469 6.382813-8.871094 22.136718-21.957031 38.414062-38.414062 47.585937-16.988282 9.464844-34.574219 9.746094-45.367188 6.851563-21.777344-5.835938-28.988281-25.929688-24.714844-41.878906 2.914063-10.871094 11.695313-20.8125 27.921875-20.8125 3.921875 0 8.28125.582031 13.09375 1.871093zm0 0"/><path d="m189.785156 426.347656c0 15.101563 9.382813 25.652344 22.8125 25.652344h86.804688c13.429687 0 22.8125-10.550781 22.8125-25.652344 0-35.078125-27.847656-60.535156-66.214844-60.535156s-66.214844 25.457031-66.214844 60.535156zm112.429688 0c0 2.566406-.609375 4.292969-1.179688 5.054688-.210937.28125-.449218.597656-1.636718.597656h-86.800782c-1.183594 0-1.421875-.316406-1.632812-.597656-.570313-.761719-1.179688-2.488282-1.179688-5.054688 0-23.867187 19.003906-40.535156 46.214844-40.535156s46.214844 16.667969 46.214844 40.535156zm0 0"/><path d="m501.996094 87.882812h.003906c5.519531 0 10-4.476562 10-9.996093.003906-5.523438-4.476562-10.003907-9.996094-10.003907l-43.730468-.011718 50.796874-50.800782c2.859376-2.859374 3.71875-7.160156 2.167969-10.898437-1.546875-3.734375-5.195312-6.171875-9.238281-6.171875h-67.863281c-5.523438 0-10 4.480469-10 10 0 5.523438 4.476562 10 10 10h43.71875l-48.054688 48.058594c-47.445312-43.953125-108.765625-68.058594-173.800781-68.058594-52.03125 0-102.125 15.535156-144.867188 44.925781-4.550781 3.128907-5.703124 9.355469-2.574218 13.90625s9.355468 5.703125 13.90625 2.574219c39.394531-27.089844 85.570312-41.40625 133.535156-41.40625 130.128906 0 236 105.871094 236 236 0 130.132812-105.871094 236-236 236s-236-105.867188-236-236c0-47.972656 14.316406-94.144531 41.398438-133.527344 3.128906-4.550781 1.976562-10.777344-2.570313-13.90625-4.550781-3.128906-10.777344-1.980468-13.90625 2.574219-29.390625 42.730469-44.921875 92.824219-44.921875 144.859375 0 68.378906 26.628906 132.667969 74.980469 181.019531 48.351562 48.351563 112.640625 74.980469 181.019531 74.980469s132.667969-26.628906 181.019531-74.980469c48.351563-48.351562 74.980469-112.640625 74.980469-181.019531 0-62.472656-22.238281-121.523438-62.953125-168.132812zm0 0"/><path d="m404.828125 112.59375c-1.546875-3.738281-5.195313-6.171875-9.238281-6.171875h-39.316406c-5.523438 0-10 4.476563-10 10 0 5.519531 4.476562 10 10 10h15.171874l-22.242187 22.242187c-2.859375 2.859376-3.714844 7.160157-2.167969 10.894532 1.546875 3.738281 5.191406 6.175781 9.234375 6.175781l39.316407.011719h.003906c5.519531 0 10-4.476563 10-9.996094 0-5.523438-4.476563-10-9.996094-10.003906l-15.183594-.003906 22.25-22.25c2.859375-2.859376 3.714844-7.160157 2.167969-10.898438zm0 0"/></svg>