<svg height="512pt" viewBox="0 0 512 512" width="512pt" xmlns="http://www.w3.org/2000/svg"><path d="m437.042969 75.007812c-47.355469-48.03125-113.753907-75.007812-181.042969-75.007812-52.027344 0-102.125 15.535156-144.867188 44.921875-4.550781 3.132813-5.703124 9.355469-2.574218 13.90625 3.128906 4.554687 9.355468 5.707031 13.90625 2.574219 36.566406-25.140625 78.972656-39.269532 123.230468-41.171875l-225.464843 225.464843c1.898437-44.261718 16.03125-86.667968 41.167969-123.226562 3.128906-4.550781 1.976562-10.773438-2.574219-13.902344-4.546875-3.128906-10.773438-1.980468-13.90625 2.570313-29.386719 42.734375-44.917969 92.828125-44.917969 144.863281 0 106.488281 68.4375 204.507812 168.675781 240.789062 27.941407 10.113282 57.617188 15.210938 87.324219 15.210938 68.378906 0 132.667969-26.628906 181.019531-74.980469 48.351563-48.351562 74.980469-112.640625 74.980469-181.019531 0-68.367188-26.621094-132.644531-74.957031-180.992188zm-354.757813 340.5625c-14.199218-15.445312-26.375-32.78125-36.089844-51.585937l317.789063-317.789063c18.804687 9.714844 36.140625 21.890626 51.585937 36.089844zm-61.632812-142.011718 252.90625-252.90625c24.957031 1.84375 48.839844 7.597656 71.054687 16.628906l-307.332031 307.332031c-9.03125-22.214843-14.785156-46.097656-16.628906-71.054687zm235.347656 218.441406c-61.476562 0-117.527344-23.636719-159.570312-62.285156l333.285156-333.285156c38.648437 42.042968 62.285156 98.09375 62.285156 159.570312 0 130.128906-105.871094 236-236 236zm0 0"/><path d="m75.648438 89.738281c1.867187 1.554688 4.136718 2.3125 6.394531 2.3125 2.867187 0 5.710937-1.226562 7.691406-3.597656 3.535156-4.242187 2.960937-10.550781-1.28125-14.085937-4.238281-3.53125-10.546875-2.960938-14.085937 1.28125l-.003907.007812c-3.535156 4.242188-2.957031 10.542969 1.285157 14.082031zm0 0"/><path d="m320.003906 375.382812c-3.878906 0-5.609375-1.351562-9.492187-4.679687-4.675781-4.007813-11.078125-9.496094-22.511719-9.496094-11.429688 0-17.832031 5.488281-22.507812 9.496094-3.882813 3.328125-5.613282 4.679687-9.492188 4.679687s-5.609375-1.351562-9.492188-4.679687c-4.675781-4.007813-11.078124-9.496094-22.507812-9.496094-11.433594 0-17.835938 5.488281-22.511719 9.496094-3.882812 3.328125-5.613281 4.679687-9.492187 4.679687-5.523438 0-10 4.480469-10 10 0 5.523438 4.476562 10 10 10 11.433594 0 17.835937-5.488281 22.511718-9.496093 3.882813-3.328125 5.613282-4.679688 9.492188-4.679688 3.875 0 5.605469 1.351563 9.488281 4.679688 4.679688 4.007812 11.078125 9.496093 22.511719 9.496093s17.832031-5.488281 22.511719-9.496093c3.882812-3.328125 5.613281-4.679688 9.488281-4.679688 3.878906 0 5.609375 1.351563 9.492188 4.679688 4.675781 4.007812 11.078124 9.496093 22.511718 9.496093 5.523438 0 10-4.476562 10-10 0-5.519531-4.476562-10-10-10zm0 0"/><path d="m358.074219 218.929688c-3.90625-3.90625-10.238281-3.90625-14.144531 0l-30 30c-3.902344 3.90625-3.902344 10.234374 0 14.140624l30 30c1.953124 1.953126 4.511718 2.929688 7.070312 2.929688 2.5625 0 5.121094-.976562 7.074219-2.929688 3.902343-3.902343 3.902343-10.234374 0-14.140624l-22.929688-22.929688 22.929688-22.929688c3.90625-3.902343 3.90625-10.234374 0-14.140624zm0 0"/></svg>