<svg height="512pt" viewBox="0 0 512 512" width="512pt" xmlns="http://www.w3.org/2000/svg"><path d="m122.464844 61.402344c39.390625-27.085938 85.566406-41.402344 133.535156-41.402344 49.007812 0 96.792969 15.339844 136.507812 43.507812-12.40625 1.535157-24.914062-.96875-35.925781-7.328124-4.78125-2.761719-10.898437-1.121094-13.660156 3.660156s-1.121094 10.898437 3.660156 13.660156c12 6.925781 25.3125 10.464844 38.804688 10.464844 6.761719 0 13.570312-.890625 20.277343-2.6875 4.355469-1.167969 8.542969-2.707032 12.554688-4.554688.066406-.027344.125-.054687.1875-.085937 14.417969-6.683594 26.425781-17.589844 34.535156-31.636719 2.761719-4.78125 1.121094-10.898438-3.660156-13.660156-4.785156-2.761719-10.898438-1.121094-13.660156 3.660156-4.984375 8.636719-11.957032 15.671875-20.277344 20.660156-45.152344-35.9375-101.460938-55.660156-159.34375-55.660156-52.03125 0-102.125 15.535156-144.867188 44.921875-4.550781 3.132813-5.703124 9.355469-2.574218 13.90625 3.128906 4.554687 9.355468 5.703125 13.90625 2.574219zm0 0"/><path d="m456.339844 96.65625c4.988281-8.320312 12.023437-15.289062 20.660156-20.277344 4.78125-2.761718 6.421875-8.875 3.660156-13.660156-2.761718-4.78125-8.878906-6.421875-13.660156-3.660156-18.011719 10.398437-30.894531 27.191406-36.277344 47.277344-5.382812 20.089843-2.621094 41.070312 7.777344 59.082031 1.851562 3.207031 5.214844 5 8.667969 5 1.699219 0 3.417969-.429688 4.992187-1.339844 4.78125-2.761719 6.421875-8.878906 3.660156-13.660156-6.359374-11.015625-8.863281-23.523438-7.328124-35.925781 28.164062 39.710937 43.507812 87.492187 43.507812 136.507812 0 130.128906-105.871094 236-236 236s-236-105.871094-236-236c0-47.972656 14.316406-94.144531 41.398438-133.53125 3.128906-4.550781 1.980468-10.773438-2.570313-13.902344s-10.777344-1.980468-13.90625 2.570313c-29.390625 42.734375-44.921875 92.828125-44.921875 144.863281 0 68.378906 26.628906 132.667969 74.980469 181.019531 48.351562 48.351563 112.640625 74.980469 181.019531 74.980469s132.667969-26.628906 181.019531-74.980469c48.351563-48.351562 74.980469-112.640625 74.980469-181.019531 0-57.886719-19.722656-114.199219-55.660156-159.34375zm0 0"/><path d="m75.648438 89.738281c1.867187 1.554688 4.136718 2.3125 6.394531 2.3125 2.867187 0 5.714843-1.226562 7.691406-3.597656 3.535156-4.242187 2.960937-10.550781-1.28125-14.085937-4.242187-3.535157-10.546875-2.960938-14.082031 1.28125l-.003906.007812c-3.539063 4.242188-2.960938 10.542969 1.28125 14.082031zm0 0"/><path d="m186 293.5625c11.027344 0 20-8.96875 20-20v-10c0-5.519531-4.480469-10-10-10-10.566406 0-20.984375-2.789062-30.128906-8.070312-9.148438-5.28125-16.777344-12.910157-22.058594-22.058594-2.761719-4.78125-8.875-6.421875-13.660156-3.660156-4.78125 2.761718-6.421875 8.878906-3.660156 13.660156 7.035156 12.183594 17.191406 22.34375 29.375 29.378906 3.265624 1.882812 6.652343 3.53125 10.128906 4.929688v5.820312c.003906 11.03125 8.972656 20 20.003906 20zm0 0"/><path d="m346.003906 273.5625v-5.820312c3.476563-1.398438 6.863282-3.046876 10.125-4.929688 12.1875-7.035156 22.34375-17.191406 29.378906-29.378906 2.761719-4.78125 1.121094-10.894532-3.660156-13.660156-4.78125-2.757813-10.898437-1.121094-13.660156 3.660156-5.28125 9.148437-12.910156 16.777344-22.058594 22.058594-9.144531 5.28125-19.5625 8.070312-30.125 8.070312-5.523437 0-10 4.476562-10 10v10c0 11.027344 8.972656 20 20 20s20-8.96875 20-20zm0 0"/><path d="m193.410156 381.992188c5.335938 1.429687 10.816406-1.738282 12.246094-7.070313 6.097656-22.746094 26.796875-38.628906 50.34375-38.628906s44.25 15.882812 50.34375 38.628906c1.195312 4.46875 5.234375 7.414063 9.652344 7.414063.855468 0 1.726562-.113282 2.59375-.34375 5.335937-1.429688 8.5-6.914063 7.070312-12.246094-8.429687-31.472656-37.078125-53.453125-69.660156-53.453125s-61.230469 21.980469-69.660156 53.453125c-1.429688 5.332031 1.734375 10.816406 7.070312 12.246094zm0 0"/><path d="m409.296875 180.5625c5.523437 0 10-4.476562 10-10 0-20.796875-8.097656-40.351562-22.804687-55.054688-14.707032-14.707031-34.257813-22.804687-55.054688-22.804687-5.523438 0-10 4.476563-10 10 0 5.519531 4.476562 10 10 10 15.453125 0 29.984375 6.019531 40.910156 16.945313 10.929688 10.929687 16.949219 25.457031 16.949219 40.914062 0 5.523438 4.476563 10 10 10zm0 0"/></svg>