<svg height="512pt" viewBox="0 0 512 512" width="512pt" xmlns="http://www.w3.org/2000/svg"><path d="m437.019531 74.980469c-48.351562-48.351563-112.640625-74.980469-181.019531-74.980469-52.03125 0-102.125 15.535156-144.867188 44.921875-4.550781 3.132813-5.703124 9.355469-2.574218 13.90625 3.128906 4.554687 9.355468 5.703125 13.90625 2.574219 39.390625-27.085938 85.566406-41.402344 133.535156-41.402344 130.128906 0 236 105.871094 236 236s-105.871094 236-236 236-236-105.871094-236-236c0-47.972656 14.316406-94.144531 41.398438-133.53125 3.128906-4.550781 1.976562-10.773438-2.574219-13.902344s-10.777344-1.980468-13.90625 2.570313c-29.386719 42.734375-44.917969 92.828125-44.917969 144.863281 0 68.378906 26.628906 132.667969 74.980469 181.019531 48.351562 48.351563 112.640625 74.980469 181.019531 74.980469s132.667969-26.628906 181.019531-74.980469c48.351563-48.351562 74.980469-112.640625 74.980469-181.019531s-26.628906-132.667969-74.980469-181.019531zm0 0"/><path d="m75.648438 89.738281c1.867187 1.554688 4.136718 2.3125 6.394531 2.3125 2.867187 0 5.714843-1.226562 7.691406-3.597656 3.535156-4.242187 2.960937-10.550781-1.28125-14.085937-4.242187-3.535157-10.546875-2.960938-14.082031 1.28125l-.003906.007812c-3.539063 4.242188-2.960938 10.542969 1.28125 14.082031zm0 0"/><path d="m336 259.476562c20.949219 0 39.367188-14.132812 44.789062-34.367187 1.429688-5.332031-1.734374-10.816406-7.070312-12.246094-5.335938-1.433593-10.816406 1.734375-12.25 7.070313-3.082031 11.507812-13.554688 19.542968-25.46875 19.542968s-22.386719-8.035156-25.46875-19.542968c-1.429688-5.335938-6.910156-8.503906-12.246094-7.070313-5.335937 1.429688-8.5 6.914063-7.074218 12.246094 5.425781 20.234375 23.84375 34.367187 44.789062 34.367187zm0 0"/><path d="m175.996094 259.476562c20.949218 0 39.367187-14.132812 44.789062-34.367187 1.429688-5.332031-1.734375-10.816406-7.070312-12.246094-5.335938-1.433593-10.820313 1.734375-12.25 7.070313-3.082032 11.507812-13.554688 19.542968-25.46875 19.542968-11.910156 0-22.382813-8.035156-25.46875-19.542968-1.429688-5.335938-6.914063-8.496094-12.246094-7.070313-5.335938 1.429688-8.5 6.914063-7.074219 12.246094 5.425781 20.234375 23.84375 34.367187 44.789063 34.367187zm0 0"/><path d="m262.46875 385.148438c-1.308594 0-2.617188-.171876-3.882812-.511719-5.332032-1.429688-10.816407 1.738281-12.246094 7.070312-1.429688 5.335938 1.734375 10.820313 7.070312 12.25 2.953125.789063 6 1.191407 9.058594 1.191407 19.300781 0 35-15.703126 35-35 0-9.785157-4.035156-18.644532-10.527344-25 6.496094-6.359376 10.527344-15.214844 10.527344-25 0-19.300782-15.699219-35-35-35-3.058594 0-6.105469.402343-9.058594 1.191406-5.335937 1.429687-8.5 6.910156-7.070312 12.246094 1.429687 5.335937 6.917968 8.503906 12.246094 7.070312 1.265624-.335938 2.574218-.507812 3.882812-.507812 8.273438 0 15 6.726562 15 15 0 8.269531-6.726562 15-15 15-5.523438 0-10 4.476562-10 10 0 5.519531 4.476562 10 10 10 8.273438 0 15 6.726562 15 15 0 8.269531-6.726562 15-15 15zm0 0"/></svg>