<svg height="512pt" viewBox="0 0 512 512" width="512pt" xmlns="http://www.w3.org/2000/svg"><path d="m502 153.398438h-36v-103.398438c0-27.570312-22.429688-50-50-50h-230c-5.523438 0-10 4.476562-10 10s4.476562 10 10 10h230c16.542969 0 30 13.457031 30 30v18.257812c-.804688-.835937-1.65625-1.765624-2.597656-2.800781-5.617188-6.1875-13.3125-14.660156-27.402344-14.660156s-21.785156 8.476563-27.402344 14.660156c-4.972656 5.472657-7.582031 8.105469-12.597656 8.105469s-7.625-2.632812-12.597656-8.105469c-5.617188-6.1875-13.3125-14.660156-27.402344-14.660156s-21.785156 8.472656-27.402344 14.660156c-4.972656 5.472657-7.582031 8.101563-12.597656 8.101563s-7.625-2.628906-12.597656-8.101563c-5.617188-6.1875-13.3125-14.660156-27.402344-14.660156s-21.785156 8.472656-27.402344 14.65625c-4.972656 5.476563-7.582031 8.105469-12.597656 8.105469s-7.625-2.632813-12.597656-8.105469c-5.617188-6.183594-13.3125-14.65625-27.402344-14.65625s-21.785156 8.472656-27.402344 14.660156c-4.972656 5.472657-7.582031 8.101563-12.597656 8.101563s-7.628906-2.628906-12.597656-8.101563c-5.617188-6.1875-13.3125-14.660156-27.402344-14.660156-14.09375 0-21.785156 8.472656-27.402344 14.660156-.941406 1.03125-1.792968 1.964844-2.597656 2.796875v-18.253906c0-16.542969 13.457031-30 30-30 5.523438 0 10-4.476562 10-10s-4.476562-10-10-10c-27.570312 0-50 22.429688-50 50v33.550781.011719.007812 69.828126h-36c-5.523438 0-10 4.480468-10 10v60c0 5.523437 4.476562 10 10 10h27.296875c-3.011719 6.847656-4.695313 14.402343-4.695313 22.351562 0 13.445312 4.726563 26.167969 13.398438 36.261719v169.988281c0 27.570312 22.429688 50 50 50h320c27.570312 0 50-22.429688 50-50v-169.988281c8.671875-10.097657 13.398438-22.816407 13.398438-36.261719 0-7.945312-1.683594-15.503906-4.695313-22.351562h27.296875c5.519531 0 10-4.476563 10-10v-60c0-5.519532-4.476562-10-10-10zm-482 20h66v26.648437c-12.894531.539063-24.667969 5.480469-33.859375 13.351563h-32.140625zm428.929688 107.628906c-1.875 1.875-2.929688 4.417968-2.929688 7.070312v173.902344c0 16.542969-13.457031 30-30 30h-320c-16.542969 0-30-13.457031-30-30v-173.898438c0-2.652343-1.050781-5.195312-2.929688-7.074218-6.75-6.75-10.46875-15.726563-10.46875-25.277344 0-19.714844 16.039063-35.75 35.75-35.75 9.730469 0 17.648438-7.917969 17.648438-17.648438v-78.953124c0-5.523438-4.476562-10-10-10s-10 4.480468-10 10v30.003906h-20v-61.464844c8.042969-2.753906 13.289062-8.5 17.402344-13.035156 4.972656-5.472656 7.582031-8.101563 12.597656-8.101563s7.628906 2.628907 12.597656 8.101563c5.617188 6.1875 13.3125 14.660156 27.402344 14.660156 14.09375 0 21.785156-8.472656 27.402344-14.660156 4.972656-5.472656 7.582031-8.101563 12.597656-8.101563s7.628906 2.628907 12.597656 8.101563c5.617188 6.1875 13.3125 14.660156 27.402344 14.660156s21.785156-8.472656 27.402344-14.660156c4.972656-5.472656 7.582031-8.101563 12.597656-8.101563s7.628906 2.628907 12.597656 8.101563c5.617188 6.1875 13.3125 14.660156 27.402344 14.660156s21.785156-8.472656 27.402344-14.660156c4.972656-5.472656 7.582031-8.105469 12.597656-8.105469s7.625 2.632813 12.597656 8.105469c5.617188 6.1875 13.3125 14.660156 27.402344 14.660156s21.785156-8.476562 27.402344-14.660156c4.972656-5.472656 7.582031-8.105469 12.597656-8.105469s7.625 2.632813 12.597656 8.105469c4.117188 4.535156 9.359375 10.28125 17.402344 13.035156v61.460938h-20v-30c0-5.523438-4.476562-10-10-10s-10 4.476562-10 10v78.949218c0 9.734375 7.917969 17.652344 17.648438 17.652344 19.714843 0 35.75 16.035156 35.75 35.746094 0 9.550781-3.71875 18.53125-10.46875 25.28125zm43.070312-67.628906h-32.140625c-9.191406-7.871094-20.964844-12.8125-33.859375-13.351563v-26.648437h66zm0 0"/><path d="m356 372c-5.523438 0-10 4.476562-10 10v9.996094h-30v-9.996094c0-5.523438-4.476562-10-10-10s-10 4.476562-10 10v9.996094h-30v-9.996094c0-5.523438-4.476562-10-10-10-5.519531 0-10 4.476562-10 10v9.996094h-30v-9.996094c0-5.523438-4.476562-10-10-10s-10 4.476562-10 10v9.996094h-30v-9.996094c0-5.523438-4.476562-10-10-10s-10 4.476562-10 10v39.996094c0 5.523437 4.476562 10 10 10s10-4.476563 10-10v-10h30v10c0 5.523437 4.476562 10 10 10s10-4.476563 10-10v-10h30v10c0 5.523437 4.476562 10 10 10s10-4.476563 10-10v-10h30v10c0 5.523437 4.476562 10 10 10s10-4.476563 10-10v-10h30v10c0 5.523437 4.476562 10 10 10s10-4.476563 10-10v-39.996094c0-5.523438-4.476562-10-10-10zm0 0"/><path d="m336 196c-33.082031 0-60 26.917969-60 60s26.917969 60 60 60c33.085938 0 60-26.917969 60-60s-26.914062-60-60-60zm0 100c-22.054688 0-40-17.945312-40-40s17.945312-40 40-40c22.058594 0 40 17.945312 40 40s-17.945312 40-40 40zm0 0"/><path d="m356.003906 246h-.007812c-5.519532 0-9.996094 4.476562-9.996094 10s4.484375 10 10.003906 10c5.523438 0 10-4.476562 10-10s-4.476562-10-10-10zm0 0"/><path d="m236 256c0-33.082031-26.917969-60-60-60-33.085938 0-60 26.917969-60 60s26.914062 60 60 60c33.082031 0 60-26.917969 60-60zm-100 0c0-22.054688 17.945312-40 40-40s40 17.945312 40 40-17.945312 40-40 40-40-17.945312-40-40zm0 0"/><path d="m196.003906 266c5.523438 0 10-4.476562 10-10s-4.476562-10-10-10h-.007812c-5.523438 0-9.996094 4.476562-9.996094 10s4.480469 10 10.003906 10zm0 0"/><path d="m141.003906 20c5.523438 0 10-4.476562 10-10s-4.476562-10-10-10h-.007812c-5.523438 0-9.996094 4.476562-9.996094 10s4.480469 10 10.003906 10zm0 0"/></svg>