<svg height="512pt" viewBox="0 0 512 512" width="512pt" xmlns="http://www.w3.org/2000/svg"><path d="m437.019531 74.980469c-48.351562-48.351563-112.640625-74.980469-181.019531-74.980469-52.03125 0-102.125 15.535156-144.867188 44.921875-4.550781 3.132813-5.703124 9.355469-2.574218 13.90625 3.128906 4.554687 9.355468 5.703125 13.90625 2.574219 39.390625-27.085938 85.566406-41.402344 133.535156-41.402344 130.128906 0 236 105.871094 236 236s-105.871094 236-236 236-236-105.871094-236-236c0-47.972656 14.316406-94.144531 41.398438-133.53125 3.128906-4.550781 1.976562-10.773438-2.574219-13.902344-4.546875-3.128906-10.773438-1.980468-13.90625 2.570313-29.386719 42.734375-44.917969 92.828125-44.917969 144.863281 0 68.378906 26.628906 132.667969 74.980469 181.019531 48.351562 48.351563 112.640625 74.980469 181.019531 74.980469s132.667969-26.628906 181.019531-74.980469c48.351563-48.351562 74.980469-112.640625 74.980469-181.019531s-26.628906-132.667969-74.980469-181.019531zm0 0"/><path d="m155.996094 256c0 11.027344 8.972656 20 20 20s20-8.972656 20-20-8.972656-20-20-20-20 8.972656-20 20zm0 0"/><path d="m356.003906 256c0-11.027344-8.972656-20-20-20s-20 8.972656-20 20 8.972656 20 20 20 20-8.972656 20-20zm0 0"/><path d="m213.773438 170.148438c-4.785157-2.761719-10.898438-1.121094-13.660157 3.660156-5.28125 9.148437-12.90625 16.773437-22.054687 22.058594-9.148438 5.277343-19.566406 8.070312-30.128906 8.070312-5.523438 0-10 4.480469-10 10 0 5.523438 4.476562 10 10 10 14.066406 0 27.941406-3.71875 40.128906-10.753906 12.183594-7.03125 22.339844-17.191406 29.375-29.375 2.761718-4.78125 1.125-10.898438-3.660156-13.660156zm0 0"/><path d="m363.097656 204.6875c-10.5625 0-20.980468-2.792969-30.128906-8.074219s-16.773438-12.90625-22.054688-22.054687c-2.761718-4.785156-8.878906-6.421875-13.660156-3.660156-4.785156 2.761718-6.421875 8.878906-3.660156 13.660156 7.035156 12.183594 17.191406 22.34375 29.375 29.375 12.183594 7.035156 26.0625 10.753906 40.128906 10.753906 5.523438 0 10-4.476562 10-10s-4.476562-10-10-10zm0 0"/><path d="m82.046875 92.050781c2.5625 0 5.125-.976562 7.078125-2.929687 3.902344-3.902344 3.902344-10.234375 0-14.140625-3.90625-3.90625-10.238281-3.90625-14.144531 0l-.003907.003906c-3.90625 3.90625-3.902343 10.234375 0 14.140625 1.953126 1.953125 4.511719 2.925781 7.070313 2.925781zm0 0"/><path d="m215.871094 296.753906c-4.78125 2.761719-6.421875 8.875-3.660156 13.660156 1.851562 3.207032 5.214843 5 8.671874 5 1.695313 0 3.414063-.429687 4.988282-1.339843 9.148437-5.28125 19.566406-8.074219 30.128906-8.074219s20.980469 2.792969 30.128906 8.074219c4.78125 2.761719 10.898438 1.121093 13.660156-3.660157 2.761719-4.78125 1.121094-10.898437-3.660156-13.660156-12.183594-7.035156-26.058594-10.753906-40.128906-10.753906-14.066406 0-27.945312 3.71875-40.128906 10.753906zm0 0"/><path d="m336.003906 423.625c27.570313 0 50-22.429688 50-50 0-28.101562-27.230468-57.65625-40.3125-71.859375-2.746094-2.980469-5.320312-5.765625-9.6875-5.765625-4.371094 0-6.941406 2.78125-9.6875 5.765625-13.085937 14.203125-40.3125 43.757813-40.3125 71.859375 0 27.570312 22.429688 50 50 50zm0-102.804688c11.742188 13.078126 30 35.300782 30 52.804688 0 16.542969-13.460937 30-30 30-16.542968 0-30-13.457031-30-30 0-17.503906 18.253906-39.726562 30-52.804688zm0 0"/></svg>