<svg height="512pt" viewBox="0 0 512 512" width="512pt" xmlns="http://www.w3.org/2000/svg"><path d="m437.019531 74.980469c-48.351562-48.351563-112.640625-74.980469-181.019531-74.980469-52.03125 0-102.125 15.535156-144.867188 44.921875-4.550781 3.132813-5.703124 9.355469-2.574218 13.90625 3.128906 4.554687 9.355468 5.703125 13.90625 2.574219 39.390625-27.085938 85.566406-41.402344 133.535156-41.402344 99.175781 0 184.246094 61.496094 219.113281 148.355469-.519531-.15625-1.042969-.304688-1.574219-.4375-15.851562-3.960938-32.378906-7.015625-49.121093-9.074219-16.847657-2.070312-33.644531-3.117188-49.917969-3.117188-16.277344 0-33.070312 1.046876-49.921875 3.117188-16.742187 2.058594-33.269531 5.113281-49.113281 9.074219-8.234375 2.050781-15.316406 7.289062-19.464844 14.375-4.148438-7.085938-11.230469-12.320313-19.457031-14.375-15.855469-3.960938-32.378907-7.015625-49.125-9.074219-16.847657-2.070312-33.644531-3.117188-49.917969-3.117188-16.277344 0-33.070312 1.046876-49.917969 3.117188-16.746093 2.058594-33.273437 5.113281-49.113281 9.074219-.5625.140625-1.117188.296875-1.664062.464843 6.425781-16.054687 14.644531-31.441406 24.59375-45.914062 3.128906-4.550781 1.976562-10.773438-2.574219-13.902344-4.546875-3.128906-10.773438-1.980468-13.90625 2.570313-29.386719 42.734375-44.917969 92.828125-44.917969 144.863281 0 68.378906 26.628906 132.667969 74.980469 181.019531 48.351562 48.351563 112.640625 74.980469 181.019531 74.980469s132.667969-26.628906 181.019531-74.980469c48.351563-48.351562 74.980469-112.640625 74.980469-181.019531s-26.628906-132.667969-74.980469-181.019531zm-163.792969 117.464843c1.460938-2.527343 3.972657-4.347656 7.085938-5.125 15.058594-3.765624 30.773438-6.667968 46.707031-8.625 16.042969-1.972656 32.019531-2.96875 47.480469-2.96875s31.4375.996094 47.480469 2.96875c15.929687 1.957032 31.644531 4.859376 46.714843 8.628907 3.105469.773437 5.617188 2.59375 7.078126 5.121093.867187 1.503907 1.726562 3.917969.878906 6.875-1.554688 5.425782-8.046875 8.71875-14.167969 7.1875-14.511719-3.625-29.179687-6.363281-43.59375-8.132812-14.304687-1.757812-29.238281-2.648438-44.390625-2.648438s-30.089844.890626-44.394531 2.648438c-14.414063 1.769531-29.082031 4.507812-43.589844 8.132812-6.132813 1.535157-12.617187-1.761718-14.171875-7.1875-.847656-2.957031.011719-5.371093.882812-6.875zm131.988282 123.753907c-36.097656.636719-63.941406-2.695313-82.507813-20.945313-11.71875-11.519531-19.019531-28.484375-22.089843-51.460937-.027344-.347657-.074219-.691407-.136719-1.027344-.742188-5.835937-1.214844-12.058594-1.417969-18.671875 11.1875-2.53125 22.417969-4.507812 33.484375-5.867188 13.5-1.65625 27.613281-2.5 41.953125-2.5s28.453125.84375 41.953125 2.5c11.113281 1.367188 22.390625 3.351563 33.625 5.898438.117187 55.175781-3.105469 91.351562-44.863281 92.074219zm-149.214844-104.667969c4.832031 8.222656 13.496094 13.769531 23.140625 15.0625.105469 2.726562.253906 5.398438.449219 8.015625h-47.179688c.195313-2.617187.34375-5.292969.449219-8.015625 9.640625-1.292969 18.308594-6.839844 23.140625-15.0625zm-194.078125 12.59375c11.234375-2.546875 22.511719-4.53125 33.625-5.898438 13.5-1.65625 27.613281-2.5 41.953125-2.5s28.453125.84375 41.957031 2.5c11.0625 1.359376 22.292969 3.335938 33.480469 5.867188-.207031 6.628906-.679688 12.871094-1.425781 18.722656-.058594.316406-.101563.636719-.128907.960938-3.066406 22.988281-10.371093 39.957031-22.089843 51.476562-18.570313 18.25-46.414063 21.589844-82.511719 20.945313-41.753906-.722657-44.976562-36.894531-44.859375-92.074219zm-18.609375-36.804688c15.058594-3.765624 30.773438-6.667968 46.707031-8.625 16.042969-1.972656 32.019531-2.96875 47.480469-2.96875 15.464844 0 31.4375.996094 47.480469 2.96875 15.933593 1.957032 31.648437 4.859376 46.714843 8.628907 3.105469.773437 5.617188 2.59375 7.078126 5.121093.871093 1.503907 1.726562 3.917969.882812 6.875-1.554688 5.425782-8.046875 8.714844-14.167969 7.191407-14.511719-3.628907-29.179687-6.367188-43.59375-8.136719-14.308593-1.757812-29.242187-2.648438-44.394531-2.648438s-30.089844.890626-44.394531 2.648438c-14.417969 1.769531-29.085938 4.507812-43.597657 8.136719-6.121093 1.523437-12.609374-1.765625-14.164062-7.191407-.847656-2.957031.011719-5.371093.878906-6.875 1.464844-2.527343 3.976563-4.347656 7.089844-5.125zm212.6875 304.679688c-130.128906 0-236-105.871094-236-236 0-13.152344 1.082031-26.171875 3.203125-38.949219 4.886719 5.09375 11.515625 8.480469 18.710937 9.5-.050781 24.203125.191407 48.960938 7.246094 69.21875 9.164063 26.324219 28.4375 39.925781 57.277344 40.425781 2.671875.046876 5.351562.074219 8.027344.074219 32.960937 0 65.800781-4.101562 88.847656-26.75 13.453125-13.226562 22.253906-31.355469 26.585938-54.90625h52.203124c4.328126 23.550781 13.128907 41.679688 26.585938 54.90625 23.046875 22.648438 55.882812 26.75 88.847656 26.75 2.675782 0 5.355469-.027343 8.027344-.074219 28.839844-.5 48.109375-14.101562 57.277344-40.425781 7.050781-20.257812 7.296875-45.015625 7.242187-69.21875 7.183594-1.015625 13.804688-4.394531 18.6875-9.476562 2.113281 12.667969 3.230469 25.667969 3.230469 38.925781 0 130.128906-105.871094 236-236 236zm0 0"/><path d="m338.933594 352.582031c-22.152344 22.152344-51.605469 34.351563-82.933594 34.351563s-60.777344-12.195313-82.933594-34.351563c-3.902344-3.902343-10.234375-3.902343-14.140625 0-3.90625 3.90625-3.90625 10.238281 0 14.144531 25.929688 25.929688 60.40625 40.207032 97.074219 40.207032s71.144531-14.277344 97.074219-40.207032c3.902343-3.90625 3.902343-10.238281 0-14.144531-3.90625-3.902343-10.234375-3.902343-14.140625 0zm0 0"/><path d="m75.648438 89.738281c1.867187 1.554688 4.136718 2.3125 6.394531 2.3125 2.867187 0 5.710937-1.226562 7.691406-3.597656 3.535156-4.242187 2.960937-10.550781-1.28125-14.085937-4.238281-3.53125-10.546875-2.960938-14.085937 1.28125l-.003907.007812c-3.535156 4.242188-2.957031 10.542969 1.285157 14.082031zm0 0"/></svg>