<svg height="512pt" viewBox="0 0 512.001 512" width="512pt" xmlns="http://www.w3.org/2000/svg"><path d="m437.019531 74.980469c-48.351562-48.351563-112.640625-74.980469-181.019531-74.980469-52.03125 0-102.125 15.535156-144.867188 44.925781-4.550781 3.128907-5.703124 9.355469-2.574218 13.90625s9.355468 5.699219 13.90625 2.574219c39.394531-27.085938 85.570312-41.40625 133.535156-41.40625 130.132812 0 236 105.871094 236 236 0 130.132812-105.871094 236-236 236s-236-105.867188-236-236c0-47.972656 14.316406-94.144531 41.398438-133.527344 3.128906-4.550781 1.980468-10.777344-2.570313-13.90625s-10.777344-1.980468-13.90625 2.574219c-29.390625 42.730469-44.921875 92.824219-44.921875 144.859375 0 68.382812 26.628906 132.667969 74.980469 181.019531 48.351562 48.351563 112.640625 74.980469 181.019531 74.980469s132.667969-26.628906 181.019531-74.980469c48.355469-48.351562 74.980469-112.636719 74.980469-181.019531 0-68.378906-26.628906-132.667969-74.980469-181.019531zm0 0"/><path d="m75.648438 89.738281c1.867187 1.558594 4.136718 2.316407 6.394531 2.316407 2.867187 0 5.710937-1.226563 7.691406-3.601563 3.535156-4.242187 2.960937-10.546875-1.28125-14.082031s-10.546875-2.960938-14.082031 1.277344l-.007813.007812c-3.535156 4.242188-2.957031 10.546875 1.285157 14.082031zm0 0"/><path d="m316.535156 363.425781c-6.367187-12.410156-19.285156-20.925781-34.164062-20.925781h-52.738282c-14.878906 0-27.796874 8.515625-34.164062 20.925781-12.644531-12.5-19.46875-29.230469-19.46875-48.347656 0-5.523437-4.476562-10-10-10s-10 4.476563-10 10c0 29.28125 12.46875 54.28125 35.25 70.976563v21.195312c0 35.703125 29.046875 64.75 64.75 64.75s64.75-29.046875 64.75-64.75v-21.195312c22.785156-16.699219 35.253906-41.695313 35.253906-70.976563 0-5.523437-4.476562-10-10-10-5.523437 0-10 4.476563-10 10 0 19.117187-6.828125 35.847656-19.46875 48.347656zm-15.785156 43.824219c0 24.675781-20.074219 44.75-44.75 44.75s-44.75-20.074219-44.75-44.75v-26.371094c0-10.132812 8.246094-18.378906 18.378906-18.378906h16.371094v24c0 5.523438 4.476562 10 10 10s10-4.476562 10-10v-24h16.367188c10.136718 0 18.382812 8.246094 18.382812 18.378906zm0 0"/><path d="m366.003906 236c0-11.027344-8.972656-20-20-20-11.03125 0-20 8.972656-20 20s8.96875 20 20 20c11.027344 0 20-8.972656 20-20zm0 0"/><path d="m165.996094 212.523438c-20.949219 0-39.363282 14.132812-44.785156 34.367187-1.429688 5.332031 1.734374 10.816406 7.070312 12.246094.867188.230469 1.738281.34375 2.59375.34375 4.414062 0 8.457031-2.945313 9.652344-7.414063 3.085937-11.507812 13.558594-19.542968 25.472656-19.542968 11.910156 0 22.382812 8.035156 25.46875 19.542968 1.429688 5.332032 6.910156 8.503906 12.246094 7.070313 5.335937-1.429688 8.5-6.910157 7.070312-12.246094-5.421875-20.234375-23.839844-34.367187-44.789062-34.367187zm0 0"/></svg>