<svg height="512pt" viewBox="0 0 512.001 512" width="512pt" xmlns="http://www.w3.org/2000/svg"><path d="m437.019531 74.980469c-48.351562-48.351563-112.640625-74.980469-181.019531-74.980469-52.03125 0-102.125 15.535156-144.867188 44.925781-4.550781 3.128907-5.703124 9.355469-2.574218 13.90625s9.355468 5.699219 13.90625 2.574219c39.394531-27.085938 85.570312-41.40625 133.535156-41.40625 130.132812 0 236 105.871094 236 236 0 130.132812-105.871094 236-236 236s-236-105.867188-236-236c0-47.972656 14.316406-94.144531 41.398438-133.527344 3.128906-4.550781 1.980468-10.777344-2.570313-13.90625s-10.777344-1.980468-13.90625 2.574219c-29.390625 42.730469-44.921875 92.824219-44.921875 144.859375 0 68.382812 26.628906 132.667969 74.980469 181.019531 48.351562 48.351563 112.640625 74.980469 181.019531 74.980469s132.667969-26.628906 181.019531-74.980469c48.355469-48.351562 74.980469-112.636719 74.980469-181.019531 0-68.378906-26.628906-132.667969-74.980469-181.019531zm0 0"/><path d="m75.648438 89.738281c1.867187 1.558594 4.136718 2.316407 6.394531 2.316407 2.867187 0 5.710937-1.226563 7.691406-3.601563 3.535156-4.242187 2.960937-10.546875-1.28125-14.082031s-10.546875-2.960938-14.082031 1.277344l-.007813.007812c-3.535156 4.242188-2.957031 10.546875 1.285157 14.082031zm0 0"/><path d="m186 426.9375h140c33.082031 0 60-26.914062 60-60s-26.917969-60-60-60h-140c-33.085938 0-60 26.917969-60 60 0 33.085938 26.917969 60 60 60zm-38.734375-50h39.933594v30h-1.199219c-18.605469 0-34.28125-12.765625-38.734375-30zm159.933594-20h-40v-30h40zm0 50h-40v-30h40zm-60-50h-40v-30h40zm0 20v30h-40v-30zm80 29.96875v-29.96875h37.535156c-4.355469 16.859375-19.460937 29.433594-37.535156 29.96875zm37.535156-49.96875h-37.535156v-29.96875c18.074219.535156 33.179687 13.109375 37.535156 29.96875zm-178.734375-30h1.199219v30h-39.933594c4.453125-17.234375 20.128906-30 38.734375-30zm0 0"/><path d="m310.535156 252.066406c3.082032-11.507812 13.554688-19.542968 25.46875-19.542968 11.914063 0 22.386719 8.035156 25.46875 19.542968 1.195313 4.46875 5.238282 7.414063 9.652344 7.414063.855469 0 1.726562-.109375 2.59375-.34375 5.335938-1.429688 8.5-6.914063 7.074219-12.246094-5.421875-20.234375-23.839844-34.367187-44.789063-34.367187-20.949218 0-39.367187 14.132812-44.789062 34.367187-1.429688 5.332031 1.738281 10.816406 7.070312 12.246094 5.335938 1.429687 10.816406-1.734375 12.25-7.070313zm0 0"/><path d="m140.875 259.480469c4.414062 0 8.457031-2.945313 9.652344-7.414063 3.082031-11.507812 13.558594-19.542968 25.46875-19.542968 11.914062 0 22.386718 8.035156 25.46875 19.542968 1.429687 5.332032 6.914062 8.503906 12.25 7.070313 5.332031-1.429688 8.5-6.910157 7.070312-12.246094-5.421875-20.234375-23.839844-34.367187-44.789062-34.367187-20.949219 0-39.367188 14.132812-44.789063 34.367187-1.429687 5.332031 1.738281 10.816406 7.074219 12.246094.867188.230469 1.738281.34375 2.59375.34375zm0 0"/></svg>