<svg height="512pt" viewBox="0 0 512 512" width="512pt" xmlns="http://www.w3.org/2000/svg"><path d="m437.019531 74.980469c-48.351562-48.351563-112.640625-74.980469-181.019531-74.980469-52.03125 0-102.125 15.535156-144.867188 44.925781-4.550781 3.128907-5.703124 9.351563-2.574218 13.902344 3.128906 4.554687 9.355468 5.703125 13.90625 2.574219 39.394531-27.085938 85.570312-41.402344 133.535156-41.402344 130.132812 0 236 105.871094 236 236 0 130.132812-105.867188 236-236 236-130.128906 0-236-105.867188-236-236 0-47.972656 14.316406-94.144531 41.398438-133.527344 3.128906-4.554687 1.976562-10.777344-2.570313-13.90625-4.550781-3.128906-10.777344-1.980468-13.90625 2.574219-29.390625 42.730469-44.921875 92.824219-44.921875 144.859375 0 68.378906 26.628906 132.667969 74.980469 181.019531 48.351562 48.351563 112.640625 74.980469 181.019531 74.980469s132.667969-26.628906 181.019531-74.980469c48.351563-48.351562 74.980469-112.640625 74.980469-181.019531s-26.628906-132.667969-74.980469-181.019531zm0 0"/><path d="m82.042969 92.054688c2.707031 0 5.40625-1.09375 7.378906-3.246094 3.734375-4.070313 3.457031-10.394532-.613281-14.128906-4.070313-3.730469-10.398438-3.453126-14.128906.613281l-.003907.007812c-3.734375 4.070313-3.453125 10.394531.617188 14.125 1.917969 1.761719 4.335937 2.628907 6.75 2.628907zm0 0"/><path d="m341.132812 266c0 11.027344 8.96875 20 20 20 11.027344 0 20-8.972656 20-20v-10c0-5.523438-4.480468-10-10-10h-70.257812c-5.523438 0-10 4.476562-10 10s4.476562 10 10 10zm0 0"/><path d="m211.125 246h-70.253906c-5.523438 0-10 4.476562-10 10s4.476562 10 10 10h40.253906c0 11.027344 8.972656 20 20 20 11.03125 0 20-8.972656 20-20v-10c0-5.523438-4.476562-10-10-10zm0 0"/><path d="m158.925781 352.585938c-3.902343 3.902343-3.902343 10.234374 0 14.140624 25.929688 25.929688 60.40625 40.210938 97.074219 40.210938 5.523438 0 10-4.480469 10-10 0-5.523438-4.476562-10-10-10-31.328125 0-60.777344-12.199219-82.929688-34.351562-3.90625-3.90625-10.238281-3.90625-14.144531 0zm0 0"/></svg>