<svg height="512pt" viewBox="0 0 512 512" width="512pt" xmlns="http://www.w3.org/2000/svg"><path d="m512 256c0-68.378906-26.628906-132.667969-74.980469-181.019531-48.351562-48.351563-112.640625-74.980469-181.019531-74.980469-52.03125 0-102.125 15.535156-144.867188 44.921875-4.550781 3.132813-5.703124 9.355469-2.574218 13.90625 3.128906 4.554687 9.355468 5.703125 13.90625 2.574219 39.390625-27.085938 85.566406-41.402344 133.535156-41.402344 130.128906 0 236 105.871094 236 236 0 59.085938-21.945312 115.625-61.796875 159.207031-2.011719 2.199219-2.9375 5.179688-2.523437 8.132813.796874 5.691406 1.203124 11.417968 1.203124 17.027344 0 5.226562-1.792968 7.484374-3.140624 8.726562-3.699219 3.417969-13.269532 7.074219-37.8125 5.097656-2.160157-.175781-4.3125.355469-6.140626 1.511719-37.613281 23.746094-81.109374 36.296875-125.789062 36.296875-44.675781 0-88.171875-12.550781-125.789062-36.296875-1.828126-1.15625-3.980469-1.683594-6.140626-1.511719-24.546874 1.976563-34.113281-1.679687-37.8125-5.097656-1.347656-1.242188-3.140624-3.5-3.140624-8.726562 0-5.609376.40625-11.339844 1.203124-17.023438.414063-2.953125-.511718-5.9375-2.523437-8.140625-39.851563-43.570313-61.796875-100.113281-61.796875-159.203125 0-47.972656 14.316406-94.144531 41.398438-133.53125 3.128906-4.550781 1.976562-10.773438-2.574219-13.902344-4.546875-3.128906-10.773438-1.980468-13.90625 2.570313-29.386719 42.734375-44.917969 92.828125-44.917969 144.863281 0 62.550781 22.667969 122.464844 63.9375 169.246094-.542969 5.058594-.816406 10.128906-.816406 15.121094 0 9.683593 3.21875 17.5625 9.574218 23.425781 9.5 8.769531 25.332032 12.152343 49.660157 10.574219 40.160156 24.628906 86.296875 37.632812 133.644531 37.632812 47.351562 0 93.488281-13.003906 133.644531-37.632812 24.332031 1.582031 40.160157-1.808594 49.660157-10.574219 6.355468-5.859375 9.574218-13.742188 9.574218-23.425781 0-4.992188-.273437-10.0625-.816406-15.121094 41.269531-46.789063 63.9375-106.703125 63.9375-169.246094zm0 0"/><path d="m350.65625 206.726562c-4.785156-2.761718-10.898438-1.121093-13.660156 3.660157l-21.214844 36.742187c-1.84375 3.195313-1.777344 7.144532.167969 10.277344 1.832031 2.949219 5.050781 4.722656 8.492187 4.722656.214844 0 .429688-.007812.644532-.019531l50.886718-3.285156c5.511719-.351563 9.691406-5.109375 9.335938-10.621094-.355469-5.511719-5.128906-9.683594-10.625-9.335937l-32.238282 2.078124 11.871094-20.558593c2.761719-4.78125 1.121094-10.898438-3.660156-13.660157zm0 0"/><path d="m126.695312 248.203125c-.355468 5.511719 3.820313 10.269531 9.335938 10.625l50.882812 3.28125c.214844.011719.429688.019531.644532.019531 3.441406 0 6.664062-1.773437 8.496094-4.722656 1.945312-3.132812 2.007812-7.082031.164062-10.277344l-21.214844-36.742187c-2.761718-4.78125-8.875-6.417969-13.660156-3.660157-4.78125 2.761719-6.421875 8.878907-3.660156 13.660157l11.871094 20.5625-32.238282-2.082031c-5.503906-.351563-10.265625 3.824218-10.621094 9.335937zm0 0"/><path d="m177.210938 320.554688c-24.242188 19.011718-37.59375 44.027343-37.59375 70.4375 0 6.726562 2.546874 12.425781 7.363281 16.480468 13.121093 11.039063 39.242187 6.515625 69.492187 1.265625 14.304688-2.480469 29.09375-5.042969 39.527344-5.042969s25.222656 2.5625 39.527344 5.042969c16.574218 2.875 31.910156 5.535157 44.546875 5.535157 10.421875 0 19.011719-1.808594 24.945312-6.800782 4.816407-4.054687 7.359375-9.753906 7.359375-16.480468 0-26.410157-13.351562-51.425782-37.59375-70.4375-22.273437-17.464844-50.992187-27.480469-78.789062-27.480469s-56.511719 10.015625-78.785156 27.480469zm153.707031 23.105468h-149.835938c19.03125-18.855468 47.925781-30.585937 74.917969-30.585937s55.886719 11.730469 74.917969 30.585937zm21.328125 48.410156c-.019532.023438-2.289063 2.652344-15.566406 2.101563-10.746094-.457031-24.46875-2.835937-37.734376-5.136719-15.832031-2.746094-30.789062-5.339844-42.945312-5.339844-12.152344 0-27.109375 2.59375-42.945312 5.339844-13.265626 2.300782-26.984376 4.679688-37.730469 5.136719-13.273438.5625-15.550781-2.074219-15.566407-2.097656-.035156-.066407-.136718-.402344-.136718-1.078125 0-9.722656 2.417968-18.910156 6.671875-27.335938h179.417969c4.253906 8.425782 6.671874 17.613282 6.671874 27.335938 0 .671875-.105468 1.011718-.136718 1.074218zm0 0"/><path d="m196.546875 155.738281c-2.761719-4.785156-8.875-6.421875-13.660156-3.660156-4.78125 2.761719-6.421875 8.875-3.660157 13.660156l29.671876 51.390625c1.855468 3.207032 5.214843 5.003906 8.671874 5.003906 1.695313 0 3.414063-.433593 4.988282-1.34375 4.785156-2.761718 6.421875-8.875 3.660156-13.660156zm0 0"/><path d="m329.113281 152.078125c-4.785156-2.765625-10.898437-1.125-13.660156 3.660156l-29.671875 51.390625c-2.761719 4.785156-1.121094 10.898438 3.660156 13.660156 1.574219.910157 3.292969 1.34375 4.992188 1.34375 3.453125 0 6.816406-1.796874 8.667968-5.003906l29.671876-51.390625c2.761718-4.785156 1.121093-10.902343-3.660157-13.660156zm0 0"/><path d="m82.046875 92.050781c2.5625 0 5.125-.976562 7.078125-2.929687 3.902344-3.902344 3.902344-10.234375 0-14.140625-3.90625-3.90625-10.238281-3.90625-14.144531 0l-.003907.003906c-3.90625 3.90625-3.902343 10.234375 0 14.140625 1.953126 1.953125 4.511719 2.925781 7.070313 2.925781zm0 0"/></svg>