<svg height="512pt" viewBox="0 0 512 512" width="512pt" xmlns="http://www.w3.org/2000/svg"><path d="m437.019531 74.980469c-48.351562-48.351563-112.640625-74.980469-181.019531-74.980469-52.03125 0-102.125 15.535156-144.867188 44.921875-4.550781 3.132813-5.703124 9.355469-2.574218 13.90625 3.128906 4.554687 9.355468 5.703125 13.90625 2.574219 39.390625-27.085938 85.566406-41.402344 133.535156-41.402344 130.128906 0 236 105.871094 236 236s-105.871094 236-236 236-236-105.871094-236-236c0-47.972656 14.316406-94.144531 41.398438-133.53125 3.128906-4.550781 1.976562-10.773438-2.574219-13.902344-4.546875-3.128906-10.773438-1.980468-13.90625 2.570313-29.386719 42.734375-44.917969 92.828125-44.917969 144.863281 0 68.378906 26.628906 132.667969 74.980469 181.019531 48.351562 48.351563 112.640625 74.980469 181.019531 74.980469s132.667969-26.628906 181.019531-74.980469c48.351563-48.351562 74.980469-112.640625 74.980469-181.019531s-26.628906-132.667969-74.980469-181.019531zm0 0"/><path d="m75.648438 89.738281c1.867187 1.554688 4.136718 2.316407 6.394531 2.316407 2.867187 0 5.710937-1.226563 7.691406-3.601563 3.535156-4.242187 2.960937-10.546875-1.28125-14.085937-4.238281-3.53125-10.546875-2.960938-14.085937 1.28125l-.003907.007812c-3.535156 4.242188-2.957031 10.546875 1.285157 14.082031zm0 0"/><path d="m271.992188 370.703125c-5.3125 4.554687-8.820313 7.5625-15.992188 7.5625s-10.679688-3.007813-15.992188-7.5625c-6.433593-5.511719-14.4375-12.375-29.007812-12.375s-22.574219 6.863281-29.007812 12.375c-5.3125 4.554687-8.820313 7.5625-15.992188 7.5625-5.523438 0-10 4.476563-10 10 0 5.519531 4.476562 10 10 10 14.570312 0 22.578125-6.863281 29.007812-12.378906 5.3125-4.550781 8.820313-7.558594 15.992188-7.558594s10.679688 3.007813 15.992188 7.558594c6.433593 5.515625 14.4375 12.378906 29.007812 12.378906s22.574219-6.863281 29.007812-12.378906c5.3125-4.550781 8.820313-7.558594 15.992188-7.558594s10.679688 3.007813 15.992188 7.558594c6.429687 5.515625 14.4375 12.378906 29.007812 12.378906 5.523438 0 10-4.480469 10-10 0-5.523437-4.476562-10-10-10-7.171875 0-10.679688-3.007813-15.992188-7.5625-6.433593-5.511719-14.4375-12.375-29.007812-12.375s-22.574219 6.863281-29.007812 12.375zm0 0"/><path d="m358.074219 218.929688c-3.90625-3.90625-10.238281-3.90625-14.144531 0l-30 30c-3.902344 3.90625-3.902344 10.234374 0 14.140624l30 30c1.953124 1.953126 4.511718 2.929688 7.070312 2.929688 2.5625 0 5.121094-.976562 7.074219-2.929688 3.902343-3.902343 3.902343-10.234374 0-14.140624l-22.929688-22.929688 22.929688-22.929688c3.90625-3.902343 3.90625-10.234374 0-14.140624zm0 0"/><path d="m153.925781 293.070312c1.953125 1.953126 4.511719 2.929688 7.070313 2.929688s5.121094-.976562 7.070312-2.929688l30-30c3.90625-3.902343 3.90625-10.234374 0-14.140624l-30-30c-3.902344-3.90625-10.234375-3.90625-14.140625 0s-3.90625 10.238281 0 14.140624l22.929688 22.929688-22.929688 22.929688c-3.90625 3.902343-3.90625 10.234374 0 14.140624zm0 0"/></svg>